<?xml version="1.0" encoding="UTF-8"?>
<svg version="1.1" xmlns="http://www.w3.org/2000/svg" width="250" height="250">
<path d="M0 0 C82.5 0 165 0 250 0 C250 82.5 250 165 250 250 C167.5 250 85 250 0 250 C0 167.5 0 85 0 0 Z " fill="#FEFEFE" transform="translate(0,0)"/>
<path d="M0 0 C1.09135254 0.00499512 2.18270508 0.00999023 3.30712891 0.01513672 C22.31982909 0.42229098 38.16593865 8.31950973 51.8125 21.5 C66.49199978 37.95815082 71.06907401 56.36587903 70.01953125 77.88525391 C68.78588312 93.46588064 60.61731322 106.76645617 52.6484375 119.8125 C49.25403621 125.3884772 45.96836867 131.0283124 42.67327881 136.66326904 C40.82045588 139.83126129 38.96466343 142.99751374 37.109375 146.1640625 C35.04421032 149.68936293 32.97935177 153.21483984 30.91601562 156.74121094 C20.22054482 175.00822791 20.22054482 175.00822791 14.8125 183.625 C14.1525 184.67945313 13.4925 185.73390625 12.8125 186.8203125 C9.85109864 190.7881276 7.22843534 193.10668463 2.4375 194.4375 C-2.02762145 194.51448485 -4.325037 193.7472512 -8.1875 191.5 C-13.47323126 186.07892996 -17.00862069 179.97255597 -20.67681885 173.37902832 C-22.06696703 170.88047224 -23.47429707 168.39173061 -24.88040161 165.90213013 C-25.60171941 164.62452957 -26.32215605 163.34643113 -27.04171753 162.06784058 C-30.40566002 156.0935608 -33.84807575 150.16654235 -37.3125 144.25 C-37.87727051 143.28263916 -38.44204102 142.31527832 -39.02392578 141.31860352 C-41.96592623 136.28243289 -44.92187667 131.25482375 -47.890625 126.234375 C-62.33606524 101.75510185 -74.69165845 79.80068425 -67.625 50.4375 C-61.815999 32.01871634 -49.91693315 16.98878172 -32.921875 7.71875 C-22.11665708 2.49537451 -12.00441225 -0.07273141 0 0 Z " fill="#CA5BC1" transform="translate(125.1875,9.5)"/>
<path d="M0 0 C1.125 1.625 1.125 1.625 1.125 3.625 C-0.855 4.285 -2.835 4.945 -4.875 5.625 C-2.895 6.285 -0.915 6.945 1.125 7.625 C1.125 8.285 1.125 8.945 1.125 9.625 C-1.2251719 10.3297491 -3.57841833 11.0137943 -5.9375 11.6875 C-6.59427734 11.88666016 -7.25105469 12.08582031 -7.92773438 12.29101562 C-13.19609547 13.77030913 -17.46905177 13.73783457 -22.77368164 12.00463867 C-28.60858689 10.16875187 -32.30689272 11.23465256 -37.875 13.5 C-40.515 14.53125 -43.155 15.5625 -45.875 16.625 C-38.945 16.955 -32.015 17.285 -24.875 17.625 C-25.875 23.625 -25.875 23.625 -26.875 26.625 C-39.25 27.12 -39.25 27.12 -51.875 27.625 C-51.875 28.285 -51.875 28.945 -51.875 29.625 C-50.21961042 30.31919563 -48.54863977 30.97603764 -46.875 31.625 C-46.2665625 31.9240625 -45.658125 32.223125 -45.03125 32.53125 C-38.6359322 35.29937263 -33.89387144 34.1268621 -27.3046875 32.2890625 C-20.94143963 31.05699856 -15.83287223 32.8171957 -9.9375 35.1875 C-8.22240234 35.87005859 -8.22240234 35.87005859 -6.47265625 36.56640625 C-5.61542969 36.91574219 -4.75820312 37.26507813 -3.875 37.625 C-6.33801423 40.08801423 -8.14860036 40.39266521 -11.5 41.25 C-13.00433594 41.64058594 -13.00433594 41.64058594 -14.5390625 42.0390625 C-15.69535156 42.32910156 -15.69535156 42.32910156 -16.875 42.625 C-0.55893502 44.99680243 -0.55893502 44.99680243 15.859375 46.4140625 C18.125 46.625 18.125 46.625 20.125 47.625 C20.125 44.655 20.125 41.685 20.125 38.625 C26.395 38.625 32.665 38.625 39.125 38.625 C39.125 41.595 39.125 44.565 39.125 47.625 C39.785 47.295 40.445 46.965 41.125 46.625 C43.22926333 46.34403929 45.34027165 46.11292314 47.453125 45.90625 C48.72800781 45.77863281 50.00289063 45.65101563 51.31640625 45.51953125 C52.66924413 45.38774646 54.02210901 45.25623853 55.375 45.125 C58.00547159 44.86711063 60.63557591 44.60596033 63.265625 44.34375 C64.43641602 44.22966797 65.60720703 44.11558594 66.81347656 43.99804688 C69.93116064 43.64683622 73.0302839 43.14078602 76.125 42.625 C69.69 40.645 69.69 40.645 63.125 38.625 C67.40431325 34.34568675 75.64407931 31.86063155 81.6640625 31.453125 C84.79572643 31.79476107 87.72541238 32.51800982 90.765625 33.33203125 C97.48527411 34.93686365 101.09632195 34.42053502 107.12890625 30.984375 C109.23002035 29.64426553 109.23002035 29.64426553 111.125 27.625 C102.875 27.295 94.625 26.965 86.125 26.625 C84.125 21.625 84.125 21.625 84.125 17.625 C94.52 17.13 94.52 17.13 105.125 16.625 C92.30680219 10.96730509 92.30680219 10.96730509 79.20703125 12.80078125 C72.89848989 15.29815878 64.29636074 11.42876169 58.125 9.625 C58.125 8.965 58.125 8.305 58.125 7.625 C60.105 6.965 62.085 6.305 64.125 5.625 C62.145 4.965 60.165 4.305 58.125 3.625 C60 -0.25 60 -0.25 61.125 -1.375 C81.42454216 -1.86924972 113.84689223 3.05681087 129.09765625 17.4921875 C132.04593188 20.85168833 133.99190814 23.26746301 134.4375 27.8125 C133.97641567 33.4377288 132.25115207 36.72724318 128.125 40.41015625 C117.9295818 48.03995112 106.5071505 51.76692957 94.3125 54.8125 C93.38493896 55.0504126 92.45737793 55.2883252 91.50170898 55.53344727 C72.30323538 60.05623315 52.62412003 61.12816978 32.96826172 61.01611328 C29.62556192 61.00000271 26.2840705 61.01609999 22.94140625 61.03515625 C3.5145702 61.05505652 -16.04874295 59.68157316 -34.9375 54.875 C-35.96423828 54.61968506 -36.99097656 54.36437012 -38.04882812 54.10131836 C-50.99261035 50.73841323 -66.00868957 46.15781516 -73.9375 34.625 C-75.47961828 29.69022151 -75.676284 26.26095484 -73.375 21.5625 C-63.28307795 9.70449159 -14.71738955 -10.79275234 0 0 Z " fill="#303030" transform="translate(95.875,180.375)"/>
<path d="M0 0 C1.09135254 0.00499512 2.18270508 0.00999023 3.30712891 0.01513672 C22.31982909 0.42229098 38.16593865 8.31950973 51.8125 21.5 C66.49199978 37.95815082 71.06907401 56.36587903 70.01953125 77.88525391 C68.78588312 93.46588064 60.61731322 106.76645617 52.6484375 119.8125 C49.25403621 125.3884772 45.96836867 131.0283124 42.67327881 136.66326904 C40.82045588 139.83126129 38.96466343 142.99751374 37.109375 146.1640625 C35.04421032 149.68936293 32.97935177 153.21483984 30.91601562 156.74121094 C20.22054482 175.00822791 20.22054482 175.00822791 14.8125 183.625 C14.1525 184.67945313 13.4925 185.73390625 12.8125 186.8203125 C9.85109864 190.7881276 7.22843534 193.10668463 2.4375 194.4375 C-2.02762145 194.51448485 -4.325037 193.7472512 -8.1875 191.5 C-13.47323126 186.07892996 -17.00862069 179.97255597 -20.67681885 173.37902832 C-22.06696703 170.88047224 -23.47429707 168.39173061 -24.88040161 165.90213013 C-25.60171941 164.62452957 -26.32215605 163.34643113 -27.04171753 162.06784058 C-30.40566002 156.0935608 -33.84807575 150.16654235 -37.3125 144.25 C-37.87727051 143.28263916 -38.44204102 142.31527832 -39.02392578 141.31860352 C-41.96592623 136.28243289 -44.92187667 131.25482375 -47.890625 126.234375 C-62.33606524 101.75510185 -74.69165845 79.80068425 -67.625 50.4375 C-61.815999 32.01871634 -49.91693315 16.98878172 -32.921875 7.71875 C-22.11665708 2.49537451 -12.00441225 -0.07273141 0 0 Z M-42.8671875 30.7109375 C-54.16379405 44.28968679 -58.6172952 58.92597604 -57.40185547 76.36621094 C-56.18012657 88.52784031 -50.34802969 98.27577696 -44.1875 108.5 C-43.42507204 109.79178377 -42.66463657 111.08474571 -41.90625 112.37890625 C-40.71794867 114.4063921 -39.52825427 116.43294176 -38.33251953 118.45605469 C-34.48614746 124.96395942 -30.7097127 131.51139663 -26.9375 138.0625 C-21.80652892 146.96699397 -16.66709236 155.86640732 -11.5 164.75 C-10.92411133 165.74330322 -10.34822266 166.73660645 -9.75488281 167.76000977 C-7.02867872 172.44004753 -4.26266693 177.04063385 -1.1875 181.5 C2.02043986 180.14997962 3.48686413 178.94948212 5.23046875 175.94921875 C5.67124756 175.2030127 6.11202637 174.45680664 6.56616211 173.68798828 C7.03932861 172.86282715 7.51249512 172.03766602 8 171.1875 C8.51119385 170.31593262 9.0223877 169.44436523 9.54907227 168.54638672 C10.68760689 166.60272746 11.82137091 164.65626841 12.95117188 162.70751953 C14.93023749 159.29710976 16.92405894 155.89553481 18.921875 152.49609375 C21.4639338 148.169023 24.00260531 143.840013 26.53596497 139.50784302 C30.06351052 133.47597077 33.60914728 127.45536935 37.17626953 121.44677734 C39.2602655 117.93240515 41.33180368 114.41078253 43.40185547 110.88818359 C44.74644921 108.61182223 46.10851915 106.34671399 47.47265625 104.08203125 C56.43620512 89.00689122 60.22344749 74.04464884 57.1171875 56.59375 C53.11757337 41.13305672 43.26229222 28.14314516 29.8125 19.5 C5.70728091 6.36440235 -23.94041413 10.56700828 -42.8671875 30.7109375 Z " fill="#303030" transform="translate(125.1875,9.5)"/>
<path d="M0 0 C8.87394136 6.43103213 15.40274877 15.57421457 17.54296875 26.45703125 C18.49717108 37.57896335 17.0229965 48.26133516 10.23046875 57.39453125 C9.03261633 58.77647468 7.80483513 60.1332823 6.54296875 61.45703125 C6.03121094 62.00875 5.51945312 62.56046875 4.9921875 63.12890625 C-2.93004908 70.7562705 -13.06279775 74.41980869 -23.92480469 74.31030273 C-33.82117275 73.67869077 -43.44573528 68.68938255 -50.64453125 61.95703125 C-51.62211898 60.82374417 -52.5624315 59.65690985 -53.45703125 58.45703125 C-53.92238281 57.85375 -54.38773437 57.25046875 -54.8671875 56.62890625 C-61.07709732 47.72139712 -62.61206018 37.0988708 -61.45703125 26.45703125 C-58.61337202 14.31123249 -51.88325353 5.18999987 -41.45703125 -1.54296875 C-28.86403107 -8.55004565 -12.04866776 -7.56633349 0 0 Z " fill="#313030" transform="translate(147.45703125,45.54296875)"/>
<path d="M0 0 C6.88281026 3.9648551 11.46222286 9.32939029 14.75 16.5625 C16.90605934 25.90542381 15.30117829 33.70685737 10.25 41.8203125 C6.40229339 46.87042742 1.56677104 50.00283242 -4.5 51.8125 C-13.75837672 53.03831306 -21.85359798 52.46481219 -29.5 46.8125 C-35.37455894 41.79172729 -38.72444295 34.90110389 -39.8828125 27.30078125 C-40.24032601 19.70957781 -37.68585421 13.5116379 -33.875 7.0625 C-24.62669757 -1.69904967 -11.97900289 -5.74631868 0 0 Z " fill="#FFFFFF" transform="translate(137.5,54.1875)"/>
</svg>
