<?xml version="1.0" encoding="UTF-8" standalone="no"?>
<!-- Created with Inkscape (http://www.inkscape.org/) -->

<svg
   version="1.1"
   id="svg2"
   xml:space="preserve"
   width="43.302666"
   height="43.301331"
   viewBox="0 0 43.302666 43.301331"
   sodipodi:docname="b008febeb09e32d3c5d95980414e9943-06.pdf"
   xmlns:inkscape="http://www.inkscape.org/namespaces/inkscape"
   xmlns:sodipodi="http://sodipodi.sourceforge.net/DTD/sodipodi-0.dtd"
   xmlns="http://www.w3.org/2000/svg"
   xmlns:svg="http://www.w3.org/2000/svg"><defs
     id="defs6"><clipPath
       clipPathUnits="userSpaceOnUse"
       id="clipPath16"><path
         d="M 0,35 H 35 V 0 H 0 Z"
         id="path14" /></clipPath></defs><sodipodi:namedview
     id="namedview4"
     pagecolor="#ffffff"
     bordercolor="#666666"
     borderopacity="1.0"
     inkscape:pageshadow="2"
     inkscape:pageopacity="0.0"
     inkscape:pagecheckerboard="0" /><g
     id="g8"
     inkscape:groupmode="layer"
     inkscape:label="b008febeb09e32d3c5d95980414e9943-06"
     transform="matrix(1.3333333,0,0,-1.3333333,-1.6817333,44.983732)"><g
       id="g10"><g
         id="g12"
         clip-path="url(#clipPath16)"><g
           id="g18"
           transform="translate(29.5163,1.2618)"><path
             d="m 0,0 h -24.033 c -2.331,0 -4.222,1.89 -4.222,4.222 v 24.033 c 0,2.331 1.891,4.221 4.222,4.221 H 0 c 2.332,0 4.222,-1.89 4.222,-4.221 V 4.222 C 4.222,1.89 2.332,0 0,0"
             style="fill:#ffffff;fill-opacity:1;fill-rule:nonzero;stroke:none"
             id="path20" /></g><g
           id="g22"
           transform="translate(26.9587,18.8986)"><path
             d="M 0,0 C 0,-0.006 0.002,0.062 0,0.129 -0.024,0.786 -0.499,1.287 -1.174,1.365 -1.762,1.433 -2.37,1.007 -2.517,0.409 -2.563,0.223 -2.567,0.026 -2.588,-0.166 -2.654,-0.76 -2.911,-1.255 -3.352,-1.656 -3.802,-2.066 -4.341,-2.228 -4.94,-2.271 -5.711,-2.326 -6.239,-2.907 -6.197,-3.606 -6.151,-4.357 -5.58,-4.854 -4.785,-4.835 -2.189,-4.772 -0.084,-2.676 0,0"
             style="fill:#fca313;fill-opacity:1;fill-rule:nonzero;stroke:none"
             id="path24" /></g><g
           id="g26"
           transform="translate(10.2514,15.6894)"><path
             d="M 0,0 C 0.867,0.003 1.7,0.339 2.333,0.939 2.677,1.267 2.716,1.742 2.424,2.068 2.135,2.391 1.68,2.413 1.313,2.123 1.188,2.025 1.067,1.917 0.931,1.835 0.287,1.443 -0.62,1.463 -1.327,2.115 -1.677,2.438 -2.164,2.391 -2.451,2.054 -2.732,1.724 -2.695,1.265 -2.356,0.945 -1.695,0.32 -0.905,0.018 0,0"
             style="fill:#fca313;fill-opacity:1;fill-rule:nonzero;stroke:none"
             id="path28" /></g><g
           id="g30"
           transform="translate(14.5975,24.7647)"><path
             d="m 0,0 c 0.668,0.373 1.323,0.766 2.004,1.106 0.341,0.17 0.733,0.238 1.097,0.365 0.327,0.115 0.515,0.4 0.51,0.735 C 3.607,2.52 3.402,2.819 3.106,2.925 2.794,3.036 2.505,2.93 2.202,2.826 2.389,2.612 2.478,2.393 2.323,2.145 2.206,1.958 2.03,1.874 1.806,1.921 1.473,1.991 1.4,2.246 1.393,2.555 -0.41,1.804 -1.786,0.579 -2.926,-0.979 c 0.392,-0.038 0.565,-0.17 0.611,-0.436 0.036,-0.212 -0.094,-0.459 -0.301,-0.529 -0.098,-0.032 -0.231,-0.054 -0.314,-0.013 -0.155,0.077 -0.285,0.204 -0.436,0.318 -0.098,-0.172 -0.222,-0.372 -0.329,-0.579 -0.232,-0.451 -0.101,-0.918 0.308,-1.125 0.399,-0.203 0.837,-0.044 1.079,0.399 0.447,0.817 0.994,1.559 1.646,2.225 0.055,0.056 0.105,0.118 0.168,0.189 -0.381,0.108 -0.529,0.282 -0.508,0.563 0.019,0.237 0.198,0.422 0.435,0.447 C -0.268,0.512 -0.097,0.357 0,0"
             style="fill:#fca313;fill-opacity:1;fill-rule:nonzero;stroke:none"
             id="path32" /></g><g
           id="g34"
           transform="translate(4.7648,19.8063)"><path
             d="M 0,0 C 0.297,1.782 0.968,3.426 1.976,4.929 2.013,4.985 2.049,5.043 2.093,5.093 2.271,5.299 2.538,5.349 2.752,5.218 2.975,5.082 3.056,4.809 2.924,4.556 2.807,4.332 2.665,4.123 2.533,3.908 1.73,2.601 1.211,1.185 0.966,-0.324 0.65,-2.26 0.786,-4.174 1.433,-6.029 c 1.218,-3.488 3.516,-6.02 6.98,-7.313 4.49,-1.676 8.646,-0.913 12.278,2.225 2.245,1.939 3.535,4.456 3.873,7.414 0.433,3.794 -0.689,7.092 -3.352,9.828 C 19.383,8.003 17.144,9.156 14.548,9.546 11.545,9.997 8.76,9.379 6.212,7.719 6.078,7.631 5.946,7.54 5.811,7.455 5.493,7.255 5.2,7.288 5.03,7.538 4.86,7.789 4.929,8.093 5.245,8.29 c 0.614,0.381 1.222,0.78 1.868,1.1 1.369,0.679 2.828,1.085 4.348,1.229 2.616,0.249 5.104,-0.22 7.411,-1.491 3.302,-1.82 5.53,-4.545 6.391,-8.222 1.191,-5.084 -0.202,-9.445 -4.088,-12.947 -2.031,-1.831 -4.469,-2.807 -7.185,-3.092 -0.182,-0.019 -0.365,-0.041 -0.548,-0.062 h -1.415 c -0.333,0.039 -0.666,0.072 -0.998,0.117 -2.814,0.389 -5.252,1.56 -7.29,3.539 -2.032,1.972 -3.19,4.383 -3.755,7.155 C -0.345,-2.765 -0.108,-0.65 0,0"
             style="fill:#333333;fill-opacity:1;fill-rule:nonzero;stroke:none"
             id="path36" /></g><g
           id="g38"
           transform="translate(17.5331,21.2037)"><path
             d="m 0,0 c -1.066,-1.072 -2.231,-4.457 -1.972,-5.728 0.302,0.243 0.55,0.262 0.763,0.059 0.184,-0.175 0.222,-0.482 0.042,-0.659 -0.103,-0.102 -0.272,-0.184 -0.414,-0.187 -0.138,-0.003 -0.278,0.107 -0.42,0.169 0,-0.046 -0.002,-0.096 10e-4,-0.146 0.082,-1.502 0.478,-2.917 1.195,-4.239 0.452,-0.833 1.023,-1.582 1.686,-2.26 0.238,-0.243 0.525,-0.33 0.854,-0.235 0.319,0.092 0.514,0.314 0.587,0.634 0.071,0.315 -0.066,0.564 -0.259,0.807 -0.433,0.546 -0.871,1.091 -1.26,1.668 -0.248,0.367 -0.413,0.791 -0.616,1.192 -0.205,-0.339 -0.455,-0.449 -0.722,-0.321 -0.222,0.107 -0.357,0.396 -0.242,0.617 0.066,0.128 0.204,0.256 0.338,0.302 0.129,0.045 0.295,-0.016 0.46,-0.033 -0.44,1.496 -0.463,3.008 -0.077,4.533 -0.387,-0.062 -0.614,0.031 -0.715,0.271 -0.09,0.214 -0.014,0.476 0.177,0.605 0.239,0.162 0.465,0.112 0.755,-0.175 0.065,0.15 0.117,0.303 0.195,0.441 0.321,0.57 0.627,1.151 0.984,1.698 0.224,0.342 0.534,0.627 0.797,0.944 C 2.419,0.296 2.406,0.749 2.118,1.063 1.832,1.376 1.341,1.452 1.022,1.175 0.697,0.893 0.421,0.554 0.124,0.24 0.511,0.349 0.716,0.324 0.881,0.113 1.027,-0.075 1.032,-0.276 0.902,-0.472 0.77,-0.671 0.574,-0.727 0.349,-0.668 0.099,-0.602 0.003,-0.413 0,0 m 1.488,-14.27 c -0.534,0.004 -0.985,0.211 -1.349,0.592 -2.464,2.575 -3.496,5.638 -3.063,9.173 0.296,2.421 1.348,4.491 3.043,6.238 0.738,0.76 1.797,0.821 2.592,0.156 C 3.449,1.272 3.556,0.122 2.956,-0.637 2.513,-1.196 2.008,-1.725 1.665,-2.342 0.328,-4.741 0.33,-7.181 1.662,-9.582 c 0.33,-0.595 0.815,-1.107 1.244,-1.645 0.501,-0.628 0.583,-1.399 0.202,-2.099 -0.315,-0.58 -0.947,-0.948 -1.62,-0.944"
             style="fill:#333333;fill-opacity:1;fill-rule:nonzero;stroke:none"
             id="path40" /></g><g
           id="g42"
           transform="translate(14.5975,24.7647)"><path
             d="m 0,0 c 0.668,0.373 1.323,0.766 2.004,1.106 0.341,0.17 0.733,0.238 1.097,0.365 0.327,0.115 0.515,0.4 0.51,0.735 C 3.607,2.52 3.402,2.819 3.106,2.925 2.794,3.036 2.505,2.93 2.202,2.826 2.389,2.612 2.478,2.393 2.323,2.145 2.206,1.958 2.03,1.874 1.806,1.921 1.473,1.991 1.4,2.246 1.393,2.555 -0.41,1.804 -1.786,0.579 -2.926,-0.979 c 0.392,-0.038 0.565,-0.17 0.611,-0.436 0.036,-0.212 -0.094,-0.459 -0.301,-0.529 -0.098,-0.032 -0.231,-0.054 -0.314,-0.013 -0.155,0.077 -0.285,0.204 -0.436,0.318 -0.098,-0.172 -0.222,-0.372 -0.329,-0.579 -0.232,-0.451 -0.101,-0.918 0.308,-1.125 0.399,-0.203 0.837,-0.044 1.079,0.399 0.447,0.817 0.994,1.559 1.646,2.225 0.055,0.056 0.105,0.118 0.168,0.189 -0.381,0.108 -0.529,0.282 -0.508,0.563 0.019,0.237 0.198,0.422 0.435,0.447 C -0.268,0.512 -0.097,0.357 0,0 M 4.637,2.202 C 4.625,1.393 4.117,0.691 3.323,0.478 2.476,0.251 1.689,-0.086 0.985,-0.613 0.096,-1.278 -0.614,-2.101 -1.195,-3.041 -1.323,-3.249 -1.431,-3.469 -1.568,-3.67 c -0.524,-0.761 -1.568,-0.992 -2.353,-0.527 -0.855,0.506 -1.163,1.516 -0.687,2.408 0.851,1.596 1.991,2.955 3.443,4.043 C -0.116,3.04 1.043,3.595 2.317,3.915 3.35,4.174 4.316,3.624 4.576,2.599 4.609,2.47 4.617,2.335 4.637,2.202"
             style="fill:#333333;fill-opacity:1;fill-rule:nonzero;stroke:none"
             id="path44" /></g><g
           id="g46"
           transform="translate(26.9587,18.8986)"><path
             d="M 0,0 C 0,-0.006 0.002,0.062 0,0.129 -0.024,0.786 -0.499,1.287 -1.174,1.365 -1.762,1.433 -2.37,1.007 -2.517,0.409 -2.563,0.223 -2.567,0.026 -2.588,-0.166 -2.654,-0.76 -2.911,-1.255 -3.352,-1.656 -3.802,-2.066 -4.341,-2.228 -4.94,-2.271 -5.711,-2.326 -6.239,-2.907 -6.197,-3.606 -6.151,-4.357 -5.58,-4.854 -4.785,-4.835 -2.189,-4.772 -0.084,-2.676 0,0 m 1.013,-0.067 c -0.089,-2.77 -1.995,-5.068 -4.721,-5.655 -0.659,-0.142 -1.334,-0.231 -1.993,0.021 -0.832,0.319 -1.346,0.925 -1.472,1.801 -0.143,0.983 0.235,1.759 1.072,2.303 0.379,0.247 0.808,0.317 1.249,0.349 0.704,0.052 1.209,0.534 1.26,1.242 0.051,0.717 0.255,1.355 0.827,1.827 0.737,0.608 1.568,0.736 2.43,0.344 C 0.558,1.759 1,1.02 1.013,0.034 c 0,-0.034 0,-0.067 0,-0.101"
             style="fill:#333333;fill-opacity:1;fill-rule:nonzero;stroke:none"
             id="path48" /></g><g
           id="g50"
           transform="translate(10.2514,15.6894)"><path
             d="M 0,0 C 0.867,0.003 1.7,0.339 2.333,0.939 2.677,1.267 2.716,1.742 2.424,2.068 2.135,2.391 1.68,2.413 1.313,2.123 1.188,2.025 1.067,1.917 0.931,1.835 0.287,1.443 -0.62,1.463 -1.327,2.115 -1.677,2.438 -2.164,2.391 -2.451,2.054 -2.732,1.724 -2.695,1.265 -2.356,0.945 -1.695,0.32 -0.905,0.018 0,0 m -0.076,-1.012 c -1.202,0.035 -2.339,0.462 -3.195,1.481 -0.566,0.672 -0.481,1.718 0.147,2.346 0.636,0.637 1.68,0.701 2.369,0.136 0.286,-0.235 0.569,-0.476 0.97,-0.33 C 0.376,2.679 0.527,2.784 0.661,2.893 1.455,3.536 2.547,3.471 3.177,2.736 3.843,1.958 3.768,0.884 3.003,0.181 2.161,-0.594 1.167,-0.981 -0.076,-1.012"
             style="fill:#333333;fill-opacity:1;fill-rule:nonzero;stroke:none"
             id="path52" /></g><g
           id="g54"
           transform="translate(9.2374,26.3596)"><path
             d="m 0,0 c -0.007,-0.28 -0.275,-0.53 -0.55,-0.515 -0.255,0.013 -0.479,0.246 -0.48,0.498 0,0.278 0.259,0.529 0.542,0.524 C -0.216,0.501 0.007,0.269 0,0"
             style="fill:#333333;fill-opacity:1;fill-rule:nonzero;stroke:none"
             id="path56" /></g><g
           id="g58"
           transform="translate(12.4984,12.6086)"><path
             d="m 0,0 c -0.265,-0.008 -0.503,0.222 -0.509,0.491 -0.006,0.271 0.216,0.504 0.487,0.51 C 0.244,1.007 0.484,0.779 0.492,0.513 0.499,0.254 0.264,0.008 0,0"
             style="fill:#333333;fill-opacity:1;fill-rule:nonzero;stroke:none"
             id="path60" /></g><g
           id="g62"
           transform="translate(23.0567,8.5871)"><path
             d="m 0,0 c -0.008,-0.268 -0.246,-0.494 -0.513,-0.487 -0.266,0.007 -0.498,0.249 -0.489,0.511 0.008,0.264 0.254,0.499 0.513,0.491 C -0.224,0.506 0.008,0.262 0,0"
             style="fill:#333333;fill-opacity:1;fill-rule:nonzero;stroke:none"
             id="path64" /></g><g
           id="g66"
           transform="translate(23.1626,21.8606)"><path
             d="M 0,0 C -0.262,0.004 -0.501,0.249 -0.497,0.508 -0.493,0.774 -0.256,1.003 0.012,1 0.282,0.997 0.507,0.766 0.504,0.496 0.501,0.229 0.264,-0.005 0,0"
             style="fill:#333333;fill-opacity:1;fill-rule:nonzero;stroke:none"
             id="path68" /></g><g
           id="g70"
           transform="translate(22.7328,25.5471)"><path
             d="M 0,0 C -0.268,-0.004 -0.498,0.225 -0.501,0.498 -0.504,0.771 -0.282,1 -0.01,1.002 0.262,1.005 0.487,0.782 0.49,0.508 0.492,0.235 0.268,0.004 0,0"
             style="fill:#333333;fill-opacity:1;fill-rule:nonzero;stroke:none"
             id="path72" /></g><g
           id="g74"
           transform="translate(9.0607,13.5712)"><path
             d="m 0,0 c 0.002,-0.27 -0.225,-0.504 -0.492,-0.507 -0.262,-0.002 -0.503,0.235 -0.507,0.499 -0.004,0.265 0.229,0.499 0.498,0.502 C -0.227,0.496 -0.002,0.274 0,0"
             style="fill:#333333;fill-opacity:1;fill-rule:nonzero;stroke:none"
             id="path76" /></g><g
           id="g78"
           transform="translate(26.688,12.6529)"><path
             d="m 0,0 c -0.004,-0.261 -0.248,-0.501 -0.507,-0.498 -0.266,0.003 -0.497,0.241 -0.494,0.508 0.003,0.273 0.231,0.495 0.504,0.492 C -0.227,0.499 0.004,0.266 0,0"
             style="fill:#333333;fill-opacity:1;fill-rule:nonzero;stroke:none"
             id="path80" /></g><g
           id="g82"
           transform="translate(12.961,8.667)"><path
             d="m 0,0 c -0.264,0.001 -0.501,0.239 -0.5,0.503 0,0.268 0.232,0.498 0.502,0.498 C 0.275,1 0.498,0.776 0.497,0.501 0.497,0.232 0.266,-0.001 0,0"
             style="fill:#333333;fill-opacity:1;fill-rule:nonzero;stroke:none"
             id="path84" /></g><g
           id="g86"
           transform="translate(17.4912,9.7613)"><path
             d="M 0,0 C 0.001,0.274 0.227,0.503 0.495,0.501 0.762,0.5 0.993,0.266 0.993,-0.002 0.992,-0.272 0.763,-0.5 0.493,-0.5 0.219,-0.5 -0.001,-0.277 0,0"
             style="fill:#333333;fill-opacity:1;fill-rule:nonzero;stroke:none"
             id="path88" /></g><g
           id="g90"
           transform="translate(24.7277,16.7877)"><path
             d="M 0,0 C 0.265,0.008 0.502,-0.22 0.508,-0.49 0.514,-0.762 0.293,-0.996 0.023,-1.003 -0.239,-1.01 -0.483,-0.777 -0.491,-0.513 -0.499,-0.252 -0.265,-0.008 0,0"
             style="fill:#333333;fill-opacity:1;fill-rule:nonzero;stroke:none"
             id="path92" /></g><g
           id="g94"
           transform="translate(22.6165,15.5497)"><path
             d="m 0,0 c -0.013,-0.274 -0.249,-0.489 -0.52,-0.472 -0.273,0.016 -0.481,0.251 -0.468,0.526 0.014,0.271 0.258,0.492 0.522,0.474 C -0.191,0.509 0.013,0.277 0,0"
             style="fill:#333333;fill-opacity:1;fill-rule:nonzero;stroke:none"
             id="path96" /></g><g
           id="g98"
           transform="translate(25.7397,19.3815)"><path
             d="M 0,0 C 0.273,-0.009 0.492,-0.242 0.48,-0.512 0.468,-0.783 0.234,-1 -0.037,-0.99 -0.313,-0.98 -0.522,-0.754 -0.513,-0.475 -0.505,-0.199 -0.28,0.009 0,0"
             style="fill:#333333;fill-opacity:1;fill-rule:nonzero;stroke:none"
             id="path100" /></g><g
           id="g102"
           transform="translate(12.5384,17.0314)"><path
             d="m 0,0 c -0.005,-0.266 -0.244,-0.496 -0.511,-0.491 -0.267,0.005 -0.496,0.242 -0.491,0.508 0.005,0.266 0.245,0.499 0.508,0.494 C -0.229,0.505 0.005,0.262 0,0"
             style="fill:#333333;fill-opacity:1;fill-rule:nonzero;stroke:none"
             id="path104" /></g><g
           id="g106"
           transform="translate(9.1122,16.9808)"><path
             d="M 0,0 C -0.001,-0.276 -0.223,-0.496 -0.499,-0.495 -0.772,-0.493 -1,-0.266 -0.999,0.003 -0.997,0.267 -0.76,0.504 -0.496,0.504 -0.229,0.504 0.001,0.27 0,0"
             style="fill:#333333;fill-opacity:1;fill-rule:nonzero;stroke:none"
             id="path108" /></g><g
           id="g110"
           transform="translate(17.5331,21.2037)"><path
             d="m 0,0 c -1.066,-1.072 -2.231,-4.457 -1.972,-5.728 0.302,0.243 0.55,0.262 0.763,0.059 0.184,-0.175 0.222,-0.482 0.042,-0.659 -0.103,-0.102 -0.272,-0.184 -0.414,-0.187 -0.138,-0.003 -0.278,0.107 -0.42,0.169 0,-0.046 -0.002,-0.096 10e-4,-0.146 0.082,-1.502 0.478,-2.917 1.195,-4.239 0.452,-0.833 1.023,-1.582 1.686,-2.26 0.238,-0.243 0.525,-0.33 0.854,-0.235 0.319,0.092 0.514,0.314 0.587,0.634 0.071,0.315 -0.066,0.564 -0.259,0.807 -0.433,0.546 -0.871,1.091 -1.26,1.668 -0.248,0.367 -0.413,0.791 -0.616,1.192 -0.205,-0.339 -0.455,-0.449 -0.722,-0.321 -0.222,0.107 -0.357,0.396 -0.242,0.617 0.066,0.128 0.204,0.256 0.338,0.302 0.129,0.045 0.295,-0.016 0.46,-0.033 -0.44,1.496 -0.463,3.008 -0.077,4.533 -0.387,-0.062 -0.614,0.031 -0.715,0.271 -0.09,0.214 -0.014,0.476 0.177,0.605 0.239,0.162 0.465,0.112 0.755,-0.175 0.065,0.15 0.117,0.303 0.195,0.441 0.321,0.57 0.627,1.151 0.984,1.698 0.224,0.342 0.534,0.627 0.797,0.944 C 2.419,0.296 2.406,0.749 2.118,1.063 1.832,1.376 1.341,1.452 1.022,1.175 0.697,0.893 0.421,0.554 0.124,0.24 0.511,0.349 0.716,0.324 0.881,0.113 1.027,-0.075 1.032,-0.276 0.902,-0.472 0.77,-0.671 0.574,-0.727 0.349,-0.668 0.099,-0.602 0.003,-0.413 0,0"
             style="fill:#fca313;fill-opacity:1;fill-rule:nonzero;stroke:none"
             id="path112" /></g></g></g></g></svg>
