<?xml version="1.0" encoding="UTF-8" standalone="no"?>
<!-- Created with Inkscape (http://www.inkscape.org/) -->

<svg
   version="1.1"
   id="svg2"
   xml:space="preserve"
   width="43.302666"
   height="43.301331"
   viewBox="0 0 43.302666 43.301331"
   sodipodi:docname="b008febeb09e32d3c5d95980414e9943-10.pdf"
   xmlns:inkscape="http://www.inkscape.org/namespaces/inkscape"
   xmlns:sodipodi="http://sodipodi.sourceforge.net/DTD/sodipodi-0.dtd"
   xmlns="http://www.w3.org/2000/svg"
   xmlns:svg="http://www.w3.org/2000/svg"><defs
     id="defs6"><clipPath
       clipPathUnits="userSpaceOnUse"
       id="clipPath16"><path
         d="M 0,35 H 35 V 0 H 0 Z"
         id="path14" /></clipPath></defs><sodipodi:namedview
     id="namedview4"
     pagecolor="#ffffff"
     bordercolor="#666666"
     borderopacity="1.0"
     inkscape:pageshadow="2"
     inkscape:pageopacity="0.0"
     inkscape:pagecheckerboard="0" /><g
     id="g8"
     inkscape:groupmode="layer"
     inkscape:label="b008febeb09e32d3c5d95980414e9943-10"
     transform="matrix(1.3333333,0,0,-1.3333333,-1.6817333,44.983732)"><g
       id="g10"><g
         id="g12"
         clip-path="url(#clipPath16)"><g
           id="g18"
           transform="translate(29.5163,1.2618)"><path
             d="m 0,0 h -24.033 c -2.331,0 -4.222,1.89 -4.222,4.222 v 24.033 c 0,2.331 1.891,4.221 4.222,4.221 H 0 c 2.332,0 4.222,-1.89 4.222,-4.221 V 4.222 C 4.222,1.89 2.332,0 0,0"
             style="fill:#ffffff;fill-opacity:1;fill-rule:nonzero;stroke:none"
             id="path20" /></g><g
           id="g22"
           transform="translate(28.6892,12.4076)"><path
             d="m 0,0 c 0,-1.929 0,-3.858 0,-5.787 0,-0.852 -0.444,-1.293 -1.302,-1.295 -0.457,0 -0.915,-0.004 -1.373,0.002 -0.69,0.01 -1.147,0.46 -1.174,1.149 -0.003,0.074 -0.002,0.147 -0.002,0.221 0,3.842 -0.003,7.683 0.007,11.525 10e-4,0.225 0.068,0.469 0.169,0.672 0.438,0.875 0.902,1.738 1.354,2.608 0.087,0.168 0.184,0.312 0.397,0.311 0.214,0 0.311,-0.149 0.398,-0.314 C -1.055,8.187 -0.577,7.285 -0.114,6.376 -0.043,6.237 -0.005,6.066 -0.005,5.91 0.002,3.94 0,1.97 0,0"
             style="fill:#333333;fill-opacity:1;fill-rule:nonzero;stroke:none"
             id="path24" /></g><g
           id="g26"
           transform="translate(6.3196,15.1549)"><path
             d="M 0,0 C 0,2.722 0,5.444 0,8.166 0,8.232 -0.001,8.297 0,8.363 0.007,8.634 0.16,8.81 0.386,8.806 0.601,8.803 0.748,8.637 0.762,8.377 0.766,8.295 0.763,8.213 0.763,8.131 c 0,-5.403 0,-10.806 0,-16.21 0,-0.746 0.252,-0.996 1.002,-0.996 4.636,0 9.272,0 13.908,-0.002 0.311,0 0.605,0.05 0.769,0.332 0.092,0.16 0.14,0.368 0.14,0.554 0.009,2.919 0.006,5.837 0.006,8.755 0,0.403 0.126,0.596 0.387,0.594 0.258,-0.002 0.382,-0.195 0.382,-0.598 0,-2.926 0.002,-5.853 0,-8.779 -10e-4,-0.808 -0.463,-1.413 -1.204,-1.575 -0.142,-0.031 -0.292,-0.034 -0.439,-0.034 -4.693,-0.001 -9.386,-0.002 -14.079,0 -1.013,0 -1.634,0.626 -1.635,1.637 -0.001,2.73 0,5.461 0,8.191"
             style="fill:#333333;fill-opacity:1;fill-rule:nonzero;stroke:none"
             id="path28" /></g><g
           id="g30"
           transform="translate(19.8195,28.3477)"><path
             d="m 0,0 c 0,-0.815 -0.004,-1.549 0.002,-2.283 0.003,-0.289 0.152,-0.421 0.453,-0.423 0.457,-0.003 0.914,-10e-4 1.371,-10e-4 0.232,0 0.464,0 0.757,0 C 1.708,-1.79 0.879,-0.921 0,0 m 3.088,-3.47 c -0.896,0 -1.754,-0.004 -2.612,0.001 -0.618,0.003 -1.056,0.317 -1.193,0.855 -0.031,0.124 -0.034,0.258 -0.035,0.388 -0.003,0.834 -0.001,1.667 -0.001,2.501 0,0.088 0,0.176 0,0.295 H -1.04 c -3.589,0 -7.178,0 -10.767,0 -0.649,0 -0.928,-0.277 -0.93,-0.921 -10e-4,-0.605 0,-1.21 0,-1.815 0,-0.082 0.002,-0.164 -0.01,-0.245 -0.03,-0.205 -0.193,-0.347 -0.383,-0.34 -0.193,0.006 -0.363,0.154 -0.364,0.361 -0.006,0.793 -0.037,1.588 0.014,2.378 0.05,0.779 0.713,1.329 1.525,1.333 1.668,0.008 3.335,0.003 5.003,0.003 2.134,0 4.268,-0.003 6.402,0.004 0.241,10e-4 0.414,-0.076 0.578,-0.249 1.197,-1.264 2.399,-2.524 3.606,-3.779 0.159,-0.165 0.227,-0.339 0.227,-0.568 -0.006,-2.37 -0.003,-4.741 -0.004,-7.111 0,-0.065 0.004,-0.131 -0.004,-0.196 -0.027,-0.22 -0.189,-0.372 -0.388,-0.367 -0.2,0.004 -0.353,0.157 -0.374,0.381 -0.007,0.073 -0.003,0.147 -0.003,0.221 0,2.182 0,4.365 0,6.547 z"
             style="fill:#333333;fill-opacity:1;fill-rule:nonzero;stroke:none"
             id="path32" /></g><path
           d="M 12.641,21.752 H 11.51 v -1.531 h 1.131 z m 2.445,1.187 c 0,-0.107 0.002,-2.097 -10e-4,-3.003 -0.001,-0.347 -0.133,-0.478 -0.473,-0.479 -1.658,-0.001 -3.316,-0.001 -4.974,10e-4 -0.338,0 -0.468,0.133 -0.469,0.48 -0.002,0.89 0,1.78 -0.001,2.67 0,0.09 0,0.179 0,0.205 -0.185,0.069 -0.362,0.092 -0.477,0.189 -0.174,0.147 -0.129,0.363 0.084,0.573 0.749,0.741 1.5,1.48 2.251,2.219 0.227,0.224 0.453,0.448 0.682,0.669 0.238,0.23 0.416,0.236 0.658,0.014 1.024,-0.938 2.045,-1.88 3.07,-2.816 0.163,-0.149 0.286,-0.307 0.187,-0.532 -0.099,-0.225 -0.298,-0.25 -0.537,-0.19"
           style="fill:#333333;fill-opacity:1;fill-rule:nonzero;stroke:none"
           id="path34" /><g
           id="g36"
           transform="translate(14.9885,7.5928)"><path
             d="m 0,0 c -1.953,0 -3.905,0 -5.858,0.001 -0.089,0 -0.182,-0.003 -0.266,0.022 -0.176,0.052 -0.274,0.184 -0.269,0.366 0.005,0.178 0.099,0.312 0.283,0.353 0.094,0.021 0.194,0.024 0.291,0.024 C -1.938,0.767 1.942,0.767 5.823,0.767 6.23,0.767 6.41,0.645 6.406,0.374 6.402,0.117 6.224,0 5.833,0 3.889,0 1.944,0 0,0"
             style="fill:#333333;fill-opacity:1;fill-rule:nonzero;stroke:none"
             id="path38" /></g><g
           id="g40"
           transform="translate(14.9774,11.3186)"><path
             d="M 0,0 C 1.952,0 3.905,0 5.857,0 5.931,0 6.005,0.005 6.078,-0.004 6.283,-0.028 6.423,-0.186 6.415,-0.385 6.407,-0.593 6.296,-0.718 6.089,-0.748 6.017,-0.759 5.942,-0.757 5.869,-0.757 c -3.897,0 -7.794,0 -11.69,0 -0.041,0 -0.082,-0.001 -0.123,0.001 -0.276,0.009 -0.447,0.158 -0.442,0.384 0.004,0.225 0.178,0.371 0.455,0.371 C -3.954,0.001 -1.977,0 0,0"
             style="fill:#333333;fill-opacity:1;fill-rule:nonzero;stroke:none"
             id="path42" /></g><g
           id="g44"
           transform="translate(16.747,17.2517)"><path
             d="M 0,0 C 1.357,0 2.714,0 4.071,0 4.152,0 4.236,0.007 4.315,-0.007 4.514,-0.044 4.641,-0.161 4.645,-0.372 4.65,-0.58 4.541,-0.711 4.336,-0.751 4.257,-0.767 4.174,-0.766 4.092,-0.766 1.37,-0.767 -1.352,-0.767 -4.073,-0.767 c -0.049,0 -0.099,-0.002 -0.148,0.002 -0.251,0.019 -0.419,0.182 -0.41,0.396 0.009,0.209 0.172,0.357 0.413,0.367 C -4.063,0.005 -3.907,0 -3.752,0 -2.501,0 -1.251,0 0,0"
             style="fill:#333333;fill-opacity:1;fill-rule:nonzero;stroke:none"
             id="path46" /></g><g
           id="g48"
           transform="translate(13.3727,13.5242)"><path
             d="m 0,0 c -1.414,0 -2.829,-0.001 -4.243,0.001 -0.097,0 -0.2,-0.002 -0.289,0.029 -0.173,0.06 -0.262,0.201 -0.244,0.382 0.018,0.178 0.119,0.305 0.307,0.333 0.088,0.013 0.179,0.013 0.269,0.013 2.804,0.001 5.608,0.001 8.412,0.001 0.049,0 0.098,0.001 0.147,-0.001 C 4.631,0.744 4.779,0.612 4.781,0.383 4.783,0.147 4.622,0.001 4.341,0.001 2.894,-0.001 1.447,0 0,0"
             style="fill:#333333;fill-opacity:1;fill-rule:nonzero;stroke:none"
             id="path50" /></g><g
           id="g52"
           transform="translate(18.9415,23.1821)"><path
             d="M 0,0 C 0.719,0 1.438,0.001 2.157,0 2.489,-0.001 2.678,-0.144 2.674,-0.388 2.671,-0.624 2.485,-0.769 2.172,-0.769 c -1.454,-0.001 -2.908,-0.002 -4.363,0 -0.318,0.001 -0.489,0.142 -0.486,0.39 0.003,0.246 0.172,0.378 0.496,0.379 0.727,0.001 1.454,0 2.181,0"
             style="fill:#333333;fill-opacity:1;fill-rule:nonzero;stroke:none"
             id="path54" /></g><g
           id="g56"
           transform="translate(19.0526,19.4571)"><path
             d="m 0,0 c -0.751,0 -1.503,-0.009 -2.254,0.009 -0.123,0.003 -0.289,0.098 -0.351,0.201 -0.055,0.092 -0.035,0.28 0.027,0.378 0.057,0.088 0.215,0.155 0.329,0.156 1.511,0.01 3.022,0.009 4.533,0.005 0.251,0 0.4,-0.144 0.405,-0.363 C 2.694,0.159 2.535,0.003 2.279,0.001 1.519,-0.003 0.76,0 0,0"
             style="fill:#333333;fill-opacity:1;fill-rule:nonzero;stroke:none"
             id="path58" /></g><g
           id="g60"
           transform="translate(9.8751,17.2515)"><path
             d="M 0,0 C 0.278,0 0.556,0.003 0.833,-0.001 1.107,-0.005 1.28,-0.158 1.279,-0.384 1.278,-0.611 1.109,-0.762 0.83,-0.765 0.275,-0.77 -0.281,-0.77 -0.837,-0.764 c -0.275,0.002 -0.447,0.159 -0.446,0.383 10e-4,0.225 0.176,0.376 0.45,0.38 C -0.556,0.003 -0.278,0 0,0"
             style="fill:#333333;fill-opacity:1;fill-rule:nonzero;stroke:none"
             id="path62" /></g><g
           id="g64"
           transform="translate(20.1443,13.5243)"><path
             d="m 0,0 c -0.27,0 -0.54,-0.004 -0.809,0.001 -0.262,0.005 -0.421,0.149 -0.423,0.375 -0.002,0.228 0.149,0.376 0.416,0.38 0.548,0.006 1.096,0.006 1.643,0 C 1.097,0.753 1.248,0.61 1.25,0.382 1.252,0.148 1.089,0.004 0.809,0.001 0.54,-0.003 0.27,0 0,0"
             style="fill:#333333;fill-opacity:1;fill-rule:nonzero;stroke:none"
             id="path66" /></g><g
           id="g68"
           transform="translate(12.0567,25.7262)"><path
             d="m 0,0 c -0.051,-0.044 -0.089,-0.072 -0.123,-0.105 -0.504,-0.496 -1.495,-1.604 -1.856,-2.01 -0.09,-0.101 -0.137,-0.228 -0.138,-0.362 -0.007,-0.936 -0.004,-1.871 -0.003,-2.807 0,-0.07 0.011,-0.141 0.017,-0.217 h 0.758 c 0.01,0.033 0.019,0.048 0.019,0.063 0.002,0.467 0.002,0.934 0.004,1.401 0.002,0.459 0.375,0.83 0.835,0.839 0.291,0.005 0.583,10e-4 0.874,10e-4 0.54,-10e-4 0.982,-0.441 0.982,-0.98 0,-0.439 0,-0.877 0,-1.324 h 0.893 v 0.282 c 0,0.608 0.009,2.132 0.012,2.717 10e-4,0.153 -0.054,0.291 -0.161,0.4 C 1.67,-1.651 0.445,-0.408 0,0"
             style="fill:#7943a3;fill-opacity:1;fill-rule:nonzero;stroke:none"
             id="path70" /></g><g
           id="g72"
           transform="translate(26.3836,8.3719)"><path
             d="M 0,0 V 0.299 C 0,2.211 0,4.123 0,6.035 0,6.468 0.114,6.648 0.386,6.644 0.656,6.64 0.761,6.466 0.761,6.022 c 0,-1.903 0,-3.807 0,-5.711 0,-0.102 0,-0.203 0,-0.304 H 1.528 V 9.706 H 0.761 C 0.761,9.113 0.762,8.542 0.76,7.97 0.759,7.633 0.619,7.453 0.371,7.459 0.128,7.465 0.001,7.637 0,7.963 -0.001,8.339 0,8.714 0,9.09 0,9.299 0,9.508 0,9.712 H -0.768 V 0 Z"
             style="fill:#7943a3;fill-opacity:1;fill-rule:nonzero;stroke:none"
             id="path74" /></g><g
           id="g76"
           transform="translate(25.6025,7.5801)"><path
             d="M 0,0 C 0,-0.393 -0.012,-0.775 0.005,-1.155 0.013,-1.36 0.16,-1.488 0.361,-1.493 0.89,-1.505 1.421,-1.504 1.951,-1.495 2.127,-1.492 2.29,-1.397 2.3,-1.212 2.321,-0.811 2.307,-0.407 2.307,0 Z"
             style="fill:#ffffff;fill-opacity:1;fill-rule:nonzero;stroke:none"
             id="path78" /></g><g
           id="g80"
           transform="translate(27.6748,18.8736)"><path
             d="M 0,0 C -0.312,0.595 -0.604,1.153 -0.912,1.742 -1.225,1.141 -1.516,0.583 -1.819,0 Z"
             style="fill:#ffffff;fill-opacity:1;fill-rule:nonzero;stroke:none"
             id="path82" /></g></g></g></g></svg>
