<?xml version="1.0" encoding="UTF-8" standalone="no"?>
<!-- Created with Inkscape (http://www.inkscape.org/) -->

<svg
   version="1.1"
   id="svg2"
   xml:space="preserve"
   width="43.302666"
   height="43.301331"
   viewBox="0 0 43.302666 43.301331"
   sodipodi:docname="b008febeb09e32d3c5d95980414e9943-09.pdf"
   xmlns:inkscape="http://www.inkscape.org/namespaces/inkscape"
   xmlns:sodipodi="http://sodipodi.sourceforge.net/DTD/sodipodi-0.dtd"
   xmlns="http://www.w3.org/2000/svg"
   xmlns:svg="http://www.w3.org/2000/svg"><defs
     id="defs6"><clipPath
       clipPathUnits="userSpaceOnUse"
       id="clipPath16"><path
         d="M 0,35 H 35 V 0 H 0 Z"
         id="path14" /></clipPath></defs><sodipodi:namedview
     id="namedview4"
     pagecolor="#ffffff"
     bordercolor="#666666"
     borderopacity="1.0"
     inkscape:pageshadow="2"
     inkscape:pageopacity="0.0"
     inkscape:pagecheckerboard="0" /><g
     id="g8"
     inkscape:groupmode="layer"
     inkscape:label="b008febeb09e32d3c5d95980414e9943-09"
     transform="matrix(1.3333333,0,0,-1.3333333,-1.6817333,44.983732)"><g
       id="g10"><g
         id="g12"
         clip-path="url(#clipPath16)"><g
           id="g18"
           transform="translate(29.5163,1.2618)"><path
             d="m 0,0 h -24.033 c -2.331,0 -4.222,1.89 -4.222,4.222 v 24.033 c 0,2.331 1.891,4.221 4.222,4.221 H 0 c 2.332,0 4.222,-1.89 4.222,-4.221 V 4.222 C 4.222,1.89 2.332,0 0,0"
             style="fill:#ffffff;fill-opacity:1;fill-rule:nonzero;stroke:none"
             id="path20" /></g><g
           id="g22"
           transform="translate(27.5188,6.7156)"><path
             d="m 0,0 c -0.747,-0.006 -3.74,-0.002 -5.209,-0.002 -0.498,0 -0.996,0 -1.494,0.001 -0.064,0.001 -0.128,0.015 -0.225,0.026 0.092,0.086 0.153,0.142 0.212,0.199 1.204,1.157 1.494,3.012 0.701,4.454 -0.1,0.181 -0.223,0.318 -0.446,0.305 C -6.788,4.964 -6.922,4.642 -6.751,4.297 -5.734,2.251 -7.092,0.01 -9.369,0.001 c -3.102,-0.011 -6.203,-0.007 -9.304,0 -1.222,0.002 -2.167,0.895 -2.238,2.087 -0.071,1.171 0.795,2.164 2.012,2.306 0.401,0.047 0.478,0.126 0.517,0.529 0.26,2.724 2.867,4.618 5.513,3.978 1.484,-0.359 2.54,-1.263 3.151,-2.669 0.093,-0.213 0.195,-0.363 0.457,-0.412 0.446,-0.083 0.885,-0.208 1.318,-0.343 0.264,-0.082 0.49,-0.039 0.592,0.173 0.104,0.216 0.03,0.464 -0.227,0.566 -0.389,0.154 -0.798,0.257 -1.192,0.399 -0.113,0.041 -0.251,0.116 -0.301,0.215 -0.675,1.334 -1.719,2.24 -3.123,2.741 -0.063,0.023 -0.124,0.052 -0.188,0.08 1.994,3.688 7.14,4.419 10.153,1.458 C -1.063,9.964 -0.425,8.567 -0.284,6.94 -0.257,6.63 -0.151,6.525 0.157,6.484 0.239,6.473 0.321,6.464 0.403,6.455 1.945,6.284 3.169,4.978 3.241,3.427 3.328,1.549 1.882,0.016 0,0"
             style="fill:#37b5bf;fill-opacity:1;fill-rule:nonzero;stroke:none"
             id="path24" /></g><g
           id="g26"
           transform="translate(27.5188,6.7156)"><path
             d="m 0,0 c -0.747,-0.006 -3.74,-0.002 -5.209,-0.002 -0.498,0 -0.996,0 -1.494,0.001 -0.064,0.001 -0.128,0.015 -0.225,0.026 0.092,0.086 0.153,0.142 0.212,0.199 1.204,1.157 1.494,3.012 0.701,4.454 -0.1,0.181 -0.223,0.318 -0.446,0.305 C -6.788,4.964 -6.922,4.642 -6.751,4.297 -5.734,2.251 -7.092,0.01 -9.369,0.001 c -3.102,-0.011 -6.203,-0.007 -9.304,0 -1.222,0.002 -2.167,0.895 -2.238,2.087 -0.071,1.171 0.795,2.164 2.012,2.306 0.401,0.047 0.478,0.126 0.517,0.529 0.26,2.724 2.867,4.618 5.513,3.978 1.484,-0.359 2.54,-1.263 3.151,-2.669 0.093,-0.213 0.195,-0.363 0.457,-0.412 0.446,-0.083 0.885,-0.208 1.318,-0.343 0.264,-0.082 0.49,-0.039 0.592,0.173 0.104,0.216 0.03,0.464 -0.227,0.566 -0.389,0.154 -0.798,0.257 -1.192,0.399 -0.113,0.041 -0.251,0.116 -0.301,0.215 -0.675,1.334 -1.719,2.24 -3.123,2.741 -0.063,0.023 -0.124,0.052 -0.188,0.08 1.994,3.688 7.14,4.419 10.153,1.458 C -1.063,9.964 -0.425,8.567 -0.284,6.94 -0.257,6.63 -0.151,6.525 0.157,6.484 0.239,6.473 0.321,6.464 0.403,6.455 1.945,6.284 3.169,4.978 3.241,3.427 3.328,1.549 1.882,0.016 0,0 M 1.692,6.935 C 1.321,7.101 0.917,7.195 0.512,7.328 0.48,7.512 0.45,7.72 0.407,7.925 c -0.747,3.514 -3.747,5.901 -7.35,5.839 -0.248,-0.004 -0.364,0.045 -0.44,0.302 -0.224,0.764 -0.609,1.452 -1.1,2.077 -0.176,0.224 -0.404,0.262 -0.601,0.116 -0.195,-0.146 -0.217,-0.374 -0.059,-0.608 0.164,-0.243 0.351,-0.474 0.486,-0.732 0.209,-0.4 0.382,-0.818 0.57,-1.227 -0.087,-0.043 -0.11,-0.061 -0.136,-0.067 -2.193,-0.487 -3.835,-1.715 -4.947,-3.664 -0.042,-0.074 -0.181,-0.122 -0.28,-0.13 -0.536,-0.048 -1.085,-0.023 -1.609,-0.127 -1.202,-0.24 -2.178,-0.887 -2.985,-1.844 -0.083,0.086 -0.149,0.149 -0.208,0.218 -1.191,1.392 -1.662,3.004 -1.39,4.808 0.636,4.225 5.487,6.388 9.075,4.061 0.084,-0.055 0.166,-0.115 0.257,-0.157 0.195,-0.09 0.367,-0.031 0.487,0.132 0.129,0.177 0.117,0.367 -0.04,0.525 -0.083,0.083 -0.187,0.147 -0.287,0.211 -2.603,1.669 -6.004,1.353 -8.259,-0.767 -2.722,-2.559 -2.852,-6.805 -0.286,-9.546 0.137,-0.147 0.131,-0.243 0.06,-0.422 -0.193,-0.483 -0.363,-0.977 -0.498,-1.478 -0.051,-0.187 -0.109,-0.267 -0.295,-0.313 -1.485,-0.373 -2.474,-1.767 -2.297,-3.219 0.195,-1.592 1.42,-2.731 3.002,-2.735 4.28,-0.011 8.56,-0.006 12.84,-0.004 0.002,0 0.003,-0.001 0.004,-0.001 0.918,-0.001 5.029,-0.008 5.946,0.003 C 1.982,-0.8 3.595,0.549 3.994,2.447 4.377,4.266 3.412,6.166 1.692,6.935"
             style="fill:#333333;fill-opacity:1;fill-rule:nonzero;stroke:none"
             id="path28" /></g><g
           id="g30"
           transform="translate(21.138,18.7872)"><path
             d="m 0,0 c 1.344,-0.082 2.555,-0.619 3.568,-1.603 0.026,-0.025 0.053,-0.051 0.077,-0.078 0.186,-0.206 0.197,-0.443 0.028,-0.611 -0.171,-0.171 -0.409,-0.171 -0.61,0.031 -0.568,0.567 -1.217,1.008 -1.992,1.218 -0.438,0.118 -0.897,0.162 -1.349,0.219 -0.226,0.029 -0.417,0.082 -0.488,0.323 -0.066,0.23 0.096,0.468 0.343,0.498 C -0.306,0.012 -0.186,0 0,0"
             style="fill:#333333;fill-opacity:1;fill-rule:nonzero;stroke:none"
             id="path32" /></g><g
           id="g34"
           transform="translate(20.8313,22.7986)"><path
             d="M 0,0 V 0 C -0.111,0.192 -0.045,0.437 0.147,0.548 L 1.282,1.203 C 1.474,1.314 1.719,1.248 1.83,1.057 1.941,0.865 1.875,0.62 1.683,0.509 L 0.548,-0.147 C 0.356,-0.257 0.111,-0.192 0,0"
             style="fill:#333333;fill-opacity:1;fill-rule:nonzero;stroke:none"
             id="path36" /></g><g
           id="g38"
           transform="translate(17.8201,25.7884)"><path
             d="M 0,0 V 0 C -0.192,0.111 -0.257,0.356 -0.147,0.548 L 0.509,1.683 C 0.62,1.875 0.865,1.941 1.057,1.83 v 0 C 1.248,1.719 1.314,1.474 1.203,1.282 L 0.548,0.147 C 0.437,-0.045 0.192,-0.111 0,0"
             style="fill:#333333;fill-opacity:1;fill-rule:nonzero;stroke:none"
             id="path40" /></g><g
           id="g42"
           transform="translate(25.6324,15.6563)"><path
             d="M 0,0 C 0.061,-0.053 0.224,-0.131 0.282,-0.258 0.413,-0.545 0.506,-0.853 0.589,-1.16 0.649,-1.382 0.511,-1.588 0.294,-1.642 0.063,-1.7 -0.107,-1.6 -0.19,-1.391 -0.3,-1.112 -0.392,-0.825 -0.475,-0.537 -0.557,-0.252 -0.375,-0.007 0,0"
             style="fill:#333333;fill-opacity:1;fill-rule:nonzero;stroke:none"
             id="path44" /></g><g
           id="g46"
           transform="translate(13.7269,26.862)"><path
             d="m 0,0 v 0 c -0.221,0 -0.401,0.179 -0.401,0.401 v 1.311 c 0,0.222 0.18,0.401 0.401,0.401 v 0 c 0.221,0 0.401,-0.179 0.401,-0.401 V 0.401 C 0.401,0.179 0.221,0 0,0"
             style="fill:#333333;fill-opacity:1;fill-rule:nonzero;stroke:none"
             id="path48" /></g><g
           id="g50"
           transform="translate(3.4605,18.6906)"><path
             d="m 0,0 v 0 c 0,0.221 0.179,0.401 0.401,0.401 h 1.311 c 0.222,0 0.401,-0.18 0.401,-0.401 0,-0.221 -0.179,-0.401 -0.401,-0.401 H 0.401 C 0.179,-0.401 0,-0.221 0,0"
             style="fill:#333333;fill-opacity:1;fill-rule:nonzero;stroke:none"
             id="path52" /></g><g
           id="g54"
           transform="translate(4.8587,13.5413)"><path
             d="M 0,0 V 0 C -0.111,0.192 -0.045,0.437 0.147,0.548 L 1.282,1.203 C 1.474,1.314 1.719,1.248 1.83,1.057 v 0 C 1.941,0.865 1.875,0.62 1.683,0.509 L 0.548,-0.147 C 0.356,-0.257 0.111,-0.192 0,0"
             style="fill:#333333;fill-opacity:1;fill-rule:nonzero;stroke:none"
             id="path56" /></g><g
           id="g58"
           transform="translate(9.6609,25.7409)"><path
             d="m 0,0 v 0 c -0.192,-0.111 -0.437,-0.045 -0.548,0.147 l -0.655,1.135 c -0.111,0.192 -0.045,0.437 0.146,0.548 v 0 c 0.192,0.111 0.437,0.045 0.548,-0.147 L 0.147,0.548 C 0.257,0.356 0.192,0.111 0,0"
             style="fill:#333333;fill-opacity:1;fill-rule:nonzero;stroke:none"
             id="path60" /></g><g
           id="g62"
           transform="translate(4.8214,23.8609)"><path
             d="M 0,0 V 0 C 0.111,0.192 0.356,0.257 0.548,0.147 L 1.683,-0.509 C 1.875,-0.62 1.941,-0.865 1.83,-1.057 v 0 C 1.719,-1.248 1.474,-1.314 1.282,-1.203 L 0.147,-0.548 C -0.045,-0.437 -0.111,-0.192 0,0"
             style="fill:#333333;fill-opacity:1;fill-rule:nonzero;stroke:none"
             id="path64" /></g></g></g></g></svg>
