<?xml version="1.0" encoding="UTF-8" standalone="no"?>
<!-- Created with Inkscape (http://www.inkscape.org/) -->

<svg
   version="1.1"
   id="svg2"
   xml:space="preserve"
   width="43.302666"
   height="43.301331"
   viewBox="0 0 43.302666 43.301331"
   sodipodi:docname="b008febeb09e32d3c5d95980414e9943-08.pdf"
   xmlns:inkscape="http://www.inkscape.org/namespaces/inkscape"
   xmlns:sodipodi="http://sodipodi.sourceforge.net/DTD/sodipodi-0.dtd"
   xmlns="http://www.w3.org/2000/svg"
   xmlns:svg="http://www.w3.org/2000/svg"><defs
     id="defs6"><clipPath
       clipPathUnits="userSpaceOnUse"
       id="clipPath16"><path
         d="M 0,35 H 35 V 0 H 0 Z"
         id="path14" /></clipPath></defs><sodipodi:namedview
     id="namedview4"
     pagecolor="#ffffff"
     bordercolor="#666666"
     borderopacity="1.0"
     inkscape:pageshadow="2"
     inkscape:pageopacity="0.0"
     inkscape:pagecheckerboard="0" /><g
     id="g8"
     inkscape:groupmode="layer"
     inkscape:label="b008febeb09e32d3c5d95980414e9943-08"
     transform="matrix(1.3333333,0,0,-1.3333333,-1.6817333,44.983732)"><g
       id="g10"><g
         id="g12"
         clip-path="url(#clipPath16)"><g
           id="g18"
           transform="translate(29.5163,1.2618)"><path
             d="m 0,0 h -24.033 c -2.331,0 -4.222,1.89 -4.222,4.222 v 24.033 c 0,2.331 1.891,4.221 4.222,4.221 H 0 c 2.332,0 4.222,-1.89 4.222,-4.221 V 4.222 C 4.222,1.89 2.332,0 0,0"
             style="fill:#ffffff;fill-opacity:1;fill-rule:nonzero;stroke:none"
             id="path20" /></g><g
           id="g22"
           transform="translate(26.2617,5.3957)"><path
             d="M 0,0 C -0.503,-0.015 -1.006,-0.004 -1.541,-0.004 V 0.28 c 0,0.859 0,1.717 0,2.576 0,0.067 0.003,0.135 -0.003,0.201 C -1.565,3.296 -1.715,3.44 -1.932,3.437 -2.15,3.433 -2.295,3.287 -2.296,3.041 -2.301,2.124 -2.299,1.207 -2.299,0.289 V 0.006 h -4.763 c -0.074,0.513 -0.15,1.026 -0.221,1.539 -0.159,1.15 -0.311,2.3 -0.479,3.448 -0.025,0.17 10e-4,0.289 0.119,0.405 0.089,0.088 0.155,0.204 0.252,0.28 0.063,0.049 0.175,0.086 0.246,0.066 0.464,-0.13 0.809,-0.02 1.101,0.387 0.521,0.723 1.04,1.448 1.552,2.178 0.095,0.135 0.182,0.183 0.353,0.147 0.584,-0.121 1.172,-0.22 1.758,-0.334 C -2.21,8.089 -2.043,8.036 -1.851,7.985 -1.921,7.866 -1.984,7.779 -2.027,7.684 -2.224,7.243 -2.2,6.816 -1.925,6.414 -1.825,6.269 -1.708,6.135 -1.597,5.998 -1.041,5.314 -0.515,5.204 0.306,5.634 0.351,5.33 0.427,5.044 0.429,4.757 0.443,3.343 0.439,1.93 0.438,0.516 0.437,0.212 0.275,0.008 0,0 M -10.18,1.911 C -10.267,1.28 -10.359,0.649 -10.45,0.01 h -4.765 c 0,0.259 0,0.501 0,0.744 0,0.765 0.003,1.531 -0.003,2.297 -0.002,0.232 -0.142,0.374 -0.349,0.385 -0.218,0.012 -0.376,-0.129 -0.402,-0.363 -0.008,-0.067 -0.004,-0.135 -0.004,-0.202 0,-0.867 0,-1.734 0,-2.601 v -0.277 c -0.501,0 -0.963,-0.002 -1.425,0.001 -0.383,0.002 -0.553,0.172 -0.554,0.557 -0.003,0.572 0.001,3.208 -0.002,3.78 0,0.003 -0.002,0.005 -0.002,0.009 0,0.15 -0.002,0.3 0.011,0.449 0.026,0.277 0.082,0.552 0.127,0.846 0.787,-0.427 1.347,-0.317 1.874,0.329 0.058,0.072 0.115,0.145 0.173,0.217 0.516,0.635 0.548,1.08 0.113,1.795 0.157,0.047 0.305,0.106 0.459,0.135 0.594,0.114 1.192,0.208 1.784,0.334 0.198,0.042 0.301,0 0.414,-0.163 0.504,-0.725 1.024,-1.439 1.535,-2.16 0.238,-0.334 0.565,-0.522 0.955,-0.4 0.276,0.086 0.397,-0.011 0.532,-0.197 0.118,-0.163 0.273,-0.276 0.23,-0.542 -0.164,-1.02 -0.289,-2.047 -0.431,-3.072 m -6.212,5.659 c 0.318,-0.237 0.359,-0.486 0.136,-0.782 -0.101,-0.134 -0.208,-0.264 -0.316,-0.393 -0.287,-0.345 -0.567,-0.352 -0.899,-0.013 0.265,0.482 0.631,0.874 1.079,1.188 m 3.838,5.579 c -0.134,0.365 -0.165,0.769 -0.226,1.157 -0.045,0.288 -0.145,0.398 -0.439,0.412 -0.083,0.004 -0.168,-0.002 -0.252,0.006 -0.247,0.024 -0.39,0.158 -0.399,0.403 -0.011,0.302 -0.013,0.606 10e-4,0.908 0.013,0.272 0.117,0.348 0.378,0.263 0.18,-0.059 0.353,-0.155 0.508,-0.264 0.18,-0.127 0.359,-0.182 0.565,-0.093 0.216,0.093 0.316,0.27 0.32,0.5 0.005,0.284 0.001,0.57 0.001,0.87 2.23,-0.608 4.438,-0.604 6.679,-0.003 0,-0.276 0.003,-0.541 -10e-4,-0.805 -0.003,-0.248 0.077,-0.449 0.312,-0.557 0.225,-0.103 0.412,-0.027 0.607,0.111 0.16,0.113 0.354,0.181 0.539,0.254 0.196,0.077 0.298,-0.043 0.307,-0.215 0.016,-0.343 0.034,-0.692 -0.01,-1.031 -0.016,-0.123 -0.193,-0.246 -0.323,-0.325 -0.082,-0.05 -0.214,-0.016 -0.323,-0.022 -0.278,-0.016 -0.384,-0.125 -0.422,-0.4 -0.046,-0.332 -0.073,-0.672 -0.166,-0.992 -0.521,-1.794 -2.504,-3.049 -4.356,-2.752 -1.567,0.252 -2.736,1.044 -3.3,2.575 m -0.316,3.752 c -0.202,0.064 -0.383,0.122 -0.573,0.182 v 0.804 c 0.542,-0.123 0.632,-0.272 0.573,-0.986 m 8.808,1.01 v -0.426 -0.399 c -0.199,-0.063 -0.38,-0.12 -0.562,-0.178 -0.128,0.61 -0.059,0.736 0.562,1.003 M -8.757,7.318 c -0.739,0.553 -1.458,1.091 -2.142,1.602 0.117,0.416 0.227,0.804 0.34,1.207 1.178,-0.462 2.407,-0.467 3.604,10e-4 0.11,-0.393 0.218,-0.779 0.338,-1.209 -0.674,-0.505 -1.398,-1.046 -2.14,-1.601 m 7.626,0.258 C -0.681,7.264 -0.316,6.87 -0.04,6.38 -0.391,6.041 -0.658,6.053 -0.949,6.404 -1.052,6.526 -1.153,6.65 -1.25,6.777 c -0.228,0.3 -0.197,0.531 0.119,0.799 M 1.195,4.288 C 1.193,4.616 1.183,4.946 1.139,5.269 0.902,7.013 -0.582,8.58 -2.259,8.876 -2.963,9.001 -3.662,9.153 -4.368,9.26 -4.861,9.335 -5.341,9.543 -5.859,9.439 -5.902,9.43 -6,9.494 -6.006,9.533 c -0.048,0.328 -0.084,0.659 -0.111,0.989 -0.003,0.038 0.07,0.09 0.117,0.121 1.137,0.76 1.782,1.826 1.992,3.169 0.01,0.063 0.097,0.126 0.162,0.167 0.23,0.143 0.515,0.232 0.692,0.423 0.426,0.46 0.396,1.904 -0.009,2.385 -0.005,0.007 -0.014,0.012 -0.017,0.019 -0.042,0.111 -0.116,0.221 -0.119,0.333 -0.013,0.53 0.003,1.06 -0.011,1.59 -0.005,0.18 0.073,0.255 0.211,0.347 0.299,0.2 0.604,0.404 0.856,0.657 0.37,0.37 0.521,0.836 0.407,1.366 -0.108,0.499 -0.37,0.919 -0.698,1.297 -1.021,1.171 -2.321,1.904 -3.793,2.334 -0.593,0.173 -2.081,0.459 -3.231,0.322 -1.661,-0.197 -3.165,-0.753 -4.49,-1.772 -0.66,-0.508 -1.236,-1.093 -1.545,-1.891 -0.215,-0.555 -0.17,-1.095 0.228,-1.537 0.271,-0.301 0.615,-0.542 0.951,-0.773 0.152,-0.104 0.214,-0.193 0.209,-0.374 -0.013,-0.505 -0.011,-1.01 -10e-4,-1.515 0.004,-0.17 -0.061,-0.288 -0.15,-0.428 -0.126,-0.199 -0.231,-0.434 -0.261,-0.665 -0.044,-0.331 -0.024,-0.672 -0.011,-1.008 0.022,-0.557 0.389,-0.989 0.936,-1.1 0.128,-0.026 0.178,-0.063 0.198,-0.199 0.199,-1.326 0.843,-2.377 1.957,-3.133 0.058,-0.04 0.142,-0.106 0.141,-0.159 -0.004,-0.284 -0.016,-0.57 -0.058,-0.85 -0.024,-0.16 -0.123,-0.269 -0.327,-0.194 -0.088,0.032 -0.2,0.019 -0.298,0.002 -0.505,-0.087 -1.009,-0.18 -1.513,-0.276 -0.676,-0.129 -1.367,-0.21 -2.026,-0.402 -1.675,-0.489 -3.128,-2.092 -3.086,-4.405 -10e-4,-0.015 -0.006,-0.027 -0.006,-0.044 -0.003,-0.555 -0.002,-3.174 -10e-4,-3.729 10e-4,-0.87 0.493,-1.364 1.358,-1.364 5.732,-0.001 11.463,-0.001 17.194,0 0.866,0 1.355,0.494 1.356,1.366 10e-4,1.229 0.004,2.458 -0.002,3.686"
             style="fill:#333333;fill-opacity:1;fill-rule:nonzero;stroke:none"
             id="path24" /></g><path
           d="M 14.171,8.059 H 12.485 V 7.316 h 1.686 z M 13.32,6.544 c -0.311,0 -0.622,-0.003 -0.933,0.001 -0.418,0.005 -0.66,0.234 -0.674,0.651 -0.011,0.336 -0.013,0.673 0.001,1.008 0.016,0.391 0.256,0.625 0.643,0.629 0.647,0.007 1.294,0.007 1.941,0 C 14.693,8.829 14.929,8.598 14.939,8.209 14.949,7.865 14.949,7.52 14.94,7.175 14.929,6.786 14.691,6.553 14.303,6.546 13.975,6.54 13.648,6.545 13.32,6.544"
           style="fill:#333333;fill-opacity:1;fill-rule:nonzero;stroke:none"
           id="path26" /><path
           d="M 22.531,8.063 H 20.838 V 7.322 h 1.693 z M 21.669,6.544 C 21.349,6.545 21.03,6.54 20.711,6.546 20.321,6.552 20.08,6.784 20.07,7.171 c -0.009,0.353 -0.01,0.706 0.001,1.059 0.012,0.361 0.248,0.597 0.61,0.602 0.664,0.009 1.329,0.008 1.992,0 0.36,-0.005 0.601,-0.233 0.619,-0.598 0.019,-0.361 0.019,-0.724 0,-1.084 -0.019,-0.376 -0.265,-0.594 -0.64,-0.605 -0.016,-0.001 -0.033,-0.001 -0.05,-0.001 -0.311,0 -0.622,0 -0.933,0"
           style="fill:#333333;fill-opacity:1;fill-rule:nonzero;stroke:none"
           id="path28" /><g
           id="g30"
           transform="translate(12.0546,25.9477)"><path
             d="m 0,0 c -0.007,-0.225 -0.001,-0.45 -0.001,-0.734 -0.145,0.106 -0.243,0.17 -0.331,0.245 -0.456,0.387 -0.533,0.767 -0.244,1.293 0.352,0.643 0.894,1.108 1.477,1.53 2.804,2.034 6.841,1.908 9.498,-0.315 0.364,-0.304 0.697,-0.665 0.97,-1.051 0.49,-0.693 0.328,-1.234 -0.467,-1.675 0,0.224 0.003,0.428 0,0.633 -0.008,0.579 -0.338,1.03 -0.894,1.168 C 8.381,1.501 6.734,1.783 5.05,1.761 3.612,1.743 2.209,1.481 0.829,1.09 0.348,0.954 0.016,0.505 0,0"
             style="fill:#34495e;fill-opacity:1;fill-rule:nonzero;stroke:none"
             id="path32" /></g><g
           id="g34"
           transform="translate(21.2731,24.1904)"><path
             d="M 0,0 C 0.224,-0.004 0.448,-0.001 0.672,-0.001 0.68,-0.022 0.689,-0.043 0.697,-0.063 0.55,-0.165 0.41,-0.279 0.254,-0.365 c -0.809,-0.451 -1.696,-0.637 -2.603,-0.733 -1.562,-0.166 -3.109,-0.106 -4.618,0.375 -0.457,0.145 -0.893,0.336 -1.248,0.722 h 0.257 c 1.919,0 3.838,0 5.757,0 0.067,0 0.134,-0.002 0.202,0.001 0.292,0.01 0.46,0.158 0.452,0.396 -0.008,0.226 -0.169,0.359 -0.455,0.36 -2.045,0.001 -4.09,0.001 -6.135,0.001 h -0.321 c 0,0.36 -0.029,0.698 0.015,1.026 0.018,0.129 0.182,0.304 0.313,0.341 1.635,0.461 3.295,0.733 5.006,0.608 1.211,-0.089 2.402,-0.292 3.58,-0.577 0.386,-0.093 0.469,-0.198 0.47,-0.593 0.001,-0.258 0,-0.517 0,-0.806 -0.326,0 -0.627,0.003 -0.927,0 C -0.298,0.753 -0.471,0.612 -0.471,0.381 -0.47,0.152 -0.292,0.005 0,0"
             style="fill:#34495e;fill-opacity:1;fill-rule:nonzero;stroke:none"
             id="path36" /></g><g
           id="g38"
           transform="translate(20.4049,13.9406)"><path
             d="M 0,0 C 0.197,0.174 0.392,0.192 0.639,0.085 0.612,0.033 0.593,-0.018 0.562,-0.062 0.119,-0.685 -0.331,-1.303 -0.769,-1.931 c -0.107,-0.154 -0.209,-0.185 -0.378,-0.106 -0.317,0.147 -0.641,0.278 -0.995,0.43 0.491,0.367 0.955,0.714 1.418,1.06 C -0.481,-0.366 -0.226,-0.199 0,0"
             style="fill:#34495e;fill-opacity:1;fill-rule:nonzero;stroke:none"
             id="path40" /></g><g
           id="g42"
           transform="translate(18.2138,11.5074)"><path
             d="M 0,0 C -0.42,-0.581 -1.055,-0.573 -1.404,0.001 -0.809,0.357 -0.652,0.358 0,0"
             style="fill:#34495e;fill-opacity:1;fill-rule:nonzero;stroke:none"
             id="path44" /></g><g
           id="g46"
           transform="translate(13.9833,14.0343)"><path
             d="M 0,0 C 0.205,0.079 0.385,0.092 0.591,-0.068 1.281,-0.605 1.987,-1.12 2.687,-1.644 2.7,-1.653 2.708,-1.67 2.739,-1.712 2.38,-1.865 2.036,-2.02 1.684,-2.155 1.621,-2.179 1.489,-2.144 1.451,-2.091 0.958,-1.411 0.476,-0.723 -0.008,-0.037 -0.011,-0.033 -0.005,-0.022 0,0"
             style="fill:#34495e;fill-opacity:1;fill-rule:nonzero;stroke:none"
             id="path48" /></g><g
           id="g50"
           transform="translate(16.579,5.4009)"><path
             d="M 0,0 C 0.23,1.651 0.456,3.28 0.686,4.929 H 1.165 C 1.392,3.298 1.621,1.657 1.851,0 Z"
             style="fill:#34495e;fill-opacity:1;fill-rule:nonzero;stroke:none"
             id="path52" /></g></g></g></g></svg>
