<?xml version="1.0" encoding="UTF-8" standalone="no"?>
<!-- Created with Inkscape (http://www.inkscape.org/) -->

<svg
   version="1.1"
   id="svg2"
   xml:space="preserve"
   width="43.302666"
   height="43.301331"
   viewBox="0 0 43.302666 43.301331"
   sodipodi:docname="b008febeb09e32d3c5d95980414e9943-07.pdf"
   xmlns:inkscape="http://www.inkscape.org/namespaces/inkscape"
   xmlns:sodipodi="http://sodipodi.sourceforge.net/DTD/sodipodi-0.dtd"
   xmlns="http://www.w3.org/2000/svg"
   xmlns:svg="http://www.w3.org/2000/svg"><defs
     id="defs6"><clipPath
       clipPathUnits="userSpaceOnUse"
       id="clipPath16"><path
         d="M 0,35 H 35 V 0 H 0 Z"
         id="path14" /></clipPath></defs><sodipodi:namedview
     id="namedview4"
     pagecolor="#ffffff"
     bordercolor="#666666"
     borderopacity="1.0"
     inkscape:pageshadow="2"
     inkscape:pageopacity="0.0"
     inkscape:pagecheckerboard="0" /><g
     id="g8"
     inkscape:groupmode="layer"
     inkscape:label="b008febeb09e32d3c5d95980414e9943-07"
     transform="matrix(1.3333333,0,0,-1.3333333,-1.6817333,45.064399)"><g
       id="g10"><g
         id="g12"
         clip-path="url(#clipPath16)"><g
           id="g18"
           transform="translate(29.5163,1.3223)"><path
             d="m 0,0 h -24.033 c -2.331,0 -4.222,1.89 -4.222,4.222 v 24.033 c 0,2.331 1.891,4.221 4.222,4.221 H 0 c 2.332,0 4.222,-1.89 4.222,-4.221 V 4.222 C 4.222,1.89 2.332,0 0,0"
             style="fill:#ffffff;fill-opacity:1;fill-rule:nonzero;stroke:none"
             id="path20" /></g><g
           id="g22"
           transform="translate(21.5015,19.6647)"><path
             d="M 0,0 C 0.975,0.483 2.597,1.582 3.471,2.424 3.974,2.909 4.445,3.437 4.862,3.996 5.434,4.763 5.6,5.664 5.461,6.601 5.142,8.749 3.218,10.169 1.15,9.884 -1.082,9.578 -2.484,7.661 -2.157,5.448 -1.865,3.468 -0.975,1.727 0,0"
             style="fill:#01ae5c;fill-opacity:1;fill-rule:nonzero;stroke:none"
             id="path24" /></g><g
           id="g26"
           transform="translate(21.5015,19.6647)"><path
             d="M 0,0 C 0.975,0.483 2.597,1.582 3.471,2.424 3.974,2.909 4.445,3.437 4.862,3.996 5.434,4.763 5.6,5.664 5.461,6.601 5.142,8.749 3.218,10.169 1.15,9.884 -1.082,9.578 -2.484,7.661 -2.157,5.448 -1.865,3.468 -0.975,1.727 0,0 M 3.484,10.445 C 6.279,9.276 7.359,5.705 5.296,3.109 4.298,1.853 3.055,0.886 1.724,0.023 1.2,-0.317 0.652,-0.62 0.108,-0.927 c -0.265,-0.15 -0.475,-0.097 -0.631,0.157 -1.082,1.757 -1.989,3.591 -2.406,5.631 -0.308,1.505 -0.112,2.914 0.862,4.15 0.789,1.001 1.821,1.618 3.088,1.77 1.365,0.163 2.032,-0.156 2.463,-0.336"
             style="fill:#333333;fill-opacity:1;fill-rule:nonzero;stroke:none"
             id="path28" /></g><g
           id="g30"
           transform="translate(12.3927,6.8658)"><path
             d="M 0,0 C 0.738,-0.467 1.474,-0.825 2.279,-1.065 1.878,-0.502 1.494,0.036 1.091,0.601 0.745,0.41 0.387,0.213 0,0 M 7.924,-1.069 C 8.726,-0.82 9.471,-0.478 10.207,0.007 9.805,0.224 9.446,0.419 9.116,0.597 8.706,0.025 8.322,-0.513 7.924,-1.069 M 2.283,16.925 c -0.797,-0.244 -1.541,-0.591 -2.284,-1.073 0.406,-0.22 0.765,-0.414 1.094,-0.593 0.41,0.575 0.796,1.114 1.19,1.666 M 5.552,-1.481 c 1.324,0.37 2.056,1.329 2.693,2.428 -0.891,0.31 -1.77,0.483 -2.693,0.52 z M 4.66,14.385 v 2.95 C 3.334,16.981 2.608,16.01 1.961,14.914 2.848,14.596 3.731,14.433 4.66,14.385 M 1.994,0.955 C 2.487,-0.156 3.72,-1.388 4.657,-1.437 V 1.469 C 3.73,1.426 2.85,1.26 1.994,0.955 M 5.552,7.483 V 2.412 C 6.596,2.206 7.617,2.005 8.659,1.799 9.395,3.586 9.793,5.488 9.817,7.483 Z M 4.664,7.478 H 0.39 C 0.421,5.47 0.813,3.564 1.551,1.799 2.615,2.009 3.63,2.208 4.664,2.411 Z M 4.661,8.365 v 5.079 C 3.617,13.651 2.602,13.851 1.55,14.059 0.813,12.276 0.41,10.364 0.394,8.365 Z M 10.754,7.484 C 10.621,6.435 10.549,5.396 10.344,4.383 10.137,3.365 9.798,2.373 9.517,1.368 9.971,1.107 10.46,0.827 10.967,0.536 c 2.179,1.797 3.37,4.102 3.563,6.948 z M -4.325,7.486 c 0.205,-2.861 1.393,-5.167 3.568,-6.948 0.524,0.302 1.012,0.583 1.51,0.87 -0.797,1.946 -1.202,3.97 -1.225,6.078 z m 3.854,0.881 c 0.02,2.124 0.431,4.147 1.224,6.087 -0.507,0.291 -0.996,0.572 -1.512,0.868 -2.177,-1.797 -3.372,-4.102 -3.564,-6.955 z m 10.026,2.919 c 0.251,0.049 0.514,0.1 0.842,0.164 0.109,-1.035 0.215,-2.048 0.324,-3.081 h 3.81 c -0.089,1.787 -0.632,3.405 -1.631,4.895 0.23,0.16 0.45,0.313 0.689,0.478 0.05,-0.065 0.097,-0.119 0.137,-0.179 3.898,-5.857 0.694,-14.002 -6.151,-15.634 -5.66,-1.35 -11.172,2.049 -12.52,7.721 -1.093,4.603 1.308,9.562 5.593,11.569 1.36,0.637 2.785,0.979 4.285,1.013 0.461,0.01 0.604,-0.135 0.605,-0.604 0,-0.981 0,-1.962 0,-2.944 V 14.38 c 0.274,0.02 0.523,0.039 0.797,0.059 0.036,-0.278 0.07,-0.542 0.109,-0.842 -0.3,-0.029 -0.582,-0.056 -0.885,-0.085 V 8.368 H 9.853 C 9.754,9.344 9.656,10.299 9.555,11.286"
             style="fill:#333333;fill-opacity:1;fill-rule:nonzero;stroke:none"
             id="path32" /></g><g
           id="g34"
           transform="translate(10.0996,24.2778)"><path
             d="m 0,0 c -0.229,-0.192 -0.434,-0.365 -0.657,-0.552 -0.186,0.222 -0.362,0.432 -0.551,0.658 0.221,0.185 0.431,0.361 0.656,0.549 C -0.366,0.434 -0.193,0.229 0,0"
             style="fill:#01ae5c;fill-opacity:1;fill-rule:nonzero;stroke:none"
             id="path36" /></g><path
           d="m 30.363,14.379 h -0.827 v 0.819 h 0.827 z"
           style="fill:#01ae5c;fill-opacity:1;fill-rule:nonzero;stroke:none"
           id="path38" /><path
           d="M 4.637,15.205 H 5.463 V 14.378 H 4.637 Z"
           style="fill:#01ae5c;fill-opacity:1;fill-rule:nonzero;stroke:none"
           id="path40" /><g
           id="g42"
           transform="translate(26.9821,7.3965)"><path
             d="M 0,0 C 0.229,-0.192 0.435,-0.365 0.656,-0.55 0.475,-0.766 0.303,-0.972 0.109,-1.205 -0.108,-1.025 -0.319,-0.852 -0.553,-0.659 -0.368,-0.438 -0.193,-0.23 0,0"
             style="fill:#01ae5c;fill-opacity:1;fill-rule:nonzero;stroke:none"
             id="path44" /></g><g
           id="g46"
           transform="translate(11.1168,24.9888)"><path
             d="M 0,0 C -0.147,0.255 -0.28,0.486 -0.428,0.741 -0.176,0.888 0.059,1.024 0.31,1.171 0.456,0.921 0.591,0.69 0.743,0.43 0.501,0.29 0.265,0.154 0,0"
             style="fill:#01ae5c;fill-opacity:1;fill-rule:nonzero;stroke:none"
             id="path48" /></g><g
           id="g50"
           transform="translate(14.9907,26.5612)"><path
             d="M 0,0 C -0.052,0.289 -0.1,0.55 -0.152,0.837 0.135,0.888 0.403,0.936 0.693,0.987 0.742,0.699 0.787,0.431 0.836,0.142 0.543,0.093 0.282,0.048 0,0"
             style="fill:#01ae5c;fill-opacity:1;fill-rule:nonzero;stroke:none"
             id="path52" /></g><g
           id="g54"
           transform="translate(7.3563,22.7447)"><path
             d="M 0,0 C 0.192,0.228 0.365,0.433 0.552,0.654 0.774,0.468 0.985,0.292 1.208,0.106 1.02,-0.119 0.843,-0.33 0.657,-0.552 0.434,-0.365 0.228,-0.192 0,0"
             style="fill:#01ae5c;fill-opacity:1;fill-rule:nonzero;stroke:none"
             id="path56" /></g><g
           id="g58"
           transform="translate(6.872,20.4332)"><path
             d="M 0,0 C -0.258,0.15 -0.49,0.285 -0.74,0.431 -0.594,0.683 -0.458,0.92 -0.312,1.172 -0.061,1.027 0.169,0.894 0.429,0.744 0.286,0.496 0.15,0.26 0,0"
             style="fill:#01ae5c;fill-opacity:1;fill-rule:nonzero;stroke:none"
             id="path60" /></g><g
           id="g62"
           transform="translate(5.7294,17.3039)"><path
             d="m 0,0 c -0.049,-0.288 -0.094,-0.55 -0.143,-0.839 -0.286,0.048 -0.554,0.094 -0.843,0.144 0.049,0.282 0.094,0.545 0.146,0.842 C -0.561,0.098 -0.294,0.051 0,0"
             style="fill:#01ae5c;fill-opacity:1;fill-rule:nonzero;stroke:none"
             id="path64" /></g><g
           id="g66"
           transform="translate(5.25,18.7956)"><path
             d="M 0,0 C 0.101,0.277 0.189,0.521 0.292,0.805 0.56,0.708 0.816,0.616 1.096,0.514 0.998,0.244 0.908,-0.008 0.807,-0.289 0.541,-0.193 0.284,-0.102 0,0"
             style="fill:#01ae5c;fill-opacity:1;fill-rule:nonzero;stroke:none"
             id="path68" /></g><g
           id="g70"
           transform="translate(29.4121,13.1308)"><path
             d="M 0,0 C 0.286,-0.052 0.548,-0.1 0.836,-0.153 0.788,-0.435 0.744,-0.697 0.694,-0.988 0.407,-0.94 0.138,-0.895 -0.151,-0.846 -0.1,-0.557 -0.052,-0.288 0,0"
             style="fill:#01ae5c;fill-opacity:1;fill-rule:nonzero;stroke:none"
             id="path72" /></g><g
           id="g74"
           transform="translate(29.7447,10.7943)"><path
             d="m 0,0 c -0.103,-0.282 -0.195,-0.533 -0.294,-0.804 -0.269,0.097 -0.521,0.189 -0.801,0.29 0.096,0.267 0.188,0.523 0.289,0.803 C -0.537,0.193 -0.286,0.103 0,0"
             style="fill:#01ae5c;fill-opacity:1;fill-rule:nonzero;stroke:none"
             id="path76" /></g><g
           id="g78"
           transform="translate(8.0134,7.3952)"><path
             d="M 0,0 C 0.185,-0.22 0.358,-0.426 0.549,-0.653 0.334,-0.836 0.125,-1.014 -0.104,-1.208 -0.291,-0.986 -0.467,-0.776 -0.657,-0.55 -0.431,-0.361 -0.22,-0.185 0,0"
             style="fill:#01ae5c;fill-opacity:1;fill-rule:nonzero;stroke:none"
             id="path80" /></g><g
           id="g82"
           transform="translate(8.892,5.2037)"><path
             d="M 0,0 C 0.188,0.226 0.36,0.431 0.55,0.658 0.767,0.476 0.977,0.3 1.207,0.108 1.019,-0.117 0.844,-0.327 0.658,-0.55 0.436,-0.365 0.231,-0.193 0,0"
             style="fill:#01ae5c;fill-opacity:1;fill-rule:nonzero;stroke:none"
             id="path84" /></g><g
           id="g86"
           transform="translate(24.8961,5.3075)"><path
             d="M 0,0 C 0.222,0.187 0.427,0.361 0.656,0.555 0.837,0.338 1.013,0.128 1.207,-0.104 0.987,-0.288 0.782,-0.46 0.553,-0.653 0.365,-0.432 0.189,-0.223 0,0"
             style="fill:#01ae5c;fill-opacity:1;fill-rule:nonzero;stroke:none"
             id="path88" /></g><g
           id="g90"
           transform="translate(27.6926,21.1752)"><path
             d="M 0,0 C 0.262,0.151 0.495,0.285 0.742,0.428 0.885,0.182 1.02,-0.051 1.17,-0.31 0.927,-0.453 0.691,-0.591 0.432,-0.742 0.288,-0.494 0.149,-0.257 0,0"
             style="fill:#01ae5c;fill-opacity:1;fill-rule:nonzero;stroke:none"
             id="path92" /></g><g
           id="g94"
           transform="translate(30.105,17.45)"><path
             d="m 0,0 c 0.05,-0.289 0.095,-0.551 0.144,-0.839 -0.283,-0.052 -0.543,-0.099 -0.834,-0.152 -0.052,0.279 -0.101,0.539 -0.157,0.839 0.283,0.05 0.556,0.1 0.847,0.152"
             style="fill:#01ae5c;fill-opacity:1;fill-rule:nonzero;stroke:none"
             id="path96" /></g><g
           id="g98"
           transform="translate(6.0527,11.0837)"><path
             d="m 0,0 c 0.098,-0.267 0.191,-0.519 0.296,-0.804 -0.269,-0.097 -0.526,-0.19 -0.805,-0.291 -0.1,0.273 -0.192,0.523 -0.293,0.801 C -0.535,-0.196 -0.278,-0.102 0,0"
             style="fill:#01ae5c;fill-opacity:1;fill-rule:nonzero;stroke:none"
             id="path100" /></g><g
           id="g102"
           transform="translate(6.5611,7.9818)"><path
             d="M 0,0 C -0.147,0.255 -0.28,0.486 -0.428,0.742 -0.181,0.886 0.054,1.023 0.31,1.172 0.453,0.927 0.586,0.697 0.739,0.434 0.499,0.292 0.264,0.155 0,0"
             style="fill:#01ae5c;fill-opacity:1;fill-rule:nonzero;stroke:none"
             id="path104" /></g><g
           id="g106"
           transform="translate(28.1226,9.1554)"><path
             d="M 0,0 C 0.256,-0.148 0.488,-0.282 0.74,-0.428 0.597,-0.677 0.46,-0.915 0.314,-1.17 0.061,-1.024 -0.177,-0.887 -0.429,-0.742 -0.285,-0.494 -0.152,-0.262 0,0"
             style="fill:#01ae5c;fill-opacity:1;fill-rule:nonzero;stroke:none"
             id="path108" /></g><g
           id="g110"
           transform="translate(12.689,26.7474)"><path
             d="M 0,0 C 0.285,0.103 0.536,0.194 0.806,0.291 0.905,0.021 0.998,-0.236 1.099,-0.511 0.831,-0.609 0.581,-0.7 0.299,-0.804 0.2,-0.536 0.105,-0.283 0,0"
             style="fill:#01ae5c;fill-opacity:1;fill-rule:nonzero;stroke:none"
             id="path112" /></g><g
           id="g114"
           transform="translate(28.9414,18.5014)"><path
             d="m 0,0 c -0.1,0.274 -0.194,0.53 -0.294,0.803 0.267,0.098 0.517,0.191 0.8,0.295 C 0.604,0.832 0.699,0.578 0.804,0.297 0.529,0.195 0.274,0.101 0,0"
             style="fill:#01ae5c;fill-opacity:1;fill-rule:nonzero;stroke:none"
             id="path116" /></g><g
           id="g118"
           transform="translate(5.5835,13.1282)"><path
             d="m 0,0 c 0.05,-0.285 0.095,-0.547 0.146,-0.84 -0.28,-0.052 -0.539,-0.099 -0.834,-0.153 -0.052,0.276 -0.101,0.537 -0.157,0.838 C -0.566,-0.104 -0.293,-0.054 0,0"
             style="fill:#01ae5c;fill-opacity:1;fill-rule:nonzero;stroke:none"
             id="path120" /></g><g
           id="g122"
           transform="translate(24.9597,26.1305)"><path
             d="m 0,0 c -0.003,-0.947 -0.774,-1.717 -1.711,-1.71 -0.963,0.007 -1.719,0.774 -1.711,1.736 0.008,0.947 0.772,1.699 1.724,1.695 C -0.753,1.716 0.003,0.951 0,0"
             style="fill:#333333;fill-opacity:1;fill-rule:nonzero;stroke:none"
             id="path124" /></g><g
           id="g126"
           transform="translate(23.2592,26.9896)"><path
             d="m 0,0 c -0.48,0.003 -0.855,-0.361 -0.863,-0.837 -0.007,-0.485 0.376,-0.877 0.856,-0.875 0.47,0.002 0.849,0.383 0.851,0.855 C 0.845,-0.38 0.474,-0.003 0,0"
             style="fill:#ffffff;fill-opacity:1;fill-rule:nonzero;stroke:none"
             id="path128" /></g></g></g></g></svg>
