<?xml version="1.0" encoding="UTF-8" standalone="no"?>
<!-- Created with Inkscape (http://www.inkscape.org/) -->

<svg
   version="1.1"
   id="svg2"
   xml:space="preserve"
   width="43.302666"
   height="43.301331"
   viewBox="0 0 43.302666 43.301331"
   sodipodi:docname="b008febeb09e32d3c5d95980414e9943-02.pdf"
   xmlns:inkscape="http://www.inkscape.org/namespaces/inkscape"
   xmlns:sodipodi="http://sodipodi.sourceforge.net/DTD/sodipodi-0.dtd"
   xmlns="http://www.w3.org/2000/svg"
   xmlns:svg="http://www.w3.org/2000/svg"><defs
     id="defs6"><clipPath
       clipPathUnits="userSpaceOnUse"
       id="clipPath16"><path
         d="M 0,35 H 35 V 0 H 0 Z"
         id="path14" /></clipPath></defs><sodipodi:namedview
     id="namedview4"
     pagecolor="#ffffff"
     bordercolor="#666666"
     borderopacity="1.0"
     inkscape:pageshadow="2"
     inkscape:pageopacity="0.0"
     inkscape:pagecheckerboard="0" /><g
     id="g8"
     inkscape:groupmode="layer"
     inkscape:label="b008febeb09e32d3c5d95980414e9943-02"
     transform="matrix(1.3333333,0,0,-1.3333333,-1.6817333,44.983732)"><g
       id="g10"><g
         id="g12"
         clip-path="url(#clipPath16)"><g
           id="g18"
           transform="translate(29.5163,1.2618)"><path
             d="m 0,0 h -24.033 c -2.331,0 -4.222,1.89 -4.222,4.222 v 24.033 c 0,2.331 1.891,4.221 4.222,4.221 H 0 c 2.332,0 4.222,-1.89 4.222,-4.221 V 4.222 C 4.222,1.89 2.332,0 0,0"
             style="fill:#ffffff;fill-opacity:1;fill-rule:nonzero;stroke:none"
             id="path20" /></g><g
           id="g22"
           transform="translate(22.1278,22.6313)"><path
             d="m 0,0 c 0.069,-0.625 -0.1,-1.153 -0.438,-1.566 0.396,-0.297 0.77,-0.578 1.106,-0.829 0.353,0.261 0.729,0.54 1.119,0.83 C 1.421,-1.142 1.282,-0.598 1.327,0 Z m -3.518,-1.563 c -0.367,0.42 -0.501,0.966 -0.459,1.558 h -1.322 c 0.074,-0.617 -0.11,-1.148 -0.441,-1.561 0.396,-0.297 0.77,-0.578 1.104,-0.829 0.351,0.262 0.721,0.537 1.118,0.832 m -6.418,-0.833 c 0.345,0.257 0.721,0.537 1.113,0.83 -0.357,0.424 -0.508,0.965 -0.446,1.559 H -10.6 c 0.066,-0.615 -0.109,-1.141 -0.446,-1.56 0.391,-0.292 0.767,-0.572 1.11,-0.829 m 2.644,0.873 c 0.69,-0.005 1.249,0.546 1.252,1.232 0.003,0.691 -0.546,1.247 -1.235,1.251 -0.692,0.003 -1.246,-0.542 -1.251,-1.233 -0.005,-0.692 0.542,-1.246 1.234,-1.25 m 6.554,1.237 c 0.002,0.69 -0.548,1.244 -1.239,1.246 -0.69,0.001 -1.246,-0.55 -1.247,-1.238 -0.002,-0.689 0.55,-1.244 1.239,-1.246 0.693,-10e-4 1.244,0.545 1.247,1.238 M 1.913,5.748 C 1.914,6.437 1.359,6.994 0.672,6.995 -0.014,6.995 -0.568,6.44 -0.569,5.75 -0.57,5.059 -0.018,4.503 0.67,4.503 c 0.687,0 1.243,0.556 1.243,1.245 M -8.695,5.744 c 0.003,0.691 -0.549,1.248 -1.236,1.25 -0.688,0.002 -1.245,-0.552 -1.247,-1.24 -10e-4,-0.69 0.549,-1.247 1.237,-1.251 0.687,-0.004 1.244,0.55 1.246,1.241 m -3.904,-7.267 c 0.691,-0.006 1.251,0.542 1.261,1.23 0.009,0.68 -0.553,1.249 -1.238,1.253 -0.691,0.004 -1.252,-0.545 -1.26,-1.231 -0.007,-0.683 0.55,-1.247 1.237,-1.252 m 15.928,0 C 4.016,-1.52 4.576,-0.958 4.572,-0.275 4.567,0.41 4.006,0.962 3.316,0.96 2.63,0.958 2.069,0.394 2.074,-0.289 2.079,-0.974 2.64,-1.526 3.329,-1.523 M -4.64,6.994 C -5.322,6.991 -5.886,6.421 -5.881,5.741 -5.876,5.059 -5.306,4.497 -4.624,4.503 -3.941,4.509 -3.377,5.079 -3.383,5.757 -3.389,6.44 -3.956,6.998 -4.64,6.994 M 5.593,-4.748 c 0,0.344 0.003,0.661 -0.001,0.978 C 5.581,-2.915 5.002,-2.311 4.15,-2.285 3.597,-2.269 3.044,-2.271 2.492,-2.286 1.836,-2.303 1.267,-2.683 1.135,-3.282 1.031,-3.752 1.056,-4.25 1.023,-4.748 Z m -20.436,0.007 h 4.528 c 0,0.336 0.002,0.653 -0.001,0.971 -0.007,0.839 -0.579,1.45 -1.418,1.482 -0.569,0.022 -1.14,0.021 -1.708,0 -0.726,-0.025 -1.321,-0.534 -1.393,-1.21 -0.043,-0.404 -0.008,-0.817 -0.008,-1.243 M 0.296,-4.745 c 0,0.335 0.003,0.651 0,0.968 -0.01,0.849 -0.594,1.463 -1.442,1.491 -0.561,0.018 -1.123,0.019 -1.683,-10e-4 -0.82,-0.03 -1.387,-0.609 -1.421,-1.43 -0.011,-0.259 0.009,-0.52 -0.008,-0.778 -0.014,-0.21 0.059,-0.269 0.267,-0.268 1.34,0.009 2.68,0.004 4.021,0.005 0.081,0 0.163,0.008 0.266,0.013 m -5.309,0.003 c 0,0.357 0.013,0.7 -0.003,1.04 -0.037,0.818 -0.613,1.391 -1.434,1.416 -0.553,0.017 -1.106,0.015 -1.659,10e-4 -0.674,-0.017 -1.253,-0.422 -1.378,-1.038 -0.093,-0.458 -0.069,-0.939 -0.098,-1.419 z m 2.649,6.427 c 0,0.235 0.006,0.452 -0.001,0.668 -0.022,0.73 -0.581,1.341 -1.309,1.376 -0.635,0.03 -1.273,0.026 -1.909,10e-4 -0.609,-0.024 -1.127,-0.454 -1.26,-1.049 -0.071,-0.32 -0.055,-0.66 -0.079,-0.993 0.553,-0.127 0.963,-0.395 1.276,-0.816 0.041,-0.055 0.135,-0.099 0.205,-0.1 0.537,-0.008 1.073,-0.009 1.609,0.001 0.077,0.001 0.177,0.053 0.223,0.113 0.313,0.41 0.718,0.673 1.245,0.799 m 0.741,0.008 C -1.066,1.558 -0.646,1.29 -0.33,0.858 -0.287,0.801 -0.173,0.773 -0.091,0.771 0.412,0.764 0.915,0.759 1.417,0.775 1.522,0.778 1.635,0.857 1.725,0.925 1.983,1.12 2.225,1.337 2.486,1.527 2.625,1.628 2.859,1.655 2.928,1.782 3.006,1.924 2.947,2.141 2.945,2.326 2.944,2.376 2.936,2.426 2.929,2.476 2.842,3.17 2.305,3.703 1.607,3.731 0.971,3.757 0.333,3.756 -0.303,3.728 -0.922,3.7 -1.451,3.221 -1.56,2.611 -1.612,2.317 -1.603,2.013 -1.623,1.693 m -8.308,2.048 c 0,-0.003 0,-0.005 0,-0.007 -0.327,0 -0.655,0.019 -0.98,-0.004 -0.656,-0.046 -1.193,-0.565 -1.275,-1.22 -0.027,-0.215 -0.013,-0.435 -0.028,-0.652 -0.009,-0.135 0.047,-0.185 0.175,-0.22 0.432,-0.121 0.779,-0.372 1.062,-0.723 0.061,-0.076 0.187,-0.138 0.285,-0.141 0.503,-0.014 1.006,-0.015 1.508,0.001 0.105,0.003 0.216,0.085 0.307,0.154 0.25,0.191 0.485,0.404 0.739,0.589 0.146,0.105 0.389,0.134 0.461,0.267 0.08,0.149 0.018,0.375 0.017,0.568 0,0.025 -0.003,0.05 -0.005,0.075 -0.087,0.746 -0.637,1.272 -1.386,1.31 -0.293,0.015 -0.587,0.003 -0.88,0.003 m -6.39,-12.156 c 0.956,-3.236 2.879,-5.666 5.812,-7.356 -0.101,0.277 -0.217,0.502 -0.264,0.742 -0.102,0.516 -0.193,1.037 -0.246,1.56 -0.093,0.917 -0.416,1.655 -1.364,1.971 -0.039,0.013 -0.074,0.039 -0.112,0.057 -1.131,0.567 -1.998,1.395 -2.528,2.557 -0.021,0.045 -0.038,0.103 -0.074,0.129 -0.124,0.088 -0.247,0.205 -0.387,0.238 -0.258,0.06 -0.528,0.068 -0.837,0.102 m 10.326,2.889 c 0.078,-0.364 0.125,-0.696 0.222,-1.013 0.165,-0.542 0.549,-0.851 1.113,-0.91 0.316,-0.033 0.635,-0.04 0.953,-0.05 0.636,-0.02 1.274,-0.005 1.907,-0.058 0.766,-0.064 1.263,-0.47 1.425,-1.142 0.08,-0.33 0.103,-0.678 0.116,-1.019 0.021,-0.561 -0.016,-1.125 0.025,-1.684 0.034,-0.472 0.105,-0.949 0.23,-1.404 0.111,-0.404 0.376,-0.543 0.776,-0.541 0.416,10e-4 0.776,0.166 1.068,0.44 0.875,0.82 1.498,1.795 1.721,2.993 0.068,0.362 0.101,0.73 0.166,1.092 0.169,0.95 0.471,1.809 1.41,2.304 0.36,0.19 0.521,0.565 0.57,0.992 z M 8.251,-5.938 c -0.066,-0.48 -0.116,-0.964 -0.201,-1.44 -0.521,-2.917 -1.901,-5.36 -4.088,-7.351 -0.218,-0.198 -0.441,-0.201 -0.597,-0.019 -0.155,0.178 -0.123,0.382 0.104,0.588 1.867,1.704 3.115,3.78 3.691,6.241 0.181,0.771 0.259,1.565 0.393,2.403 -0.372,0 -0.67,0.007 -0.966,-0.007 C 6.542,-5.525 6.474,-5.615 6.464,-5.673 6.329,-6.423 5.928,-6.965 5.262,-7.346 4.768,-7.628 4.636,-8.157 4.532,-8.669 4.41,-9.268 4.386,-9.892 4.212,-10.473 c -0.39,-1.304 -1.081,-2.431 -2.207,-3.242 -0.384,-0.276 -0.824,-0.398 -1.303,-0.389 -0.635,0.012 -1.082,0.309 -1.355,0.873 -0.281,0.581 -0.322,1.211 -0.345,1.84 -0.028,0.753 -0.021,1.509 -0.062,2.261 -0.029,0.525 -0.28,0.781 -0.81,0.819 -0.651,0.046 -1.306,0.036 -1.959,0.058 -0.335,0.012 -0.673,0.017 -1.002,0.068 -0.991,0.155 -1.543,0.776 -1.757,1.726 -0.055,0.244 -0.082,0.495 -0.114,0.744 -0.015,0.12 -0.034,0.204 -0.188,0.203 -2.147,-0.004 -4.294,-0.004 -6.441,-0.006 -0.024,0 -0.047,-0.012 -0.092,-0.024 -0.052,-0.365 -0.106,-0.736 -0.157,-1.107 -0.029,-0.213 0.09,-0.322 0.281,-0.338 0.334,-0.027 0.669,-0.039 1.003,-0.047 0.921,-0.023 1.843,-0.018 2.762,-0.073 0.369,-0.022 0.74,-0.143 1.092,-0.27 1.692,-0.609 1.964,-2.525 1.47,-3.625 -0.144,-0.319 -0.348,-0.611 -0.504,-0.926 -0.197,-0.395 -0.383,-0.796 -0.555,-1.202 -0.1,-0.238 -0.257,-0.358 -0.474,-0.304 -0.207,0.052 -0.335,0.253 -0.248,0.497 0.144,0.408 0.319,0.807 0.508,1.196 0.147,0.3 0.354,0.571 0.502,0.87 0.624,1.257 0.029,2.561 -1.323,2.916 -0.804,0.21 -1.627,0.201 -2.449,0.193 -0.586,-0.006 -1.175,-0.03 -1.758,0.015 -0.804,0.062 -1.145,0.532 -1.037,1.338 0.039,0.288 0.08,0.575 0.122,0.88 h -2.585 c 0.064,-0.562 0.142,-1.106 0.183,-1.653 0.023,-0.314 0.186,-0.44 0.465,-0.479 0.207,-0.029 0.414,-0.07 0.622,-0.085 0.501,-0.035 0.899,-0.25 1.103,-0.712 0.514,-1.171 1.399,-1.956 2.543,-2.454 0.962,-0.418 1.394,-1.179 1.536,-2.161 0.069,-0.481 0.135,-0.963 0.198,-1.445 0.107,-0.822 0.672,-1.363 1.185,-1.938 0.02,-0.023 0.055,-0.038 0.086,-0.048 0.436,-0.141 0.873,-0.281 1.309,-0.421 0.013,0.017 0.027,0.034 0.04,0.051 -0.127,0.209 -0.259,0.416 -0.382,0.628 -0.222,0.384 -0.451,0.765 -0.655,1.158 -0.145,0.28 -0.073,0.5 0.151,0.597 0.218,0.094 0.389,-0.007 0.534,-0.275 0.228,-0.419 0.483,-0.823 0.709,-1.243 0.169,-0.315 0.303,-0.649 0.469,-0.965 0.036,-0.068 0.14,-0.13 0.22,-0.142 2.942,-0.43 5.682,0.133 8.221,1.679 0.107,0.066 0.21,0.14 0.322,0.195 0.197,0.096 0.366,0.038 0.478,-0.14 0.107,-0.171 0.075,-0.339 -0.074,-0.476 -0.048,-0.045 -0.108,-0.079 -0.164,-0.115 -2.415,-1.529 -5.048,-2.216 -7.899,-2.001 -5.769,0.435 -10.444,4.523 -11.664,10.203 -0.15,0.701 -0.203,1.426 -0.265,2.143 -0.047,0.544 0.283,0.864 0.831,0.869 0.342,0.003 0.684,0 1.059,0 0,0.242 0.011,0.458 -0.002,0.672 -0.067,1.169 0.532,2.003 1.593,2.436 -0.304,0.292 -0.452,0.675 -0.523,1.025 -0.198,0.989 0.382,1.935 1.346,2.239 0.189,0.06 0.245,0.143 0.234,0.332 -0.032,0.581 0.052,1.137 0.404,1.626 0.283,0.394 0.659,0.661 1.13,0.832 -0.314,0.4 -0.507,0.835 -0.504,1.344 0.005,0.925 0.618,1.766 1.525,1.947 0.547,0.109 0.884,0.015 0.93,0.003 C -8.073,7.337 -7.487,5.756 -8.32,4.57 -8.357,4.517 -8.39,4.463 -8.389,4.464 -7.998,4.17 -7.623,3.889 -7.287,3.636 c 0.354,0.263 0.731,0.541 1.116,0.826 -0.025,0.037 -0.078,0.11 -0.129,0.186 -0.662,1.001 -0.297,2.364 0.782,2.89 0.609,0.33 1.279,0.174 1.326,0.162 1.052,-0.253 1.718,-1.225 1.517,-2.286 -0.067,-0.355 -0.259,-0.687 -0.373,-0.977 0.357,-0.269 0.73,-0.55 1.062,-0.8 0.361,0.266 0.736,0.543 1.119,0.826 -0.024,0.034 -0.074,0.1 -0.12,0.169 -0.698,1.036 -0.278,2.466 0.869,2.954 C 0.364,7.819 1.08,7.71 1.145,7.694 2.04,7.472 2.665,6.671 2.67,5.748 2.673,5.239 2.479,4.804 2.168,4.405 2.878,4.141 3.379,3.679 3.587,2.964 3.678,2.649 3.685,2.304 3.697,1.971 3.704,1.772 3.74,1.673 3.956,1.605 4.893,1.309 5.473,0.36 5.284,-0.599 5.212,-0.957 5.059,-1.259 4.81,-1.633 5.877,-2.066 6.42,-2.934 6.35,-4.11 6.337,-4.316 6.348,-4.523 6.348,-4.759 c 0.322,0 0.615,-0.017 0.904,0.004 0.474,0.036 0.812,-0.134 0.999,-0.579 z"
             style="fill:#333333;fill-opacity:1;fill-rule:nonzero;stroke:none"
             id="path24" /></g><g
           id="g26"
           transform="translate(16.1326,17.1048)"><path
             d="M 0,0 H 11.702 C 11.653,-0.426 11.492,-0.801 11.133,-0.991 10.193,-1.487 9.891,-2.345 9.722,-3.295 9.658,-3.658 9.624,-4.026 9.557,-4.388 9.334,-5.586 8.71,-6.56 7.835,-7.381 7.543,-7.654 7.184,-7.819 6.767,-7.821 6.367,-7.823 6.102,-7.684 5.991,-7.28 5.866,-6.825 5.795,-6.348 5.761,-5.876 5.721,-5.317 5.757,-4.753 5.736,-4.192 5.723,-3.851 5.7,-3.502 5.62,-3.172 5.458,-2.501 4.961,-2.095 4.196,-2.031 3.563,-1.978 2.924,-1.993 2.288,-1.972 1.97,-1.962 1.651,-1.956 1.336,-1.923 0.771,-1.864 0.387,-1.555 0.222,-1.013 0.125,-0.696 0.078,-0.364 0,0"
             style="fill:#ed373d;fill-opacity:1;fill-rule:nonzero;stroke:none"
             id="path28" /></g><g
           id="g30"
           transform="translate(5.8064,14.2167)"><path
             d="M 0,0 C 0.31,-0.035 0.579,-0.042 0.837,-0.102 0.977,-0.135 1.1,-0.252 1.224,-0.34 1.261,-0.367 1.278,-0.424 1.298,-0.47 1.829,-1.631 2.696,-2.459 3.827,-3.026 3.864,-3.045 3.899,-3.07 3.938,-3.083 4.886,-3.4 5.21,-4.138 5.302,-5.054 5.355,-5.578 5.446,-6.099 5.548,-6.615 5.596,-6.854 5.711,-7.08 5.813,-7.356 2.88,-5.667 0.956,-3.237 0,0"
             style="fill:#ed373d;fill-opacity:1;fill-rule:nonzero;stroke:none"
             id="path32" /></g><g
           id="g34"
           transform="translate(12.1966,26.372)"><path
             d="M 0,0 C 0.293,0 0.587,0.013 0.88,-0.002 1.629,-0.041 2.179,-0.567 2.266,-1.312 2.269,-1.337 2.271,-1.363 2.271,-1.388 2.272,-1.58 2.334,-1.807 2.254,-1.956 2.182,-2.088 1.939,-2.118 1.794,-2.223 1.539,-2.408 1.305,-2.621 1.054,-2.812 0.964,-2.881 0.852,-2.963 0.748,-2.966 0.245,-2.982 -0.258,-2.981 -0.761,-2.967 c -0.098,0.003 -0.224,0.065 -0.285,0.141 -0.283,0.351 -0.629,0.602 -1.062,0.723 -0.127,0.036 -0.184,0.085 -0.175,0.221 0.015,0.217 10e-4,0.437 0.028,0.652 0.082,0.654 0.62,1.173 1.275,1.219 0.325,0.023 0.653,0.004 0.98,0.004 0,0.002 0,0.005 0,0.007"
             style="fill:#ffffff;fill-opacity:1;fill-rule:nonzero;stroke:none"
             id="path36" /></g><g
           id="g38"
           transform="translate(20.5045,24.3242)"><path
             d="M 0,0 C 0.02,0.32 0.011,0.624 0.063,0.918 0.172,1.528 0.702,2.007 1.32,2.035 1.956,2.063 2.595,2.064 3.23,2.038 3.928,2.01 4.466,1.477 4.553,0.783 4.559,0.733 4.567,0.683 4.568,0.633 4.57,0.448 4.629,0.231 4.552,0.089 4.482,-0.038 4.249,-0.065 4.11,-0.166 3.848,-0.356 3.606,-0.573 3.348,-0.768 3.258,-0.836 3.145,-0.915 3.041,-0.918 2.538,-0.934 2.035,-0.929 1.532,-0.921 1.451,-0.92 1.336,-0.892 1.294,-0.835 0.977,-0.403 0.558,-0.135 0,0"
             style="fill:#ffffff;fill-opacity:1;fill-rule:nonzero;stroke:none"
             id="path40" /></g><g
           id="g42"
           transform="translate(19.7642,24.3159)"><path
             d="m 0,0 c -0.527,-0.126 -0.932,-0.388 -1.245,-0.798 -0.046,-0.061 -0.147,-0.112 -0.223,-0.114 -0.536,-0.01 -1.073,-0.009 -1.609,0 -0.07,0.001 -0.164,0.044 -0.205,0.1 -0.314,0.42 -0.724,0.688 -1.276,0.816 0.023,0.332 0.008,0.672 0.079,0.992 0.132,0.596 0.651,1.026 1.26,1.05 0.635,0.025 1.274,0.029 1.909,-0.002 C -0.583,2.01 -0.023,1.399 -0.001,0.669 0.006,0.452 0,0.235 0,0"
             style="fill:#ffffff;fill-opacity:1;fill-rule:nonzero;stroke:none"
             id="path44" /></g><g
           id="g46"
           transform="translate(17.1147,17.8891)"><path
             d="m 0,0 h -4.572 c 0.029,0.48 0.005,0.962 0.098,1.419 0.125,0.616 0.704,1.021 1.378,1.038 0.553,0.014 1.106,0.017 1.659,0 C -0.616,2.431 -0.04,1.858 -0.003,1.041 0.013,0.7 0,0.357 0,0"
             style="fill:#ed373d;fill-opacity:1;fill-rule:nonzero;stroke:none"
             id="path48" /></g><g
           id="g50"
           transform="translate(22.4241,17.8859)"><path
             d="m 0,0 c -0.103,-0.005 -0.185,-0.013 -0.267,-0.013 -1.34,-0.001 -2.68,0.004 -4.02,-0.005 -0.209,-0.001 -0.281,0.058 -0.267,0.268 0.017,0.259 -0.004,0.519 0.007,0.779 0.035,0.82 0.602,1.4 1.421,1.429 0.561,0.021 1.123,0.02 1.684,10e-4 C -0.594,2.432 -0.01,1.817 -0.001,0.968 0.003,0.652 0,0.335 0,0"
             style="fill:#ffffff;fill-opacity:1;fill-rule:nonzero;stroke:none"
             id="path52" /></g><g
           id="g54"
           transform="translate(7.2849,17.8906)"><path
             d="m 0,0 c 0,0.425 -0.035,0.838 0.008,1.243 0.072,0.676 0.667,1.184 1.392,1.21 0.569,0.02 1.14,0.022 1.708,0 C 3.947,2.421 4.519,1.81 4.527,0.97 4.53,0.653 4.527,0.335 4.527,0 Z"
             style="fill:#ffffff;fill-opacity:1;fill-rule:nonzero;stroke:none"
             id="path56" /></g><g
           id="g58"
           transform="translate(27.7205,17.8837)"><path
             d="m 0,0 h -4.569 c 0.032,0.497 0.007,0.996 0.111,1.466 0.132,0.599 0.701,0.979 1.357,0.996 0.552,0.015 1.106,0.016 1.658,0 C -0.59,2.437 -0.012,1.833 -0.001,0.978 0.003,0.661 0,0.343 0,0"
             style="fill:#ffffff;fill-opacity:1;fill-rule:nonzero;stroke:none"
             id="path60" /></g><g
           id="g62"
           transform="translate(17.4876,29.6255)"><path
             d="M 0,0 C 0.684,0.004 1.251,-0.554 1.257,-1.237 1.264,-1.916 0.7,-2.485 0.016,-2.491 -0.665,-2.497 -1.236,-1.935 -1.241,-1.253 -1.246,-0.573 -0.682,-0.004 0,0"
             style="fill:#ffffff;fill-opacity:1;fill-rule:nonzero;stroke:none"
             id="path64" /></g><g
           id="g66"
           transform="translate(25.4572,21.1081)"><path
             d="M 0,0 C -0.689,-0.003 -1.251,0.549 -1.255,1.235 -1.26,1.918 -0.7,2.481 -0.013,2.483 0.677,2.485 1.238,1.933 1.242,1.248 1.246,0.565 0.687,0.003 0,0"
             style="fill:#ffffff;fill-opacity:1;fill-rule:nonzero;stroke:none"
             id="path68" /></g><g
           id="g70"
           transform="translate(9.5292,21.1081)"><path
             d="M 0,0 C -0.687,0.005 -1.244,0.57 -1.237,1.252 -1.23,1.938 -0.668,2.487 0.022,2.483 0.708,2.479 1.269,1.91 1.26,1.23 1.251,0.542 0.69,-0.005 0,0"
             style="fill:#ffffff;fill-opacity:1;fill-rule:nonzero;stroke:none"
             id="path72" /></g><g
           id="g74"
           transform="translate(13.4331,28.3751)"><path
             d="m 0,0 c -0.002,-0.691 -0.559,-1.245 -1.246,-1.241 -0.688,0.004 -1.239,0.561 -1.237,1.251 0.002,0.688 0.559,1.243 1.247,1.241 C -0.549,1.249 0.002,0.691 0,0"
             style="fill:#ffffff;fill-opacity:1;fill-rule:nonzero;stroke:none"
             id="path76" /></g><g
           id="g78"
           transform="translate(24.0412,28.3794)"><path
             d="m 0,0 c 0,-0.689 -0.556,-1.245 -1.243,-1.245 -0.689,0 -1.241,0.556 -1.24,1.247 10e-4,0.69 0.555,1.245 1.242,1.244 C -0.554,1.246 0,0.689 0,0"
             style="fill:#ffffff;fill-opacity:1;fill-rule:nonzero;stroke:none"
             id="path80" /></g><g
           id="g82"
           transform="translate(21.3894,22.345)"><path
             d="m 0,0 c -0.003,-0.693 -0.553,-1.239 -1.247,-1.238 -0.689,0.002 -1.241,0.557 -1.239,1.246 0.002,0.688 0.557,1.239 1.248,1.238 C -0.548,1.245 0.003,0.691 0,0"
             style="fill:#ffffff;fill-opacity:1;fill-rule:nonzero;stroke:none"
             id="path84" /></g><g
           id="g86"
           transform="translate(14.8354,21.1078)"><path
             d="M 0,0 C -0.692,0.005 -1.239,0.558 -1.234,1.25 -1.228,1.941 -0.675,2.487 0.018,2.483 0.706,2.48 1.255,1.923 1.253,1.233 1.25,0.546 0.69,-0.005 0,0"
             style="fill:#ed373d;fill-opacity:1;fill-rule:nonzero;stroke:none"
             id="path88" /></g></g></g></g></svg>
