<?xml version="1.0" encoding="UTF-8" standalone="no"?>
<!-- Created with Inkscape (http://www.inkscape.org/) -->

<svg
   version="1.1"
   id="svg2"
   xml:space="preserve"
   width="43.302666"
   height="43.301331"
   viewBox="0 0 43.302666 43.301331"
   sodipodi:docname="b008febeb09e32d3c5d95980414e9943-05.pdf"
   xmlns:inkscape="http://www.inkscape.org/namespaces/inkscape"
   xmlns:sodipodi="http://sodipodi.sourceforge.net/DTD/sodipodi-0.dtd"
   xmlns="http://www.w3.org/2000/svg"
   xmlns:svg="http://www.w3.org/2000/svg"><defs
     id="defs6"><clipPath
       clipPathUnits="userSpaceOnUse"
       id="clipPath16"><path
         d="M 0,35 H 35 V 0 H 0 Z"
         id="path14" /></clipPath></defs><sodipodi:namedview
     id="namedview4"
     pagecolor="#ffffff"
     bordercolor="#666666"
     borderopacity="1.0"
     inkscape:pageshadow="2"
     inkscape:pageopacity="0.0"
     inkscape:pagecheckerboard="0" /><g
     id="g8"
     inkscape:groupmode="layer"
     inkscape:label="b008febeb09e32d3c5d95980414e9943-05"
     transform="matrix(1.3333333,0,0,-1.3333333,-1.6817333,44.983732)"><g
       id="g10"><g
         id="g12"
         clip-path="url(#clipPath16)"><g
           id="g18"
           transform="translate(29.5163,1.2618)"><path
             d="m 0,0 h -24.033 c -2.331,0 -4.222,1.89 -4.222,4.222 v 24.033 c 0,2.331 1.891,4.221 4.222,4.221 H 0 c 2.332,0 4.222,-1.89 4.222,-4.221 V 4.222 C 4.222,1.89 2.332,0 0,0"
             style="fill:#ffffff;fill-opacity:1;fill-rule:nonzero;stroke:none"
             id="path20" /></g><g
           id="g22"
           transform="translate(29.5887,17.1008)"><path
             d="m 0,0 h -18.949 c -0.061,-0.283 -0.094,-0.553 -0.177,-0.806 -0.34,-1.039 -1.303,-1.745 -2.4,-1.762 -0.743,-0.011 -1.486,-0.002 -2.304,-0.002 0.269,-0.707 0.515,-1.368 0.777,-2.024 0.025,-0.064 0.144,-0.125 0.221,-0.127 0.439,-0.013 0.88,-0.006 1.32,-0.006 1.563,0 3.126,0.005 4.688,-0.003 0.896,-0.004 1.623,-0.674 1.713,-1.551 0.09,-0.881 -0.51,-1.681 -1.4,-1.862 -0.121,-0.025 -0.245,-0.037 -0.38,-0.057 0.127,-0.447 0.058,-0.85 -0.219,-1.208 -0.279,-0.36 -0.671,-0.496 -1.183,-0.51 2.248,-1.306 4.586,-1.845 7.026,-1.682 0.072,0.465 0.133,0.863 0.195,1.266 -0.151,0 -0.33,-0.001 -0.509,0 -1.024,0.006 -1.794,0.742 -1.797,1.717 -0.004,0.988 0.77,1.729 1.808,1.733 0.275,0.001 0.549,0 0.833,0 -0.021,0.132 -0.043,0.228 -0.051,0.326 -0.058,0.75 0.519,1.385 1.281,1.397 0.56,0.009 1.12,0.002 1.63,0.002 -0.112,0.404 -0.284,0.782 -0.313,1.171 -0.09,1.241 0.885,2.269 2.133,2.277 1.841,0.01 3.682,0.003 5.524,0.003 0.105,0 0.21,0 0.348,0 C -0.123,-1.132 -0.063,-0.581 0,0"
             style="fill:#008e39;fill-opacity:1;fill-rule:nonzero;stroke:none"
             id="path24" /></g><g
           id="g26"
           transform="translate(9.4665,19.2601)"><path
             d="m 0,0 h -1.863 v -1.28 c 0.375,0 0.732,-0.005 1.089,0.005 0.064,0.002 0.156,0.053 0.185,0.108 0.2,0.378 0.387,0.763 0.589,1.167 m -3.62,0.89 h 2.604 c -0.064,0.096 -0.11,0.169 -0.16,0.239 -0.181,0.256 -0.371,0.507 -0.544,0.768 -0.221,0.335 -0.04,0.683 0.358,0.704 0.104,0.005 0.208,0 0.367,0 C -1.448,3.235 -1.87,3.827 -2.313,4.447 -2.76,3.82 -3.182,3.228 -3.629,2.602 c 0.122,0 0.185,-0.003 0.247,0 0.219,0.013 0.414,-0.026 0.527,-0.241 C -2.739,2.141 -2.848,1.967 -2.974,1.794 -3.184,1.506 -3.389,1.214 -3.62,0.89 m 19.631,-2.17 c 0.61,0 1.22,-10e-4 1.83,0.001 0.341,10e-4 0.538,0.157 0.542,0.424 0.004,0.269 -0.194,0.434 -0.53,0.437 -0.242,0.002 -0.484,-0.004 -0.726,0.003 -0.28,0.007 -0.431,0.149 -0.465,0.42 -0.069,0.547 -0.4,0.876 -0.874,0.871 C 15.322,0.871 15,0.544 14.935,0.011 c -0.034,-0.274 -0.183,-0.414 -0.46,-0.427 -0.099,-0.005 -0.197,0 -0.296,-0.001 -0.338,-0.004 -0.535,-0.164 -0.535,-0.433 10e-4,-0.268 0.198,-0.428 0.538,-0.429 0.61,-0.002 1.219,-0.001 1.829,-0.001 m -9.943,0 c 0.637,0 1.274,-0.003 1.91,0.002 0.296,0.002 0.484,0.173 0.487,0.425 0.003,0.253 -0.184,0.428 -0.477,0.434 -0.26,0.006 -0.52,-0.003 -0.78,0.004 -0.279,0.007 -0.43,0.15 -0.464,0.422 C 6.675,0.551 6.343,0.882 5.869,0.876 5.405,0.87 5.083,0.542 5.017,0.009 4.983,-0.263 4.833,-0.403 4.556,-0.416 4.457,-0.421 4.358,-0.416 4.26,-0.417 3.922,-0.421 3.725,-0.582 3.727,-0.851 3.729,-1.119 3.925,-1.278 4.265,-1.279 4.866,-1.281 5.467,-1.28 6.068,-1.28 M 0.263,-2.165 h -4.314 c 0.065,-0.582 0.127,-1.139 0.19,-1.698 0.884,0 1.72,-0.028 2.554,0.008 0.88,0.038 1.572,0.808 1.57,1.69 m -2.675,-5.584 c 0.054,-0.102 0.084,-0.164 0.12,-0.224 0.635,-1.042 1.425,-1.951 2.315,-2.784 0.359,-0.335 0.728,-0.515 1.221,-0.448 0.229,0.031 0.466,0.002 0.699,0.006 0.285,0.006 0.467,0.16 0.485,0.401 0.017,0.239 -0.143,0.413 -0.425,0.461 -0.287,0.049 -0.445,0.216 -0.432,0.454 0.014,0.251 0.2,0.405 0.504,0.408 0.413,0.003 0.826,-0.008 1.238,0.004 0.48,0.013 0.848,0.404 0.842,0.873 -0.007,0.459 -0.37,0.83 -0.84,0.846 -0.26,0.01 -0.521,0.003 -0.781,0.003 -1.632,0 -3.265,0 -4.946,0 m 15.241,6.481 c -0.218,0.966 0.383,1.681 1.282,1.73 0.132,0.187 0.121,0.365 0.018,0.572 -0.262,0.53 -0.501,1.071 -0.749,1.608 -0.07,0.15 -0.141,0.3 -0.229,0.489 C 13.004,2.875 12.887,2.664 12.762,2.457 12.557,2.116 12.275,2.075 11.991,2.351 11.825,2.511 11.671,2.684 11.484,2.881 11.299,2.684 11.151,2.517 10.992,2.361 10.687,2.062 10.394,2.113 10.196,2.494 10.083,2.711 9.974,2.929 9.843,3.186 9.394,2.213 8.968,1.289 8.539,0.358 9.195,-0.009 9.441,-0.543 9.275,-1.268 Z M 4.203,0.463 c 0.259,0.743 0.764,1.221 1.568,1.265 0.915,0.051 1.49,-0.449 1.8,-1.28 0.033,0.016 0.057,0.019 0.063,0.031 0.455,0.975 0.909,1.951 1.358,2.929 0.024,0.05 0.029,0.13 0.006,0.178 C 8.729,4.138 8.452,4.686 8.162,5.265 7.954,5.017 7.771,4.797 7.586,4.579 7.278,4.215 6.987,4.239 6.736,4.653 6.535,4.982 6.34,5.315 6.14,5.645 6.059,5.778 5.974,5.908 5.875,6.065 5.569,5.556 5.291,5.085 5.006,4.619 4.777,4.244 4.466,4.227 4.186,4.57 4.001,4.796 3.818,5.025 3.608,5.286 2.506,3.082 1.424,0.917 0.334,-1.265 H 2.91 c -0.219,0.979 0.4,1.681 1.293,1.728 M 9.838,-13.64 c 5.054,0.684 8.912,4.718 9.866,8.904 -1.924,0 -3.845,0.011 -5.766,-0.008 -0.507,-0.005 -0.953,-0.414 -1.101,-0.899 -0.247,-0.813 0.313,-1.602 1.188,-1.674 0.332,-0.027 0.536,-0.247 0.468,-0.518 -0.066,-0.257 -0.252,-0.348 -0.507,-0.347 -1.086,0.003 -2.173,0.002 -3.26,0.001 -0.328,-0.001 -0.517,-0.15 -0.531,-0.409 -0.013,-0.245 0.141,-0.398 0.46,-0.456 0.257,-0.046 0.415,-0.23 0.397,-0.46 -0.019,-0.241 -0.202,-0.397 -0.488,-0.398 -0.7,-0.004 -1.401,0.004 -2.101,-0.004 -0.451,-0.006 -0.814,-0.347 -0.854,-0.779 -0.04,-0.428 0.24,-0.82 0.665,-0.919 0.103,-0.024 0.214,-0.024 0.321,-0.024 0.665,-0.002 1.329,-10e-4 1.994,-10e-4 0.198,-10e-4 0.377,-0.075 0.417,-0.27 0.029,-0.139 0.002,-0.328 -0.078,-0.439 -0.068,-0.094 -0.244,-0.133 -0.378,-0.152 C 9.977,-12.57 9.627,-13.113 9.838,-13.64 M 20.122,-2.159 H 1.173 c -0.06,-0.284 -0.094,-0.553 -0.177,-0.806 -0.34,-1.04 -1.303,-1.746 -2.4,-1.762 -0.743,-0.011 -1.486,-0.002 -2.303,-0.002 0.268,-0.707 0.514,-1.369 0.776,-2.024 0.025,-0.064 0.144,-0.126 0.221,-0.128 0.44,-0.012 0.88,-0.006 1.32,-0.006 1.563,0 3.126,0.006 4.689,-0.002 0.895,-0.005 1.623,-0.674 1.712,-1.551 0.09,-0.882 -0.51,-1.681 -1.4,-1.863 -0.121,-0.024 -0.244,-0.037 -0.38,-0.057 0.127,-0.447 0.058,-0.849 -0.219,-1.207 -0.279,-0.36 -0.67,-0.496 -1.183,-0.51 2.248,-1.307 4.586,-1.846 7.026,-1.683 0.072,0.466 0.133,0.863 0.195,1.266 -0.151,0 -0.33,0 -0.509,10e-4 -1.024,0.005 -1.794,0.742 -1.797,1.717 -0.004,0.987 0.77,1.729 1.808,1.733 0.275,10e-4 0.549,0 0.833,0 -0.021,0.131 -0.043,0.228 -0.05,0.325 -0.059,0.751 0.518,1.385 1.28,1.398 0.56,0.009 1.12,0.002 1.63,0.002 -0.112,0.404 -0.284,0.782 -0.313,1.17 -0.09,1.242 0.885,2.27 2.133,2.277 1.841,0.011 3.682,0.003 5.524,0.003 0.105,0 0.21,0 0.348,0 0.062,0.577 0.122,1.127 0.185,1.709 M -4.074,1.74 c -0.171,0 -0.279,-0.006 -0.386,0.001 -0.371,0.025 -0.568,0.371 -0.358,0.672 0.711,1.015 1.431,2.023 2.161,3.025 0.202,0.278 0.518,0.244 0.738,-0.061 C -1.341,4.575 -0.77,3.77 -0.196,2.966 -0.081,2.805 0.062,2.657 0.141,2.481 0.208,2.332 0.251,2.138 0.214,1.986 0.163,1.783 -0.041,1.73 -0.245,1.739 c -0.081,0.003 -0.161,0 -0.299,0 0.282,-0.4 0.541,-0.766 0.819,-1.161 0.058,0.103 0.108,0.184 0.15,0.268 1.657,3.313 3.313,6.627 4.969,9.941 0.032,0.064 0.062,0.13 0.098,0.192 0.197,0.332 0.585,0.337 0.774,0 C 6.415,10.713 6.544,10.436 6.68,10.163 7.567,8.389 8.452,6.615 9.339,4.841 9.386,4.747 9.437,4.655 9.508,4.523 c 0.292,0.632 0.566,1.222 0.839,1.812 0.233,0.505 0.47,1.008 0.697,1.516 0.091,0.203 0.211,0.36 0.454,0.354 0.23,-0.005 0.341,-0.16 0.429,-0.352 0.945,-2.053 1.894,-4.105 2.841,-6.157 0.03,-0.064 0.062,-0.127 0.073,-0.151 0.361,0.067 0.699,0.189 1.035,0.18 0.72,-0.019 1.235,-0.403 1.513,-1.066 0.074,-0.175 0.155,-0.218 0.33,-0.22 0.231,-0.003 0.473,-0.013 0.687,-0.086 0.637,-0.219 0.91,-0.791 0.792,-1.633 0.395,0 0.786,0.001 1.177,0 0.471,-10e-4 0.602,-0.137 0.595,-0.615 -0.079,-6.115 -4.451,-11.345 -10.467,-12.522 -6.988,-1.368 -13.823,3.24 -15.161,10.241 -0.148,0.772 -0.175,1.568 -0.235,2.355 -0.03,0.383 0.144,0.539 0.529,0.54 0.529,0.003 1.057,10e-4 1.603,10e-4 v 1.294 c -0.525,0 -1.044,0.004 -1.562,-0.002 -0.218,-0.002 -0.414,0.026 -0.527,0.242 -0.116,0.222 -0.007,0.395 0.119,0.568 0.21,0.288 0.415,0.58 0.657,0.918"
             style="fill:#333333;fill-opacity:1;fill-rule:nonzero;stroke:none"
             id="path28" /></g><g
           id="g30"
           transform="translate(8.4196,26.1749)"><path
             d="m 0,0 v 0.001 c 0.736,0 1.472,-0.008 2.207,0.003 C 2.665,0.011 3.026,0.38 3.045,0.826 3.063,1.272 2.734,1.659 2.282,1.72 1.869,1.777 1.837,1.806 1.747,2.219 1.685,2.509 1.424,2.655 1.157,2.55 0.644,2.348 0.603,2.364 0.335,2.871 0.129,3.262 -0.305,3.493 -0.739,3.445 -1.166,3.398 -1.532,3.096 -1.646,2.674 -1.685,2.529 -1.689,2.373 -1.696,2.222 -1.71,1.908 -1.839,1.76 -2.143,1.725 -2.667,1.666 -3.008,1.305 -2.989,0.827 -2.97,0.343 -2.584,0.002 -2.046,0.001 -1.364,-0.002 -0.682,0 0,0 m 0.033,-0.863 c -0.701,0 -1.401,-0.002 -2.102,0.001 -0.904,0.004 -1.593,0.569 -1.758,1.437 -0.152,0.797 0.3,1.569 1.108,1.913 0.079,0.034 0.166,0.133 0.185,0.217 0.177,0.803 0.65,1.341 1.443,1.542 C -0.284,4.451 0.391,4.187 0.927,3.551 0.978,3.49 1.088,3.444 1.167,3.449 1.781,3.48 2.219,3.223 2.507,2.684 2.547,2.608 2.633,2.537 2.714,2.506 3.554,2.185 4.036,1.4 3.885,0.584 3.721,-0.295 3.03,-0.859 2.107,-0.862 1.416,-0.865 0.724,-0.863 0.033,-0.863"
             style="fill:#333333;fill-opacity:1;fill-rule:nonzero;stroke:none"
             id="path32" /></g><g
           id="g34"
           transform="translate(22.8377,26.1767)"><path
             d="m 0,0 c 0.001,1.425 1.162,2.586 2.586,2.585 1.421,0 2.587,-1.167 2.586,-2.588 C 5.171,-1.424 4.003,-2.59 2.583,-2.589 1.159,-2.588 -0.001,-1.425 0,0"
             style="fill:#333333;fill-opacity:1;fill-rule:nonzero;stroke:none"
             id="path36" /></g><g
           id="g38"
           transform="translate(22.5914,29.351)"><path
             d="M 0,0 C 0.354,-0.003 0.847,-0.479 0.811,-0.737 0.793,-0.87 0.697,-1.039 0.586,-1.099 0.477,-1.158 0.274,-1.15 0.166,-1.085 c -0.171,0.104 -0.329,0.262 -0.431,0.434 -0.065,0.108 -0.064,0.304 -0.009,0.422 C -0.218,-0.113 -0.058,-0.046 0,0"
             style="fill:#333333;fill-opacity:1;fill-rule:nonzero;stroke:none"
             id="path40" /></g><g
           id="g42"
           transform="translate(24.9927,29.8392)"><path
             d="M 0,0 C 0,0.443 0.133,0.645 0.427,0.646 0.72,0.648 0.862,0.438 0.862,0.004 0.862,-0.433 0.723,-0.642 0.431,-0.643 0.137,-0.644 0,-0.44 0,0"
             style="fill:#333333;fill-opacity:1;fill-rule:nonzero;stroke:none"
             id="path44" /></g><g
           id="g46"
           transform="translate(28.2424,29.3532)"><path
             d="M 0,0 C 0.061,-0.045 0.223,-0.109 0.281,-0.224 0.338,-0.34 0.344,-0.54 0.279,-0.646 0.17,-0.824 0.006,-0.988 -0.173,-1.096 c -0.106,-0.065 -0.313,-0.061 -0.42,0.004 -0.108,0.064 -0.196,0.237 -0.21,0.371 C -0.827,-0.474 -0.337,-0.01 0,0"
             style="fill:#333333;fill-opacity:1;fill-rule:nonzero;stroke:none"
             id="path48" /></g><g
           id="g50"
           transform="translate(29.088,25.7435)"><path
             d="m 0,0 c -0.445,0 -0.643,0.132 -0.643,0.43 -0.001,0.299 0.196,0.433 0.641,0.433 0.439,0 0.646,-0.138 0.647,-0.43 C 0.646,0.141 0.435,0 0,0"
             style="fill:#333333;fill-opacity:1;fill-rule:nonzero;stroke:none"
             id="path52" /></g><g
           id="g54"
           transform="translate(28.2572,22.9999)"><path
             d="m 0,0 c -0.349,-0.002 -0.85,0.474 -0.818,0.731 0.017,0.133 0.111,0.302 0.221,0.364 0.109,0.061 0.312,0.056 0.421,-0.009 C -0.005,0.984 0.153,0.826 0.257,0.655 0.323,0.546 0.326,0.351 0.272,0.233 0.218,0.116 0.058,0.047 0,0"
             style="fill:#333333;fill-opacity:1;fill-rule:nonzero;stroke:none"
             id="path56" /></g><g
           id="g58"
           transform="translate(25.8462,22.5195)"><path
             d="m 0,0 c 0,-0.099 0.017,-0.201 -0.003,-0.295 -0.05,-0.229 -0.199,-0.36 -0.438,-0.359 -0.225,0.001 -0.394,0.175 -0.409,0.418 -0.009,0.143 -0.008,0.287 -0.001,0.431 0.012,0.259 0.181,0.433 0.416,0.439 C -0.202,0.64 -0.019,0.469 0.006,0.215 0.012,0.144 0.007,0.072 0.007,0 0.004,0 0.002,0 0,0"
             style="fill:#333333;fill-opacity:1;fill-rule:nonzero;stroke:none"
             id="path60" /></g><g
           id="g62"
           transform="translate(15.3676,29.0261)"><path
             d="m 0,0 c -0.03,-0.006 -0.043,-0.005 -0.045,-0.01 -0.589,-1.169 -1.178,-2.338 -1.762,-3.509 -0.023,-0.046 -0.03,-0.13 -0.003,-0.166 0.134,-0.186 0.281,-0.361 0.445,-0.566 0.329,0.546 0.628,1.055 0.938,1.557 0.226,0.367 0.581,0.369 0.81,0.007 0.177,-0.281 0.342,-0.569 0.513,-0.853 0.141,-0.235 0.282,-0.469 0.435,-0.722 0.125,0.149 0.215,0.275 0.323,0.38 0.159,0.153 0.164,0.289 0.06,0.491 C 1.177,-2.347 0.66,-1.293 0.134,-0.242 0.092,-0.158 0.043,-0.077 0,0"
             style="fill:#ffffff;fill-opacity:1;fill-rule:nonzero;stroke:none"
             id="path64" /></g><g
           id="g66"
           transform="translate(20.2282,22.552)"><path
             d="M 0,0 C 0.142,0.164 0.245,0.301 0.365,0.42 0.618,0.671 0.827,0.668 1.087,0.421 1.22,0.295 1.352,0.166 1.497,0.025 1.613,0.227 1.698,0.406 1.811,0.566 1.93,0.733 1.924,0.876 1.836,1.059 1.492,1.777 1.165,2.504 0.83,3.226 0.802,3.285 0.763,3.338 0.711,3.425 0.327,2.593 -0.041,1.799 -0.405,1.002 -0.427,0.953 -0.431,0.876 -0.409,0.828 -0.289,0.57 -0.158,0.317 0,0"
             style="fill:#ffffff;fill-opacity:1;fill-rule:nonzero;stroke:none"
             id="path68" /></g><g
           id="g70"
           transform="translate(23.7001,26.1675)"><path
             d="M 0,0 C 0.003,-0.952 0.783,-1.724 1.736,-1.717 2.673,-1.711 3.444,-0.936 3.447,0.002 3.45,0.951 2.67,1.733 1.721,1.732 0.767,1.731 -0.003,0.957 0,0"
             style="fill:#008e39;fill-opacity:1;fill-rule:nonzero;stroke:none"
             id="path72" /></g></g></g></g></svg>
