<?xml version="1.0" encoding="UTF-8" standalone="no"?>
<!-- Created with Inkscape (http://www.inkscape.org/) -->

<svg
   version="1.1"
   id="svg2"
   xml:space="preserve"
   width="43.302666"
   height="43.301331"
   viewBox="0 0 43.302666 43.301331"
   sodipodi:docname="b008febeb09e32d3c5d95980414e9943-04.pdf"
   xmlns:inkscape="http://www.inkscape.org/namespaces/inkscape"
   xmlns:sodipodi="http://sodipodi.sourceforge.net/DTD/sodipodi-0.dtd"
   xmlns="http://www.w3.org/2000/svg"
   xmlns:svg="http://www.w3.org/2000/svg"><defs
     id="defs6"><clipPath
       clipPathUnits="userSpaceOnUse"
       id="clipPath16"><path
         d="M 0,35 H 35 V 0 H 0 Z"
         id="path14" /></clipPath></defs><sodipodi:namedview
     id="namedview4"
     pagecolor="#ffffff"
     bordercolor="#666666"
     borderopacity="1.0"
     inkscape:pageshadow="2"
     inkscape:pageopacity="0.0"
     inkscape:pagecheckerboard="0" /><g
     id="g8"
     inkscape:groupmode="layer"
     inkscape:label="b008febeb09e32d3c5d95980414e9943-04"
     transform="matrix(1.3333333,0,0,-1.3333333,-1.6817333,44.983732)"><g
       id="g10"><g
         id="g12"
         clip-path="url(#clipPath16)"><g
           id="g18"
           transform="translate(29.5163,1.2618)"><path
             d="m 0,0 h -24.033 c -2.331,0 -4.222,1.89 -4.222,4.222 v 24.033 c 0,2.331 1.891,4.221 4.222,4.221 H 0 c 2.332,0 4.222,-1.89 4.222,-4.221 V 4.222 C 4.222,1.89 2.332,0 0,0"
             style="fill:#ffffff;fill-opacity:1;fill-rule:nonzero;stroke:none"
             id="path20" /></g><g
           id="g22"
           transform="translate(20.0539,26.3831)"><path
             d="m 0,0 c -1.186,-0.735 -2.464,-1.044 -3.836,-0.985 -1.023,0.044 -1.914,-0.269 -2.7,-0.93 -0.551,-0.462 -1.301,-0.472 -1.845,-0.011 -0.821,0.696 -1.755,0.993 -2.82,0.943 -1.142,-0.053 -2.229,0.168 -3.243,0.708 -0.178,0.094 -0.351,0.198 -0.526,0.297 -0.025,-0.016 -0.049,-0.032 -0.074,-0.049 0.235,-0.484 0.434,-0.991 0.711,-1.45 0.791,-1.307 1.874,-2.238 3.445,-2.44 0.476,-0.061 0.965,-0.021 1.448,-0.033 0.784,-0.021 1.407,-0.623 1.452,-1.402 0.027,-0.462 0.036,-0.925 0.068,-1.387 0.114,-1.665 0.367,-3.309 0.785,-4.925 0.023,-0.089 0.144,-0.205 0.23,-0.215 0.949,-0.113 1.721,-0.551 2.415,-1.193 0.718,-0.663 1.587,-0.886 2.547,-0.685 0.624,0.131 1.148,0.442 1.583,0.949 -2.355,0.302 -4.104,1.472 -5.328,3.442 -0.671,1.081 -1.039,2.271 -1.22,3.528 -0.164,1.145 0.455,1.877 1.605,1.893 0.542,0.008 1.104,-0.019 1.623,0.11 2.015,0.5 3.032,1.998 3.68,3.835 m -8.167,-11.954 c -0.197,1.169 -0.423,2.308 -0.571,3.457 -0.125,0.967 -0.166,1.946 -0.229,2.92 -0.031,0.483 -0.173,0.643 -0.662,0.639 -0.803,-0.007 -1.605,-0.019 -2.377,0.26 -1.653,0.597 -2.755,1.782 -3.514,3.321 -0.573,1.162 -0.835,2.402 -0.856,3.694 -0.006,0.392 0.172,0.619 0.479,0.627 0.296,0.007 0.476,-0.198 0.508,-0.572 0.059,-0.684 0.459,-1.152 0.987,-1.527 0.814,-0.578 1.744,-0.806 2.726,-0.856 0.482,-0.025 0.967,-0.005 1.446,-0.055 0.872,-0.09 1.635,-0.453 2.308,-1.012 0.341,-0.284 0.521,-0.282 0.865,0.002 0.857,0.71 1.84,1.073 2.953,1.056 0.932,-0.014 1.861,0.025 2.715,0.431 0.43,0.204 0.838,0.478 1.205,0.782 C 0.189,1.522 0.387,1.956 0.412,2.458 0.427,2.774 0.64,2.973 0.918,2.964 1.186,2.954 1.397,2.751 1.391,2.456 1.34,-0.01 0.579,-2.17 -1.374,-3.787 c -0.942,-0.78 -2.043,-1.166 -3.275,-1.15 -0.267,0.003 -0.535,0.008 -0.802,-0.003 -0.327,-0.014 -0.527,-0.216 -0.496,-0.537 0.336,-3.496 2.815,-6.402 6.44,-6.375 0.504,0.003 1.008,-0.009 1.512,0.002 1.137,0.025 2.105,-0.371 2.943,-1.13 1.274,-1.152 2.867,-1.138 4.126,0.039 0.73,0.682 1.583,1.054 2.58,1.086 0.364,0.012 0.591,-0.176 0.601,-0.474 0.011,-0.297 -0.206,-0.497 -0.567,-0.512 -0.763,-0.031 -1.41,-0.318 -1.966,-0.84 -1.614,-1.519 -3.84,-1.517 -5.467,-0.002 -1.205,1.121 -2.846,1.128 -4.061,0.019 -1.693,-1.547 -3.825,-1.545 -5.514,0.005 -1.198,1.099 -2.835,1.094 -4.035,-0.012 -1.67,-1.541 -3.848,-1.535 -5.513,0.02 -0.541,0.506 -1.175,0.777 -1.914,0.81 -0.371,0.016 -0.583,0.2 -0.581,0.498 0.002,0.311 0.234,0.504 0.617,0.487 1.021,-0.045 1.876,-0.457 2.613,-1.161 1.163,-1.109 2.812,-1.096 4.021,-0.045 0.427,0.371 0.946,0.639 1.435,0.935 0.153,0.093 0.346,0.12 0.51,0.173"
             style="fill:#333333;fill-opacity:1;fill-rule:nonzero;stroke:none"
             id="path24" /></g><g
           id="g26"
           transform="translate(27.0601,8.107)"><path
             d="m 0,0 c -1.02,0.019 -1.909,0.363 -2.662,1.052 -1.364,1.247 -2.9,1.246 -4.264,-0.003 -1.552,-1.421 -3.76,-1.393 -5.355,0.069 -0.994,0.912 -2.223,1.12 -3.353,0.542 -0.27,-0.139 -0.521,-0.331 -0.746,-0.537 -1.644,-1.504 -3.847,-1.503 -5.47,0.024 -0.557,0.523 -1.206,0.803 -1.968,0.832 -0.346,0.013 -0.553,0.206 -0.551,0.496 0.001,0.301 0.226,0.499 0.585,0.489 0.986,-0.027 1.845,-0.376 2.559,-1.058 0.441,-0.422 0.937,-0.737 1.541,-0.852 0.988,-0.188 1.858,0.064 2.584,0.757 0.78,0.745 1.694,1.154 2.773,1.152 1.067,-0.002 1.971,-0.407 2.745,-1.142 0.964,-0.914 2.298,-1.091 3.414,-0.461 0.248,0.14 0.477,0.324 0.686,0.518 1.559,1.445 3.791,1.457 5.358,0.021 C -0.788,0.673 0.775,0.679 2.116,1.92 2.832,2.583 3.677,2.933 4.651,2.964 5.013,2.975 5.24,2.785 5.249,2.488 5.259,2.191 5.042,1.993 4.68,1.978 3.905,1.946 3.247,1.654 2.693,1.114 1.944,0.384 1.038,0.029 0,0"
             style="fill:#333333;fill-opacity:1;fill-rule:nonzero;stroke:none"
             id="path28" /></g><g
           id="g30"
           transform="translate(27.0581,4.6497)"><path
             d="M 0,0 C -1.105,0.022 -2.021,0.435 -2.809,1.185 -3.789,2.117 -5.231,2.24 -6.362,1.506 -6.559,1.378 -6.737,1.218 -6.911,1.058 c -1.533,-1.403 -3.751,-1.419 -5.283,-0.009 -0.549,0.505 -1.155,0.86 -1.903,0.917 -0.865,0.066 -1.623,-0.205 -2.249,-0.809 -0.741,-0.717 -1.618,-1.12 -2.649,-1.148 -1.055,-0.03 -1.986,0.315 -2.749,1.045 -0.6,0.573 -1.283,0.906 -2.118,0.928 -0.313,0.008 -0.515,0.228 -0.505,0.507 0.009,0.279 0.221,0.479 0.538,0.475 0.998,-0.014 1.869,-0.36 2.593,-1.048 0.45,-0.428 0.952,-0.75 1.569,-0.864 0.977,-0.182 1.84,0.065 2.557,0.749 0.729,0.695 1.577,1.11 2.584,1.157 1.137,0.053 2.107,-0.343 2.934,-1.127 0.97,-0.919 2.291,-1.103 3.412,-0.478 0.257,0.143 0.494,0.335 0.711,0.535 1.543,1.43 3.779,1.443 5.335,0.021 C -0.775,0.668 0.768,0.674 2.129,1.93 2.838,2.584 3.674,2.929 4.636,2.963 5.018,2.977 5.251,2.782 5.251,2.473 5.251,2.176 5.038,1.993 4.667,1.977 3.905,1.943 3.253,1.657 2.707,1.125 1.95,0.386 1.037,0.025 0,0"
             style="fill:#333333;fill-opacity:1;fill-rule:nonzero;stroke:none"
             id="path32" /></g><g
           id="g34"
           transform="translate(20.0539,26.3831)"><path
             d="m 0,0 c -1.186,-0.735 -2.464,-1.044 -3.836,-0.985 -1.023,0.044 -1.914,-0.269 -2.7,-0.93 -0.551,-0.462 -1.301,-0.472 -1.845,-0.011 -0.821,0.696 -1.755,0.993 -2.82,0.943 -1.142,-0.053 -2.229,0.168 -3.243,0.708 -0.178,0.094 -0.351,0.198 -0.526,0.297 -0.025,-0.016 -0.049,-0.032 -0.074,-0.049 0.235,-0.484 0.434,-0.991 0.711,-1.45 0.791,-1.307 1.874,-2.238 3.445,-2.44 0.476,-0.061 0.965,-0.021 1.448,-0.033 0.784,-0.021 1.407,-0.623 1.452,-1.402 0.027,-0.462 0.036,-0.925 0.068,-1.387 0.114,-1.665 0.367,-3.309 0.785,-4.925 0.023,-0.089 0.144,-0.205 0.23,-0.215 0.949,-0.113 1.721,-0.551 2.415,-1.193 0.718,-0.663 1.587,-0.886 2.547,-0.685 0.624,0.131 1.148,0.442 1.583,0.949 -2.355,0.302 -4.104,1.472 -5.328,3.442 -0.671,1.081 -1.039,2.271 -1.22,3.528 -0.164,1.145 0.455,1.877 1.605,1.893 0.542,0.008 1.104,-0.019 1.623,0.11 2.015,0.5 3.032,1.998 3.68,3.835"
             style="fill:#00ccff;fill-opacity:1;fill-rule:nonzero;stroke:none"
             id="path36" /></g></g></g></g></svg>
