<?xml version="1.0" encoding="UTF-8" standalone="no"?>
<!-- Created with Inkscape (http://www.inkscape.org/) -->

<svg
   version="1.1"
   id="svg2"
   xml:space="preserve"
   width="43.302666"
   height="43.301331"
   viewBox="0 0 43.302666 43.301331"
   sodipodi:docname="b008febeb09e32d3c5d95980414e9943-12.pdf"
   xmlns:inkscape="http://www.inkscape.org/namespaces/inkscape"
   xmlns:sodipodi="http://sodipodi.sourceforge.net/DTD/sodipodi-0.dtd"
   xmlns="http://www.w3.org/2000/svg"
   xmlns:svg="http://www.w3.org/2000/svg"><defs
     id="defs6"><clipPath
       clipPathUnits="userSpaceOnUse"
       id="clipPath16"><path
         d="M 0,35 H 35 V 0 H 0 Z"
         id="path14" /></clipPath></defs><sodipodi:namedview
     id="namedview4"
     pagecolor="#ffffff"
     bordercolor="#666666"
     borderopacity="1.0"
     inkscape:pageshadow="2"
     inkscape:pageopacity="0.0"
     inkscape:pagecheckerboard="0" /><g
     id="g8"
     inkscape:groupmode="layer"
     inkscape:label="b008febeb09e32d3c5d95980414e9943-12"
     transform="matrix(1.3333333,0,0,-1.3333333,-1.6817333,44.983732)"><g
       id="g10"><g
         id="g12"
         clip-path="url(#clipPath16)"><g
           id="g18"
           transform="translate(29.5163,1.2618)"><path
             d="m 0,0 h -24.033 c -2.331,0 -4.222,1.89 -4.222,4.222 v 24.033 c 0,2.331 1.891,4.221 4.222,4.221 H 0 c 2.332,0 4.222,-1.89 4.222,-4.221 V 4.222 C 4.222,1.89 2.332,0 0,0"
             style="fill:#ffffff;fill-opacity:1;fill-rule:nonzero;stroke:none"
             id="path20" /></g><g
           id="g22"
           transform="translate(18.1023,17.8008)"><path
             d="M 0,0 C 0.094,0.076 0.201,0.161 0.307,0.246 0.284,0.234 0.261,0.223 0.238,0.211 0.139,0.354 0.041,0.496 -0.045,0.619 -0.166,0.514 -0.26,0.432 -0.353,0.351 -0.219,0.217 -0.096,0.095 0,0 m -3.141,-3.14 c 0.039,-0.002 0.078,-0.004 0.117,-0.006 0.077,0.1 0.198,0.191 0.22,0.302 0.034,0.173 -0.089,0.292 -0.261,0.294 -0.159,0.003 -0.285,-0.1 -0.261,-0.266 0.016,-0.115 0.12,-0.216 0.185,-0.324 M 8.967,-3.458 c 0.361,-0.37 0.732,-0.749 1.107,-1.134 0.38,0.388 0.778,0.791 1.173,1.198 0.131,0.134 0.145,0.286 0.011,0.425 -0.306,0.317 -0.619,0.628 -0.911,0.923 -0.469,-0.48 -0.934,-0.955 -1.38,-1.412 m 0.754,1.983 c -0.36,0.367 -0.734,0.749 -1.084,1.106 -0.444,-0.453 -0.908,-0.929 -1.349,-1.38 0.356,-0.365 0.727,-0.745 1.082,-1.109 0.45,0.46 0.913,0.935 1.351,1.383 M -2.015,7.769 c 0.456,0.466 0.92,0.941 1.362,1.393 -0.356,0.365 -0.727,0.744 -1.085,1.11 -0.448,-0.46 -0.911,-0.935 -1.36,-1.396 0.355,-0.363 0.727,-0.743 1.083,-1.107 M 4.702,-3.163 C 5.192,-2.66 5.655,-2.186 6.09,-1.74 5.743,-1.382 5.374,-1.002 4.997,-0.614 4.615,-1.002 4.217,-1.404 3.823,-1.811 3.683,-1.955 3.687,-2.114 3.825,-2.258 4.124,-2.57 4.427,-2.879 4.702,-3.163 M -1.999,6.576 C -2.465,6.097 -2.928,5.62 -3.408,5.126 -3.128,4.844 -2.829,4.543 -2.53,4.242 -2.372,4.083 -2.213,4.08 -2.055,4.241 c 0.205,0.208 0.403,0.422 0.614,0.624 0.195,0.187 0.403,0.362 0.592,0.53 -0.429,0.441 -0.795,0.817 -1.15,1.181 M -5.654,7.457 C -5.182,7.94 -4.717,8.415 -4.266,8.876 -4.625,9.243 -4.997,9.623 -5.38,10.015 -5.769,9.62 -6.186,9.213 -6.576,8.78 -6.64,8.71 -6.639,8.478 -6.576,8.406 -6.282,8.068 -5.954,7.76 -5.654,7.457 M 8.089,0.271 C 7.791,0.578 7.485,0.898 7.173,1.21 7.047,1.337 6.898,1.331 6.775,1.206 6.371,0.798 5.974,0.382 5.593,-0.011 5.974,-0.4 6.346,-0.781 6.704,-1.147 7.149,-0.692 7.609,-0.221 8.089,0.271 M -0.322,6.033 C 0.07,6.43 0.477,6.836 0.877,7.25 1,7.377 0.997,7.529 0.874,7.657 0.568,7.976 0.257,8.289 -0.032,8.584 -0.509,8.095 -0.973,7.621 -1.423,7.16 -1.069,6.797 -0.697,6.417 -0.322,6.033 m 5.664,-9.769 c 0.366,-0.373 0.737,-0.752 1.086,-1.108 0.445,0.455 0.909,0.929 1.362,1.391 -0.357,0.365 -0.728,0.745 -1.085,1.11 C 6.253,-2.804 5.788,-3.28 5.342,-3.736 M -2.602,7.172 C -2.958,7.536 -3.329,7.917 -3.665,8.261 -4.122,7.799 -4.592,7.324 -5.028,6.883 c 0.354,-0.364 0.724,-0.745 1.071,-1.102 0.446,0.458 0.911,0.935 1.355,1.391 M 12.096,-3.402 C 11.908,-3.663 11.743,-3.947 11.527,-4.181 11.021,-4.727 10.491,-5.25 9.971,-5.782 9.924,-5.83 9.879,-5.88 9.829,-5.924 9.642,-6.094 9.424,-6.103 9.276,-5.949 c -0.151,0.159 -0.143,0.37 0.034,0.564 0.061,0.067 0.147,0.11 0.202,0.149 -0.414,0.423 -0.785,0.803 -1.138,1.164 -0.438,-0.45 -0.903,-0.926 -1.368,-1.404 0.284,-0.301 0.59,-0.642 0.92,-0.955 0.064,-0.061 0.235,-0.048 0.338,-0.013 0.27,0.091 0.46,0.048 0.549,-0.162 C 8.9,-6.81 8.811,-7.024 8.573,-7.145 8.202,-7.333 7.838,-7.311 7.496,-7.065 7.403,-6.997 7.32,-6.911 7.239,-6.828 c -1.282,1.309 -2.562,2.619 -3.842,3.93 -0.568,0.581 -0.565,1.151 0.006,1.737 0.35,0.36 0.7,0.719 1.049,1.079 0.011,0.011 0.015,0.03 0.016,0.034 C 4.221,0.204 3.977,0.453 3.689,0.748 3.524,0.565 3.351,0.364 3.169,0.172 2.898,-0.112 2.625,-0.396 2.344,-0.671 2.004,-1.003 1.578,-1.006 1.235,-0.681 1.108,-0.561 1.002,-0.418 0.9,-0.3 0.849,-0.321 0.839,-0.322 0.833,-0.328 0.466,-0.645 0.464,-0.646 0.65,-1.081 0.959,-1.804 1.056,-2.554 0.943,-3.336 0.912,-3.556 0.83,-3.73 0.619,-3.802 c -0.208,-0.07 -0.388,0.004 -0.54,0.161 -0.531,0.545 -1.063,1.089 -1.595,1.634 -0.029,0.029 -0.06,0.056 -0.166,0.155 -0.134,-0.169 -0.275,-0.332 -0.395,-0.509 -0.033,-0.048 -0.017,-0.142 -0.003,-0.211 0.103,-0.479 -0.088,-0.933 -0.496,-1.166 -0.39,-0.222 -0.894,-0.149 -1.212,0.176 -0.317,0.325 -0.387,0.838 -0.169,1.24 0.226,0.417 0.664,0.604 1.141,0.509 0.086,-0.018 0.201,0.02 0.276,0.072 0.143,0.098 0.267,0.224 0.416,0.353 -0.412,0.422 -0.778,0.798 -1.145,1.174 -0.204,0.209 -0.409,0.419 -0.614,0.628 -0.148,0.15 -0.205,0.331 -0.137,0.533 0.067,0.204 0.225,0.294 0.431,0.327 0.817,0.129 1.603,0.025 2.338,-0.357 0.224,-0.116 0.357,-0.094 0.494,0.097 0.044,0.06 0.099,0.111 0.178,0.198 -0.106,0.094 -0.212,0.176 -0.305,0.271 -0.429,0.438 -0.431,0.864 -0.008,1.3 0.431,0.443 0.864,0.884 1.287,1.316 C 0.131,4.359 -0.121,4.607 -0.391,4.872 -0.717,4.537 -1.077,4.165 -1.439,3.795 -2.012,3.209 -2.569,3.207 -3.137,3.788 -4.423,5.103 -5.71,6.419 -6.995,7.736 c -0.561,0.574 -0.56,1.141 0.003,1.718 0.537,0.552 1.075,1.102 1.614,1.651 0.064,0.065 0.129,0.135 0.206,0.18 0.161,0.095 0.347,0.091 0.442,-0.068 0.069,-0.115 0.056,-0.291 0.049,-0.439 -0.002,-0.062 -0.081,-0.122 -0.113,-0.165 0.375,-0.383 0.747,-0.763 1.1,-1.123 0.441,0.451 0.906,0.927 1.385,1.417 -0.285,0.293 -0.593,0.62 -0.911,0.935 -0.153,0.151 -0.295,0.073 -0.438,-0.047 -0.232,-0.194 -0.522,-0.159 -0.594,0.089 -0.037,0.13 -0.003,0.331 0.077,0.436 0.333,0.431 0.954,0.488 1.379,0.153 0.085,-0.067 0.163,-0.144 0.238,-0.222 C -1.277,10.941 0.003,9.631 1.283,8.32 1.86,7.729 1.861,7.172 1.286,6.584 0.924,6.213 0.56,5.845 0.203,5.482 0.467,5.218 0.718,4.965 0.983,4.7 1.385,5.112 1.804,5.542 2.223,5.971 2.665,6.422 2.947,6.454 3.49,6.097 3.606,6.338 3.718,6.578 3.838,6.814 4.038,7.212 4.37,7.273 4.678,6.962 5.289,6.344 5.897,5.721 6.502,5.096 6.798,4.789 6.743,4.45 6.372,4.25 6.138,4.125 5.9,4.009 5.675,3.894 5.746,3.724 5.838,3.57 5.874,3.403 5.935,3.115 5.815,2.876 5.615,2.674 5.169,2.222 4.724,1.768 4.284,1.321 4.547,1.063 4.8,0.815 5.075,0.545 c 0.321,0.33 0.68,0.7 1.04,1.069 0.59,0.604 1.128,0.607 1.714,0.008 1.234,-1.262 2.473,-2.519 3.697,-3.79 0.22,-0.229 0.382,-0.517 0.57,-0.778 z"
             style="fill:#333333;fill-opacity:1;fill-rule:nonzero;stroke:none"
             id="path24" /></g><g
           id="g26"
           transform="translate(12.9834,4.4995)"><path
             d="m 0,0 c -0.071,0.117 -0.131,0.244 -0.219,0.346 -0.049,0.058 -0.141,0.092 -0.22,0.105 -0.585,0.099 -1.178,0.16 -1.755,0.296 -0.26,0.061 -0.51,0.237 -0.726,0.411 -0.407,0.33 -0.474,0.912 -0.177,1.234 0.262,0.284 0.644,0.363 0.99,0.098 0.454,-0.346 0.832,-0.232 1.241,0.051 0.252,0.174 0.524,0.317 0.849,0.511 -0.18,0.507 -0.37,1.043 -0.58,1.636 C -0.767,4.352 -0.867,4.082 -1.026,3.854 -1.412,3.3 -1.978,3.175 -2.606,3.22 -2.918,3.242 -3.233,3.274 -3.544,3.25 -3.937,3.221 -4.073,3.006 -4.005,2.614 -3.993,2.547 -3.976,2.482 -3.969,2.415 -3.925,1.961 -4.066,1.667 -4.389,1.531 c -0.33,-0.14 -0.717,-0.026 -0.972,0.3 -0.398,0.509 -0.514,1.105 -0.471,1.739 0.036,0.518 0.223,0.981 0.519,1.404 0.118,0.17 0.22,0.356 0.304,0.546 0.079,0.176 0.003,0.304 -0.187,0.323 C -5.384,5.861 -5.574,5.858 -5.763,5.857 -6.15,5.855 -6.539,5.875 -6.81,6.201 -6.95,6.369 -7.033,6.587 -7.148,6.794 -7.286,6.722 -7.445,6.633 -7.609,6.556 -7.845,6.445 -8.038,6.504 -8.139,6.707 -8.238,6.906 -8.165,7.099 -7.942,7.234 -5.811,8.516 -2.98,8.237 -1.169,6.511 0.581,4.843 1.143,2.792 0.54,0.42 0.502,0.269 0.38,0.139 0.298,0 Z"
             style="fill:#333333;fill-opacity:1;fill-rule:nonzero;stroke:none"
             id="path28" /></g><g
           id="g30"
           transform="translate(10.8606,14.8156)"><path
             d="m 0,0 c 0.014,0.232 0.022,0.443 0.04,0.653 0.021,0.256 0.175,0.41 0.39,0.4 0.212,-0.01 0.339,-0.181 0.353,-0.436 0.026,-0.469 0.001,-0.953 0.11,-1.402 0.39,-1.6 1.936,-2.686 3.545,-2.539 0.394,0.036 0.59,-0.073 0.61,-0.337 C 5.068,-3.924 4.895,-4.043 4.495,-4.082 2.474,-4.28 0.575,-2.847 0.118,-0.806 0.058,-0.536 0.037,-0.257 0,0"
             style="fill:#333333;fill-opacity:1;fill-rule:nonzero;stroke:none"
             id="path32" /></g><g
           id="g34"
           transform="translate(12.5382,15.039)"><path
             d="M 0,0 C 0.016,0.119 0.029,0.305 0.067,0.486 0.114,0.71 0.281,0.831 0.477,0.805 0.686,0.778 0.802,0.615 0.794,0.369 0.786,0.126 0.746,-0.123 0.784,-0.359 c 0.159,-0.993 1.034,-1.62 2.007,-1.463 0.032,0.006 0.065,0.011 0.098,0.013 0.259,0.021 0.425,-0.094 0.457,-0.316 C 3.377,-2.341 3.243,-2.511 2.993,-2.562 2.329,-2.695 1.704,-2.573 1.145,-2.197 0.404,-1.699 0.029,-0.977 0,0"
             style="fill:#333333;fill-opacity:1;fill-rule:nonzero;stroke:none"
             id="path36" /></g><g
           id="g38"
           transform="translate(21.0358,23.2968)"><path
             d="m 0,0 c -1.103,-1.129 -2.221,-2.272 -3.292,-3.368 0.709,-0.726 1.448,-1.483 2.179,-2.232 1.085,1.111 2.196,2.246 3.291,3.366 C 1.438,-1.475 0.692,-0.71 0,0"
             style="fill:#004a8c;fill-opacity:1;fill-rule:nonzero;stroke:none"
             id="path40" /></g><g
           id="g42"
           transform="translate(18.3339,15.1491)"><path
             d="M 0,0 C 0.013,1.953 -1.746,3.299 -3.111,3.183 -2.085,2.133 -1.045,1.069 0,0"
             style="fill:#004a8c;fill-opacity:1;fill-rule:nonzero;stroke:none"
             id="path44" /></g><g
           id="g46"
           transform="translate(22.4768,23.9608)"><path
             d="M 0,0 C -0.395,-0.597 -0.395,-0.597 0.095,-1.098 0.141,-1.146 0.188,-1.193 0.234,-1.241 0.721,-1.739 0.721,-1.739 1.32,-1.397 1.333,-1.39 1.34,-1.374 1.341,-1.373 0.893,-0.914 0.445,-0.456 0,0"
             style="fill:#004a8c;fill-opacity:1;fill-rule:nonzero;stroke:none"
             id="path48" /></g><g
           id="g50"
           transform="translate(8.2729,6.8019)"><path
             d="M 0,0 C -0.014,0.085 -0.027,0.171 -0.041,0.256 -0.133,0.8 0.034,1.23 0.478,1.491 0.66,1.598 0.874,1.689 1.078,1.702 1.472,1.726 1.869,1.7 2.264,1.675 2.763,1.643 3.076,1.821 3.244,2.301 3.329,2.545 3.379,2.806 3.409,3.064 3.422,3.169 3.368,3.313 3.296,3.392 2.858,3.874 2.336,4.242 1.748,4.509 0.653,5.007 -0.473,5.089 -1.628,4.786 -1.65,4.425 -1.551,4.321 -1.204,4.315 -0.916,4.31 -0.623,4.334 -0.341,4.286 0.237,4.189 0.564,3.734 0.439,3.152 0.373,2.843 0.2,2.547 0.03,2.275 -0.174,1.949 -0.352,1.62 -0.376,1.23 -0.402,0.78 -0.353,0.346 0,0"
             style="fill:#004a8c;fill-opacity:1;fill-rule:nonzero;stroke:none"
             id="path52" /></g><g
           id="g54"
           transform="translate(10.5262,6.3474)"><path
             d="M 0,0 C -0.013,-0.033 -0.026,-0.066 -0.039,-0.098 0.128,-0.193 0.286,-0.339 0.464,-0.372 1.07,-0.485 1.682,-0.56 2.293,-0.64 2.335,-0.646 2.421,-0.583 2.426,-0.545 2.461,-0.259 2.48,0.028 2.509,0.371 1.685,-0.114 0.943,-0.791 0,0"
             style="fill:#004a8c;fill-opacity:1;fill-rule:nonzero;stroke:none"
             id="path56" /></g></g></g></g></svg>
