<?xml version="1.0" encoding="UTF-8" standalone="no"?>
<!-- Created with Inkscape (http://www.inkscape.org/) -->

<svg
   version="1.1"
   id="svg2"
   xml:space="preserve"
   width="43.302666"
   height="43.301331"
   viewBox="0 0 43.302666 43.301331"
   sodipodi:docname="b008febeb09e32d3c5d95980414e9943-01.pdf"
   xmlns:inkscape="http://www.inkscape.org/namespaces/inkscape"
   xmlns:sodipodi="http://sodipodi.sourceforge.net/DTD/sodipodi-0.dtd"
   xmlns="http://www.w3.org/2000/svg"
   xmlns:svg="http://www.w3.org/2000/svg"><defs
     id="defs6"><clipPath
       clipPathUnits="userSpaceOnUse"
       id="clipPath16"><path
         d="M 0,35 H 35 V 0 H 0 Z"
         id="path14" /></clipPath></defs><sodipodi:namedview
     id="namedview4"
     pagecolor="#ffffff"
     bordercolor="#666666"
     borderopacity="1.0"
     inkscape:pageshadow="2"
     inkscape:pageopacity="0.0"
     inkscape:pagecheckerboard="0" /><g
     id="g8"
     inkscape:groupmode="layer"
     inkscape:label="b008febeb09e32d3c5d95980414e9943-01"
     transform="matrix(1.3333333,0,0,-1.3333333,-1.6817333,44.983732)"><g
       id="g10"><g
         id="g12"
         clip-path="url(#clipPath16)"><g
           id="g18"
           transform="translate(29.5163,1.2618)"><path
             d="m 0,0 h -24.033 c -2.331,0 -4.222,1.89 -4.222,4.222 v 24.033 c 0,2.331 1.891,4.221 4.222,4.221 H 0 c 2.332,0 4.222,-1.89 4.222,-4.221 V 4.222 C 4.222,1.89 2.332,0 0,0"
             style="fill:#ffffff;fill-opacity:1;fill-rule:nonzero;stroke:none"
             id="path20" /></g><path
           d="M 12.484,28.377 H 7.441 V 27.68 h 5.043 z m 5.082,-9.394 c 0,0.204 0.001,0.398 0,0.592 -10e-4,0.075 0.003,0.152 -0.008,0.226 -0.051,0.347 -0.344,0.612 -0.703,0.618 -0.49,0.008 -0.98,0.007 -1.47,0 -0.346,-0.004 -0.648,-0.232 -0.693,-0.568 -0.038,-0.285 -0.008,-0.579 -0.008,-0.868 z m 5.07,-0.003 c 0,0.272 0.011,0.521 -0.003,0.768 -0.02,0.37 -0.322,0.663 -0.697,0.67 -0.498,0.01 -0.996,0.009 -1.494,0 -0.35,-0.006 -0.652,-0.261 -0.688,-0.603 -0.029,-0.273 -0.006,-0.551 -0.006,-0.835 z m -7.952,-2.164 h 2.87 v 1.422 h -2.87 z M 14.678,14.64 h 2.87 v 1.421 h -2.87 z m 5.077,2.175 h 2.872 v 1.422 h -2.872 z m 2.867,-2.685 v 1.926 h -2.871 v -1.432 c 0.528,0 1.047,-0.027 1.563,0.008 0.492,0.032 0.921,-0.035 1.235,-0.454 0.012,-0.017 0.035,-0.024 0.073,-0.048 m 3.655,-6.735 h 2.146 V 9.541 H 26.277 Z M 7.566,26.938 C 7.711,26.5 7.854,26.088 7.982,25.672 8.025,25.53 8.094,25.49 8.238,25.491 c 0.995,0.006 1.991,0.002 2.987,0.004 0.21,0 0.474,-0.064 0.615,0.037 0.142,0.101 0.165,0.371 0.233,0.57 0.093,0.272 0.179,0.548 0.273,0.836 z M 20.469,7.391 h 2.878 v 2.866 h -2.878 z m -8.71,17.362 H 8.164 v -5.045 h 3.595 z m 7.256,-10.12 c 0,0.115 0,0.205 0,0.295 0,1.584 -0.003,3.168 0.002,4.753 0.003,0.832 0.631,1.454 1.463,1.465 0.11,10e-4 0.221,0 0.347,0 0,0.094 0,0.16 0,0.227 0.002,0.784 -0.433,1.222 -1.214,1.222 -0.671,0.001 -1.343,0.004 -2.014,-10e-4 -0.77,-0.005 -1.281,-0.685 -1.083,-1.448 0.042,0 0.087,-0.003 0.132,10e-4 0.927,0.083 1.678,-0.615 1.652,-1.651 -0.037,-1.538 -0.009,-3.078 -0.009,-4.617 v -0.246 z m 2.913,-0.874 c -0.034,-0.017 -0.049,-0.021 -0.06,-0.03 -1.162,-1.056 -2.324,-2.11 -3.481,-3.171 C 18.327,10.504 18.295,10.39 18.295,10.303 18.288,9.39 18.29,8.477 18.291,7.564 c 0,-0.058 0.009,-0.116 0.014,-0.169 h 1.442 v 3.591 h 4.35 V 7.389 h 1.422 c 0.007,0.032 0.016,0.053 0.016,0.074 0.001,0.966 0.003,1.932 -0.002,2.898 -0.001,0.065 -0.036,0.149 -0.084,0.193 -1.169,1.069 -2.342,2.134 -3.521,3.205 m -0.966,0.127 c -0.079,0.008 -0.108,0.013 -0.136,0.013 -2.566,0 -5.131,0.001 -7.697,-0.005 -0.093,0 -0.203,-0.052 -0.277,-0.113 -1.052,-0.87 -2.1,-1.745 -3.149,-2.62 -0.049,-0.04 -0.098,-0.079 -0.146,-0.119 0.009,-0.014 0.018,-0.027 0.026,-0.041 h 0.244 c 2.43,0 4.86,0.012 7.289,-0.011 0.478,-0.005 0.828,0.116 1.175,0.451 0.857,0.828 1.755,1.612 2.671,2.445 m 4.554,7.978 c -0.024,-0.397 -0.047,-0.772 -0.069,-1.147 -0.085,-1.438 -0.17,-2.875 -0.255,-4.313 -0.082,-1.4 -0.161,-2.801 -0.248,-4.2 -0.009,-0.153 0.04,-0.252 0.151,-0.349 0.268,-0.232 0.511,-0.494 0.792,-0.708 0.281,-0.214 0.443,-0.455 0.38,-0.817 -0.002,-0.011 0.013,-0.024 0.019,-0.035 h 1.401 c -0.227,3.869 -0.454,7.718 -0.68,11.569 z M 8.89,7.392 h 8.658 v 2.879 H 8.89 Z m 3.604,11.564 H 7.433 V 7.391 H 8.146 V 7.65 c 0,0.981 0.004,1.962 -0.004,2.944 -10e-4,0.16 0.052,0.259 0.174,0.359 1.348,1.117 2.693,2.238 4.032,3.365 0.078,0.065 0.138,0.197 0.14,0.298 0.01,0.876 0.006,1.751 0.006,2.627 z M 6.707,6.669 v 13.02 h 0.715 v 0.232 c 0,1.66 0.001,3.321 -0.003,4.981 0,0.111 -0.02,0.225 -0.052,0.331 -0.061,0.21 -0.122,0.422 -0.21,0.621 -0.455,1.035 -0.553,2.117 -0.429,3.246 h 6.49 c 0,-0.318 -0.017,-0.641 0.004,-0.961 0.04,-0.605 -0.045,-1.186 -0.286,-1.743 -0.375,-0.867 -0.484,-1.768 -0.452,-2.711 0.041,-1.237 0.01,-2.476 0.01,-3.713 v -0.271 h 0.718 v -5.06 h 0.731 v 0.238 c 0,1.547 0.026,3.095 -0.009,4.642 -0.023,1.004 0.723,1.703 1.632,1.626 0.052,-0.005 0.104,-10e-4 0.168,-10e-4 0.02,0.24 0.019,0.473 0.06,0.699 0.153,0.846 0.876,1.46 1.734,1.472 0.725,0.01 1.449,0.006 2.174,0.002 1.059,-0.006 1.839,-0.788 1.849,-1.847 0.001,-0.098 0,-0.195 0,-0.326 0.097,0 0.184,0 0.271,0 0.934,-0.003 1.54,-0.611 1.54,-1.549 0.002,-1.978 0.003,-3.955 -0.003,-5.933 0,-0.165 0.04,-0.28 0.171,-0.386 0.232,-0.19 0.448,-0.401 0.716,-0.644 0.197,3.343 0.391,6.635 0.586,9.944 h 2.858 c 0.241,-4.087 0.482,-8.18 0.724,-12.298 h 0.735 V 6.669 Z"
           style="fill:#333333;fill-opacity:1;fill-rule:nonzero;stroke:none"
           id="path22" /><g
           id="g24"
           transform="translate(25.8885,23.3305)"><path
             d="m 0,0 h -0.714 c 0,0.096 0.001,0.191 -0.001,0.285 -0.005,0.295 -0.135,0.428 -0.431,0.428 -1.071,0.002 -2.142,0.001 -3.213,0.002 -0.173,0 -0.349,-0.011 -0.519,0.017 -0.49,0.08 -0.86,0.485 -0.905,0.968 -0.045,0.496 0.252,0.954 0.733,1.125 0.055,0.02 0.11,0.038 0.167,0.057 -0.602,1.241 0.421,2.375 1.621,2.158 V 4.337 c -0.114,0 -0.231,0.003 -0.348,0 C -4.02,4.325 -4.332,4.017 -4.336,3.622 -4.341,3.219 -4.024,2.896 -3.604,2.89 -3.131,2.883 -2.658,2.889 -2.174,2.889 V 2.164 c -0.08,0 -0.16,0 -0.239,0 -0.732,0 -1.463,0 -2.195,-0.001 -0.285,0 -0.451,-0.135 -0.452,-0.36 C -5.061,1.577 -4.894,1.44 -4.61,1.439 -3.517,1.438 -2.422,1.407 -1.33,1.449 -0.486,1.482 0.117,0.97 0,0"
             style="fill:#333333;fill-opacity:1;fill-rule:nonzero;stroke:none"
             id="path26" /></g><g
           id="g28"
           transform="translate(27.348,23.3249)"><path
             d="m 0,0 h -0.688 c -0.197,0.72 0.283,1.402 1.014,1.444 0.465,0.027 0.774,0.333 0.76,0.752 -0.015,0.408 -0.339,0.696 -0.79,0.697 -0.573,0.002 -1.145,0.001 -1.745,0.001 0,0.2 0,0.386 0,0.572 -10e-4,0.614 -0.261,0.873 -0.884,0.877 -0.059,0.001 -0.118,0 -0.19,0 v 0.702 c 0.868,0.148 1.717,-0.35 1.812,-1.427 0.366,0 0.734,0.006 1.102,-10e-4 C 1.11,3.602 1.694,3.076 1.8,2.357 1.9,1.683 1.47,1.004 0.803,0.794 0.682,0.755 0.554,0.735 0.427,0.724 0.115,0.697 0.003,0.582 0,0.264 -0.001,0.183 0,0.101 0,0"
             style="fill:#333333;fill-opacity:1;fill-rule:nonzero;stroke:none"
             id="path30" /></g><path
           d="m 23.367,28.375 h 0.705 v -0.693 h -0.705 z"
           style="fill:#333333;fill-opacity:1;fill-rule:nonzero;stroke:none"
           id="path32" /><path
           d="M 8.866,18.228 H 8.161 v -0.689 h 0.705 z m 1.446,10e-4 H 9.608 v -0.693 h 0.704 z m 0.744,-0.693 h 0.698 v 0.702 H 11.056 Z M 9.612,13.193 h 0.696 V 13.89 H 9.612 Z M 8.855,13.882 H 8.158 v -0.697 h 0.697 z m 2.207,0.753 h 0.694 v 0.705 h -0.694 z m -0.751,0.702 H 9.609 v -0.698 h 0.702 z M 8.163,14.642 h 0.696 v 0.697 H 8.163 Z m 3.597,2.14 H 11.063 V 16.086 H 11.76 Z M 9.6,16.088 h 0.703 V 16.78 H 9.6 Z M 8.862,16.78 H 8.157 v -0.694 h 0.705 z m 3.632,2.176 v -1.713 c 0,-0.876 0.004,-1.751 -0.006,-2.627 -0.002,-0.101 -0.062,-0.233 -0.14,-0.298 C 11.009,13.191 9.664,12.07 8.316,10.953 8.194,10.853 8.141,10.754 8.142,10.594 8.15,9.612 8.146,8.631 8.146,7.65 V 7.391 H 7.433 v 11.565 z"
           style="fill:#ffdd10;fill-opacity:1;fill-rule:nonzero;stroke:none"
           id="path34" /><path
           d="m 8.89,10.271 h 8.658 V 7.392 H 8.89 Z"
           style="fill:#ffffff;fill-opacity:1;fill-rule:nonzero;stroke:none"
           id="path36" /><g
           id="g38"
           transform="translate(25.5164,21.8642)"><path
             d="M 0,0 H 1.49 C 1.717,-3.851 1.943,-7.7 2.171,-11.569 H 0.769 c -0.006,0.01 -0.02,0.024 -0.018,0.035 0.063,0.361 -0.1,0.603 -0.38,0.817 -0.281,0.214 -0.524,0.476 -0.792,0.708 -0.112,0.097 -0.161,0.195 -0.151,0.348 0.087,1.4 0.166,2.801 0.248,4.201 0.084,1.437 0.17,2.875 0.255,4.313 C -0.047,-0.772 -0.024,-0.397 0,0"
             style="fill:#ffdd10;fill-opacity:1;fill-rule:nonzero;stroke:none"
             id="path40" /></g><g
           id="g42"
           transform="translate(20.9625,13.8864)"><path
             d="m 0,0 c -0.917,-0.833 -1.815,-1.617 -2.671,-2.445 -0.348,-0.336 -0.697,-0.456 -1.175,-0.452 -2.43,0.024 -4.86,0.011 -7.289,0.011 h -0.244 c -0.009,0.014 -0.018,0.028 -0.027,0.042 0.049,0.04 0.098,0.079 0.146,0.119 1.049,0.874 2.097,1.75 3.15,2.62 0.074,0.061 0.183,0.113 0.277,0.113 2.565,0.006 5.131,0.005 7.696,0.004 C -0.108,0.012 -0.079,0.007 0,0"
             style="fill:#ffdd10;fill-opacity:1;fill-rule:nonzero;stroke:none"
             id="path44" /></g><g
           id="g46"
           transform="translate(21.9278,13.7594)"><path
             d="M 0,0 C 1.179,-1.072 2.352,-2.137 3.521,-3.206 3.569,-3.249 3.605,-3.333 3.605,-3.398 3.61,-4.364 3.608,-5.33 3.607,-6.296 3.607,-6.317 3.598,-6.338 3.591,-6.37 H 2.169 v 3.597 h -4.35 v -3.592 h -1.442 c -0.005,0.054 -0.014,0.112 -0.014,0.169 0,0.914 -0.003,1.827 0.004,2.74 0,0.087 0.032,0.2 0.092,0.255 1.157,1.061 2.32,2.115 3.482,3.17 0.01,0.01 0.025,0.014 0.059,0.031"
             style="fill:#ffffff;fill-opacity:1;fill-rule:nonzero;stroke:none"
             id="path48" /></g><g
           id="g50"
           transform="translate(19.0152,14.6329)"><path
             d="m 0,0 h -0.725 v 0.246 c 0,1.54 -0.027,3.079 0.01,4.617 0.025,1.036 -0.725,1.735 -1.652,1.651 -0.045,-0.004 -0.09,-0.001 -0.132,-0.001 -0.198,0.763 0.312,1.443 1.083,1.448 0.671,0.005 1.343,0.002 2.014,10e-4 0.781,0 1.216,-0.438 1.213,-1.222 0,-0.066 0,-0.133 0,-0.227 -0.126,0 -0.236,0.001 -0.346,0 C 0.633,6.502 0.004,5.88 0.002,5.048 -0.004,3.463 0,1.879 0,0.295 0,0.205 0,0.115 0,0"
             style="fill:#ffffff;fill-opacity:1;fill-rule:nonzero;stroke:none"
             id="path52" /></g><path
           d="m 8.882,20.435 h 2.147 v 3.6 H 8.882 Z m 2.877,-0.726 H 8.164 v 5.045 h 3.595 z"
           style="fill:#ffffff;fill-opacity:1;fill-rule:nonzero;stroke:none"
           id="path54" /><path
           d="m 20.469,10.258 h 2.878 V 7.392 h -2.878 z"
           style="fill:#ffffff;fill-opacity:1;fill-rule:nonzero;stroke:none"
           id="path56" /><g
           id="g58"
           transform="translate(7.5658,26.9382)"><path
             d="M 0,0 H 4.78 C 4.686,-0.289 4.6,-0.564 4.507,-0.836 4.44,-1.035 4.416,-1.305 4.275,-1.406 4.133,-1.507 3.87,-1.443 3.66,-1.443 2.664,-1.445 1.668,-1.441 0.672,-1.447 0.528,-1.448 0.459,-1.409 0.416,-1.267 0.289,-0.85 0.145,-0.438 0,0"
             style="fill:#ffffff;fill-opacity:1;fill-rule:nonzero;stroke:none"
             id="path60" /></g><path
           d="m 26.277,9.541 h 2.146 V 7.395 h -2.146 z"
           style="fill:#ffffff;fill-opacity:1;fill-rule:nonzero;stroke:none"
           id="path62" /><g
           id="g64"
           transform="translate(22.6223,14.1295)"><path
             d="M 0,0 C -0.038,0.024 -0.062,0.032 -0.074,0.048 -0.388,0.468 -0.817,0.535 -1.309,0.502 -1.824,0.468 -2.343,0.494 -2.872,0.494 V 1.927 H 0 Z"
             style="fill:#ffffff;fill-opacity:1;fill-rule:nonzero;stroke:none"
             id="path66" /></g><path
           d="m 19.755,18.236 h 2.872 v -1.422 h -2.872 z"
           style="fill:#ffdd10;fill-opacity:1;fill-rule:nonzero;stroke:none"
           id="path68" /><path
           d="m 14.678,16.061 h 2.87 V 14.64 h -2.87 z"
           style="fill:#ffffff;fill-opacity:1;fill-rule:nonzero;stroke:none"
           id="path70" /><path
           d="m 14.684,18.237 h 2.87 v -1.422 h -2.87 z"
           style="fill:#ffdd10;fill-opacity:1;fill-rule:nonzero;stroke:none"
           id="path72" /><g
           id="g74"
           transform="translate(22.6361,18.9801)"><path
             d="m 0,0 h -2.888 c 0,0.284 -0.023,0.562 0.006,0.835 0.036,0.342 0.338,0.597 0.688,0.603 0.498,0.009 0.996,0.01 1.493,0 0.375,-0.007 0.678,-0.3 0.698,-0.67 C 0.011,0.52 0,0.272 0,0"
             style="fill:#ffffff;fill-opacity:1;fill-rule:nonzero;stroke:none"
             id="path76" /></g><g
           id="g78"
           transform="translate(17.566,18.9828)"><path
             d="m 0,0 h -2.882 c 0,0.289 -0.03,0.584 0.008,0.869 0.045,0.335 0.347,0.563 0.693,0.568 0.49,0.006 0.98,0.007 1.47,-0.001 C -0.352,1.43 -0.059,1.165 -0.008,0.818 0.003,0.744 -0.001,0.668 0,0.592 0.001,0.398 0,0.204 0,0"
             style="fill:#ffffff;fill-opacity:1;fill-rule:nonzero;stroke:none"
             id="path80" /></g><path
           d="M 12.484,27.68 H 7.441 v 0.697 h 5.043 z"
           style="fill:#ffffff;fill-opacity:1;fill-rule:nonzero;stroke:none"
           id="path82" /><path
           d="M 8.862,16.087 H 8.157 v 0.694 h 0.705 z"
           style="fill:#333333;fill-opacity:1;fill-rule:nonzero;stroke:none"
           id="path84" /><path
           d="m 9.6,16.779 h 0.703 V 16.087 H 9.6 Z"
           style="fill:#333333;fill-opacity:1;fill-rule:nonzero;stroke:none"
           id="path86" /><path
           d="m 11.76,16.086 h -0.697 v 0.696 h 0.697 z"
           style="fill:#333333;fill-opacity:1;fill-rule:nonzero;stroke:none"
           id="path88" /><path
           d="M 8.163,15.339 H 8.859 V 14.642 H 8.163 Z"
           style="fill:#333333;fill-opacity:1;fill-rule:nonzero;stroke:none"
           id="path90" /><path
           d="M 10.311,14.639 H 9.609 v 0.698 h 0.702 z"
           style="fill:#333333;fill-opacity:1;fill-rule:nonzero;stroke:none"
           id="path92" /><path
           d="m 11.062,15.34 h 0.694 v -0.705 h -0.694 z"
           style="fill:#333333;fill-opacity:1;fill-rule:nonzero;stroke:none"
           id="path94" /><path
           d="M 8.855,13.185 H 8.158 v 0.697 h 0.697 z"
           style="fill:#333333;fill-opacity:1;fill-rule:nonzero;stroke:none"
           id="path96" /><path
           d="m 9.612,13.89 h 0.696 V 13.193 H 9.612 Z"
           style="fill:#333333;fill-opacity:1;fill-rule:nonzero;stroke:none"
           id="path98" /><path
           d="m 11.056,18.238 h 0.698 v -0.702 h -0.698 z"
           style="fill:#333333;fill-opacity:1;fill-rule:nonzero;stroke:none"
           id="path100" /><path
           d="M 10.312,17.537 H 9.608 v 0.693 h 0.704 z"
           style="fill:#333333;fill-opacity:1;fill-rule:nonzero;stroke:none"
           id="path102" /><path
           d="M 8.866,17.54 H 8.161 v 0.689 h 0.705 z"
           style="fill:#333333;fill-opacity:1;fill-rule:nonzero;stroke:none"
           id="path104" /><path
           d="m 9.611,21.164 h 0.697 V 23.31 H 9.611 Z m -0.729,2.871 h 2.147 v -3.6 H 8.882 Z"
           style="fill:#333333;fill-opacity:1;fill-rule:nonzero;stroke:none"
           id="path106" /><path
           d="m 9.611,23.31 h 0.697 V 21.165 H 9.611 Z"
           style="fill:#ffffff;fill-opacity:1;fill-rule:nonzero;stroke:none"
           id="path108" /></g></g></g></svg>
