<?xml version="1.0" encoding="UTF-8" standalone="no"?>
<!-- Created with Inkscape (http://www.inkscape.org/) -->

<svg
   version="1.1"
   id="svg2"
   xml:space="preserve"
   width="43.302666"
   height="43.301331"
   viewBox="0 0 43.302666 43.301331"
   sodipodi:docname="b008febeb09e32d3c5d95980414e9943-03.pdf"
   xmlns:inkscape="http://www.inkscape.org/namespaces/inkscape"
   xmlns:sodipodi="http://sodipodi.sourceforge.net/DTD/sodipodi-0.dtd"
   xmlns="http://www.w3.org/2000/svg"
   xmlns:svg="http://www.w3.org/2000/svg"><defs
     id="defs6"><clipPath
       clipPathUnits="userSpaceOnUse"
       id="clipPath16"><path
         d="M 0,35 H 35 V 0 H 0 Z"
         id="path14" /></clipPath></defs><sodipodi:namedview
     id="namedview4"
     pagecolor="#ffffff"
     bordercolor="#666666"
     borderopacity="1.0"
     inkscape:pageshadow="2"
     inkscape:pageopacity="0.0"
     inkscape:pagecheckerboard="0" /><g
     id="g8"
     inkscape:groupmode="layer"
     inkscape:label="b008febeb09e32d3c5d95980414e9943-03"
     transform="matrix(1.3333333,0,0,-1.3333333,-1.6817333,44.983732)"><g
       id="g10"><g
         id="g12"
         clip-path="url(#clipPath16)"><g
           id="g18"
           transform="translate(29.5163,1.2618)"><path
             d="m 0,0 h -24.033 c -2.331,0 -4.222,1.89 -4.222,4.222 v 24.033 c 0,2.331 1.891,4.221 4.222,4.221 H 0 c 2.332,0 4.222,-1.89 4.222,-4.221 V 4.222 C 4.222,1.89 2.332,0 0,0"
             style="fill:#ffffff;fill-opacity:1;fill-rule:nonzero;stroke:none"
             id="path20" /></g><g
           id="g22"
           transform="translate(8.203,25.9819)"><path
             d="m 0,0 h 18.578 c 0,0.218 0,0.418 0,0.619 -10e-4,1.349 -0.837,2.188 -2.182,2.188 -2.925,10e-4 -5.85,0 -8.775,0 C 5.764,2.807 3.907,2.812 2.049,2.806 1.043,2.802 0.223,2.126 0.06,1.147 -0.001,0.778 0.018,0.396 0,0"
             style="fill:#eb6608;fill-opacity:1;fill-rule:nonzero;stroke:none"
             id="path24" /></g><g
           id="g26"
           transform="translate(8.2192,14.6578)"><path
             d="m 0,0 v -0.25 c 0,-1.479 0,-2.958 0,-4.436 0,-0.426 0.127,-0.551 0.559,-0.551 5.814,0 11.629,0 17.443,0 0.432,0 0.559,0.125 0.56,0.55 0,1.479 0,2.958 -0.001,4.437 0,0.081 -0.007,0.162 -0.011,0.246 h -3.792 c 0.041,-0.173 -0.113,-0.351 -0.546,-0.639 -0.156,0.171 -0.305,0.353 -0.476,0.512 C 13.66,-0.06 13.54,0.002 13.44,0.003 10.667,0.01 7.894,0.01 5.122,0.003 5.021,0.002 4.902,-0.061 4.826,-0.131 4.651,-0.294 4.497,-0.479 4.32,-0.672 4.145,-0.416 3.808,-0.338 3.763,0 Z"
             style="fill:#eb6608;fill-opacity:1;fill-rule:nonzero;stroke:none"
             id="path28" /></g><path
           d="m 28.781,21.505 h -1.18 v -4.003 h 1.18 z M 7.4,21.511 H 6.218 V 17.51 H 7.4 Z M 9.04,6.209 h 2.388 V 8.602 H 9.04 Z M 8.203,25.982 h 18.578 c 0,0.217 0,0.418 0,0.619 -10e-4,1.349 -0.837,2.188 -2.182,2.188 -2.925,10e-4 -5.85,0 -8.775,0 -1.857,0 -3.714,0.004 -5.572,-0.002 C 9.246,28.784 8.426,28.108 8.263,27.129 8.202,26.76 8.221,26.378 8.203,25.982 M 8.219,14.658 v -0.25 c 0,-1.479 0,-2.958 0,-4.437 0.001,-0.426 0.127,-0.55 0.559,-0.55 5.814,-10e-4 11.629,-10e-4 17.443,0 0.432,0 0.56,0.125 0.56,0.55 0,1.479 0,2.958 0,4.437 0,0.08 -0.008,0.161 -0.012,0.246 h -3.792 c 0.042,-0.173 -0.113,-0.351 -0.546,-0.639 -0.156,0.171 -0.305,0.353 -0.475,0.512 -0.077,0.071 -0.196,0.133 -0.297,0.133 -2.773,0.008 -5.545,0.008 -8.318,0 -0.1,0 -0.22,-0.063 -0.296,-0.133 -0.175,-0.163 -0.329,-0.348 -0.506,-0.541 -0.175,0.256 -0.512,0.334 -0.556,0.672 z m 11.299,5.648 c 0,-0.565 -0.008,-1.103 0.006,-1.64 0.003,-0.121 0.051,-0.266 0.129,-0.355 0.791,-0.894 1.595,-1.777 2.389,-2.668 0.109,-0.122 0.22,-0.174 0.387,-0.174 1.362,0.007 2.724,0.004 4.085,0.004 h 0.251 v 9.665 h -8.848 v -9.646 h 3.18 c -0.53,0.588 -1.032,1.145 -1.585,1.759 v -0.958 h -0.786 v 4.013 z M 15.485,16.3 v 0.947 c -0.548,-0.608 -1.051,-1.168 -1.583,-1.758 h 3.175 v 9.664 H 7.406 c -0.018,0.829 -0.026,1.581 0.121,2.328 0.237,1.209 1.369,2.071 2.6,2.112 0.168,0.005 0.336,0.003 0.504,0.003 4.683,0 9.365,0.002 14.048,0 1.403,-0.001 2.519,-0.863 2.83,-2.193 0.056,-0.242 0.074,-0.499 0.076,-0.749 0.007,-1.336 0.003,-2.673 0.003,-4.01 v -0.311 c 0.37,0 0.727,0.001 1.085,0 0.616,-10e-4 0.932,-0.315 0.932,-0.929 0.001,-1.261 0.001,-2.522 0,-3.783 0,-0.631 -0.31,-0.936 -0.949,-0.937 -0.344,-0.001 -0.688,0 -1.068,0 V 16.38 c 0,-2.11 -0.007,-4.22 0.005,-6.33 C 27.596,9.461 27.42,9.001 26.877,8.714 26.821,8.684 26.786,8.566 26.785,8.489 26.778,7.758 26.782,7.026 26.781,6.295 26.779,5.709 26.46,5.387 25.879,5.386 c -0.748,-0.002 -1.496,-0.002 -2.244,0 -0.562,0.002 -0.887,0.33 -0.889,0.897 -10e-4,0.479 0.001,0.958 0.002,1.437 0,0.016 0.006,1.089 0.013,1.124 H 23.55 V 6.205 h 2.406 V 8.599 H 12.254 c 0,-0.081 0,-0.169 0,-0.257 0,-0.689 0.002,-1.379 0,-2.068 C 12.252,5.71 11.926,5.387 11.357,5.386 10.609,5.384 9.861,5.384 9.112,5.386 8.548,5.387 8.221,5.714 8.22,6.278 8.218,7.01 8.218,7.741 8.221,8.472 8.221,8.595 8.21,8.683 8.077,8.753 7.617,8.994 7.411,9.391 7.411,9.908 c 0.003,2.152 0.001,4.304 0.001,6.456 0,0.098 0,0.197 0,0.32 -0.391,0 -0.759,-0.002 -1.127,0 -0.563,0.003 -0.889,0.33 -0.89,0.895 -10e-4,1.286 -10e-4,2.573 0,3.859 0.001,0.565 0.328,0.892 0.89,0.895 0.368,0.001 0.735,0 1.121,0 v 3.299 H 8.209 V 15.473 h 0.257 c 1.37,0 2.74,-0.004 4.11,0.007 0.123,10e-4 0.279,0.066 0.361,0.155 0.814,0.885 1.617,1.779 2.415,2.678 0.074,0.084 0.122,0.22 0.125,0.333 0.013,0.545 0.006,1.09 0.006,1.653 h 0.793 V 16.3 Z"
           style="fill:#333333;fill-opacity:1;fill-rule:nonzero;stroke:none"
           id="path30" /><path
           d="m 21.927,12.258 h -8.845 v 0.778 h 8.845 z"
           style="fill:#333333;fill-opacity:1;fill-rule:nonzero;stroke:none"
           id="path32" /><path
           d="m 13.072,11.424 h 8.854 v -0.775 h -8.854 z"
           style="fill:#333333;fill-opacity:1;fill-rule:nonzero;stroke:none"
           id="path34" /><g
           id="g36"
           transform="translate(10.6351,12.6474)"><path
             d="m 0,0 c -0.439,-0.002 -0.8,-0.365 -0.801,-0.804 0,-0.45 0.373,-0.816 0.824,-0.808 0.435,0.008 0.795,0.381 0.788,0.818 C 0.804,-0.354 0.44,0.002 0,0 m 1.619,-0.806 c 0.001,-0.889 -0.73,-1.617 -1.621,-1.614 -0.881,0.004 -1.602,0.722 -1.607,1.602 -0.005,0.893 0.718,1.624 1.607,1.626 C 0.89,0.81 1.617,0.086 1.619,-0.806"
             style="fill:#333333;fill-opacity:1;fill-rule:nonzero;stroke:none"
             id="path38" /></g><g
           id="g40"
           transform="translate(25.1658,11.8507)"><path
             d="M 0,0 C -0.006,0.441 -0.368,0.797 -0.809,0.797 -1.257,0.796 -1.623,0.419 -1.612,-0.031 -1.6,-0.469 -1.231,-0.822 -0.791,-0.815 -0.355,-0.808 0.006,-0.436 0,0 m -0.799,-1.623 c -0.893,-0.002 -1.621,0.722 -1.621,1.614 0,0.892 0.728,1.617 1.619,1.614 C 0.09,1.601 0.811,0.871 0.808,-0.022 0.804,-0.899 0.08,-1.621 -0.799,-1.623"
             style="fill:#333333;fill-opacity:1;fill-rule:nonzero;stroke:none"
             id="path42" /></g><path
           d="m 9.844,27.965 h 0.782 V 27.188 H 9.844 Z"
           style="fill:#333333;fill-opacity:1;fill-rule:nonzero;stroke:none"
           id="path44" /><path
           d="m 16.269,27.181 h -0.767 v 0.785 h 0.767 z"
           style="fill:#333333;fill-opacity:1;fill-rule:nonzero;stroke:none"
           id="path46" /><path
           d="M 17.885,27.186 H 17.11 v 0.776 h 0.775 z"
           style="fill:#333333;fill-opacity:1;fill-rule:nonzero;stroke:none"
           id="path48" /><path
           d="M 19.503,27.188 H 18.73 v 0.777 h 0.773 z"
           style="fill:#333333;fill-opacity:1;fill-rule:nonzero;stroke:none"
           id="path50" /><path
           d="m 25.15,27.187 h -0.777 v 0.776 h 0.777 z"
           style="fill:#333333;fill-opacity:1;fill-rule:nonzero;stroke:none"
           id="path52" /><g
           id="g54"
           transform="translate(25.1658,11.8507)"><path
             d="M 0,0 C -0.006,0.441 -0.368,0.797 -0.809,0.797 -1.257,0.796 -1.623,0.419 -1.612,-0.031 -1.6,-0.469 -1.231,-0.822 -0.791,-0.815 -0.355,-0.808 0.006,-0.436 0,0"
             style="fill:#ffffff;fill-opacity:1;fill-rule:nonzero;stroke:none"
             id="path56" /></g><g
           id="g58"
           transform="translate(11.4459,11.8507)"><path
             d="M 0,0 C -0.006,0.441 -0.368,0.797 -0.809,0.797 -1.257,0.796 -1.623,0.419 -1.612,-0.031 -1.6,-0.469 -1.231,-0.822 -0.791,-0.815 -0.355,-0.808 0.006,-0.436 0,0"
             style="fill:#ffffff;fill-opacity:1;fill-rule:nonzero;stroke:none"
             id="path60" /></g></g></g></g></svg>
