<?xml version="1.0" encoding="UTF-8" standalone="no"?>
<!-- Created with Inkscape (http://www.inkscape.org/) -->

<svg
   version="1.1"
   id="svg2"
   xml:space="preserve"
   width="43.302666"
   height="43.301331"
   viewBox="0 0 43.302666 43.301331"
   sodipodi:docname="b008febeb09e32d3c5d95980414e9943-11.pdf"
   xmlns:inkscape="http://www.inkscape.org/namespaces/inkscape"
   xmlns:sodipodi="http://sodipodi.sourceforge.net/DTD/sodipodi-0.dtd"
   xmlns="http://www.w3.org/2000/svg"
   xmlns:svg="http://www.w3.org/2000/svg"><defs
     id="defs6"><clipPath
       clipPathUnits="userSpaceOnUse"
       id="clipPath16"><path
         d="M 0,35 H 35 V 0 H 0 Z"
         id="path14" /></clipPath></defs><sodipodi:namedview
     id="namedview4"
     pagecolor="#ffffff"
     bordercolor="#666666"
     borderopacity="1.0"
     inkscape:pageshadow="2"
     inkscape:pageopacity="0.0"
     inkscape:pagecheckerboard="0" /><g
     id="g8"
     inkscape:groupmode="layer"
     inkscape:label="b008febeb09e32d3c5d95980414e9943-11"
     transform="matrix(1.3333333,0,0,-1.3333333,-1.6817333,44.983732)"><g
       id="g10"><g
         id="g12"
         clip-path="url(#clipPath16)"><g
           id="g18"
           transform="translate(29.5163,1.2618)"><path
             d="m 0,0 h -24.033 c -2.331,0 -4.222,1.89 -4.222,4.222 v 24.033 c 0,2.331 1.891,4.221 4.222,4.221 H 0 c 2.332,0 4.222,-1.89 4.222,-4.221 V 4.222 C 4.222,1.89 2.332,0 0,0"
             style="fill:#ffffff;fill-opacity:1;fill-rule:nonzero;stroke:none"
             id="path20" /></g><g
           id="g22"
           transform="translate(29.6758,11.2658)"><path
             d="M 0,0 C -0.995,-0.625 -1.995,-1.241 -2.992,-1.861 -4.214,-2.62 -5.45,-3.356 -6.655,-4.14 c -1.571,-1.021 -5.119,-0.772 -5.119,-0.808 -0.922,0 -1.845,-0.031 -2.765,0.012 -0.508,0.024 -1.035,0.105 -1.51,0.277 -1.361,0.491 -2.698,1.046 -4.048,1.565 -0.203,0.078 -0.267,0.183 -0.266,0.398 0.008,2.037 0.009,4.074 0,6.11 -0.002,0.254 0.081,0.34 0.325,0.339 0.212,0 0.427,0.02 0.635,0.063 0.948,0.194 1.803,-0.089 2.633,-0.5 0.463,-0.229 0.927,-0.457 1.376,-0.712 1.072,-0.607 2.264,-0.721 3.451,-0.859 0.744,-0.087 1.492,-0.146 2.236,-0.239 0.875,-0.109 1.499,-0.722 1.646,-1.586 0.07,-0.412 -0.139,-0.67 -0.561,-0.671 -1.166,-0.004 -2.331,-0.002 -3.497,-0.002 -0.091,0 -0.183,0.006 -0.273,-0.005 -0.266,-0.034 -0.451,-0.241 -0.446,-0.492 0.006,-0.254 0.193,-0.455 0.464,-0.471 0.243,-0.013 0.487,-0.004 0.73,-0.005 1.125,-0.001 2.25,10e-4 3.375,-0.007 0.391,-0.002 0.752,0.07 1.112,0.243 2.095,1.013 4.198,2.01 6.3,3.009 0.526,0.25 1.051,0.077 1.258,-0.401 C 0.583,0.701 0.437,0.274 0,0 m -10.134,8.64 h 3.001 c 0.005,-0.098 0.016,-0.204 0.016,-0.31 0.001,-0.851 -0.002,-4.341 0.002,-5.192 0,-10e-4 0.001,-10e-4 0.001,-0.002 -0.003,-0.79 -0.002,-1.581 -0.002,-2.372 0,-0.131 0,-0.263 -0.02,-0.409 -0.509,1.397 -1.489,2.144 -2.998,2.2 z M 1.208,1.688 C 0.721,2.553 -0.318,2.851 -1.274,2.401 -1.519,2.286 -1.762,2.171 -2.037,2.041 v 10.176 c 0.491,0 0.965,-0.002 1.439,0 0.228,10e-4 0.422,0.073 0.522,0.296 0.107,0.237 0.017,0.428 -0.148,0.605 -1.299,1.394 -2.595,2.79 -3.895,4.183 -0.332,0.356 -0.577,0.35 -0.918,-0.014 -0.65,-0.696 -1.299,-1.394 -1.948,-2.092 -0.649,-0.697 -1.3,-1.393 -1.946,-2.093 -0.264,-0.286 -0.245,-0.64 0.052,-0.798 0.118,-0.063 0.271,-0.081 0.409,-0.084 0.452,-0.01 0.904,-0.004 1.368,-0.004 v -2.58 h -0.347 c -1.004,0 -2.007,0.001 -3.011,-10e-4 -0.509,0 -0.668,-0.163 -0.67,-0.678 -10e-4,-0.493 0,-0.986 0,-1.506 h -0.363 C -12.506,7.45 -13.52,7.452 -14.534,7.45 -14.887,7.449 -15.109,7.305 -15.13,7.017 c -0.023,-0.326 -0.024,-2.512 -0.009,-3.31 10e-4,-0.022 0,-0.046 0,-0.068 -0.85,0.364 -1.659,0.762 -2.504,1.056 -0.869,0.302 -1.781,0.073 -2.672,0.025 -0.057,0.889 -0.409,1.22 -1.268,1.22 -1.024,0 -2.048,10e-4 -3.071,0 -0.768,0 -1.14,-0.37 -1.14,-1.132 -0.001,-2.088 0,-4.175 0,-6.263 0,-0.091 -0.028,-0.205 0.015,-0.268 0.096,-0.142 0.211,-0.327 0.352,-0.365 0.14,-0.037 0.362,0.042 0.475,0.148 0.097,0.091 0.125,0.292 0.126,0.444 0.007,2.037 0.005,4.074 0.005,6.111 v 0.327 h 3.466 v -9.499 h -3.467 c 0,0.32 0.007,0.623 -0.002,0.925 -0.009,0.312 -0.207,0.511 -0.486,0.51 -0.278,-0.001 -0.474,-0.201 -0.482,-0.514 -0.008,-0.314 -0.008,-0.628 0,-0.942 0.014,-0.534 0.407,-0.958 0.939,-0.965 1.186,-0.015 2.372,-0.015 3.558,0 0.521,0.007 0.901,0.411 0.932,0.937 0.01,0.171 0.001,0.342 0.001,0.564 0.15,-0.052 0.244,-0.082 0.337,-0.118 1.14,-0.446 2.282,-0.886 3.418,-1.343 0.735,-0.295 1.49,-0.439 2.282,-0.42 1.814,0.044 3.627,0.08 5.441,0.113 0.945,0.017 1.818,0.276 2.618,0.772 2.264,1.403 4.527,2.807 6.785,4.218 0.904,0.566 1.186,1.625 0.689,2.508"
             style="fill:#333333;fill-opacity:1;fill-rule:nonzero;stroke:none"
             id="path24" /></g><g
           id="g26"
           transform="translate(22.1546,24.4546)"><path
             d="M 0,0 C 1.013,1.088 1.971,2.118 2.949,3.17 3.924,2.122 4.881,1.095 5.9,0 5.595,0 5.369,0.001 5.143,0 4.644,-0.003 4.493,-0.152 4.493,-0.656 4.491,-2.804 4.492,-4.952 4.492,-7.1 c 0,-1.419 -0.005,-2.838 0.005,-4.256 0.001,-0.204 -0.064,-0.306 -0.246,-0.391 -0.853,-0.396 -1.7,-0.806 -2.55,-1.21 -0.08,-0.038 -0.165,-0.067 -0.29,-0.117 v 0.357 c 0,0.983 0,1.966 0,2.948 0,0.063 0,0.125 -0.001,0.188 0.001,2.402 0.002,6.861 -10e-4,8.987 -0.001,0.426 -0.17,0.588 -0.59,0.593 C 0.578,0.003 0.337,0 0,0"
             style="fill:#ff6161;fill-opacity:1;fill-rule:nonzero;stroke:none"
             id="path28" /></g><g
           id="g30"
           transform="translate(18.527,17.7199)"><path
             d="m 0,0 v -3.829 c -0.865,0.118 -1.708,0.218 -2.544,0.355 -0.482,0.079 -0.478,0.107 -0.478,0.609 0,0.033 -0.001,0.065 -0.001,0.097 0.005,0.634 -10e-4,2.613 -10e-4,2.768 z"
             style="fill:#ff6161;fill-opacity:1;fill-rule:nonzero;stroke:none"
             id="path32" /></g></g></g></g></svg>
